SplineFontDB: 3.0
FontName: Entypo
FullName: Entypo
FamilyName: Entypo
Weight: Book
Copyright: Creative Commons CC BY-SA 2012
Version: 2.000
ItalicAngle: 0
UnderlinePosition: -100
UnderlineWidth: 0
Ascent: 750
Descent: 250
sfntRevision: 0x00020000
LayerCount: 2
Layer: 0 1 "Back"  1
Layer: 1 1 "Fore"  0
XUID: [1021 457 42499402 1061745]
FSType: 4
OS2Version: 3
OS2_WeightWidthSlopeOnly: 0
OS2_UseTypoMetrics: 1
CreationTime: 1350708420
ModificationTime: 1392307277
PfmFamily: 81
TTFWeight: 400
TTFWidth: 5
LineGap: 0
VLineGap: 0
Panose: 0 0 0 0 0 0 0 0 0 0
OS2TypoAscent: 750
OS2TypoAOffset: 0
OS2TypoDescent: -250
OS2TypoDOffset: 0
OS2TypoLinegap: 0
OS2WinAscent: 502
OS2WinAOffset: 0
OS2WinDescent: 2
OS2WinDOffset: 0
HheadAscent: 750
HheadAOffset: 0
HheadDescent: -250
HheadDOffset: 0
OS2SubXSize: 700
OS2SubYSize: 650
OS2SubXOff: 0
OS2SubYOff: 140
OS2SupXSize: 700
OS2SupYSize: 650
OS2SupXOff: 0
OS2SupYOff: 477
OS2StrikeYSize: 50
OS2StrikeYPos: 250
OS2Vendor: 'DB  '
OS2CodePages: 80000000.00000000
OS2UnicodeRanges: 00000000.00000000.00000000.00000000
DEI: 91125
TtTable: prep
PUSHW_1
 0
CALL
SVTCA[y-axis]
PUSHW_3
 1
 5
 2
CALL
SVTCA[x-axis]
PUSHW_3
 6
 5
 2
CALL
SVTCA[x-axis]
PUSHW_8
 6
 110
 90
 70
 55
 28
 0
 8
CALL
PUSHW_8
 7
 184
 150
 117
 80
 46
 0
 8
CALL
PUSHW_8
 8
 158
 121
 94
 80
 46
 0
 8
CALL
PUSHW_8
 9
 138
 121
 94
 55
 46
 0
 8
CALL
PUSHW_8
 10
 50
 41
 32
 23
 12
 0
 8
CALL
SVTCA[y-axis]
PUSHW_8
 1
 110
 90
 70
 55
 28
 0
 8
CALL
PUSHW_8
 2
 184
 150
 117
 80
 46
 0
 8
CALL
PUSHW_8
 3
 79
 65
 50
 36
 28
 0
 8
CALL
PUSHW_8
 4
 44
 33
 26
 19
 12
 0
 8
CALL
PUSHW_8
 5
 37
 33
 26
 19
 12
 0
 8
CALL
SVTCA[y-axis]
PUSHW_3
 11
 3
 7
CALL
PUSHW_1
 0
DUP
RCVT
RDTG
ROUND[Black]
RTG
WCVTP
EndTTInstrs
TtTable: fpgm
PUSHW_1
 0
FDEF
MPPEM
PUSHW_1
 9
LT
IF
PUSHB_2
 1
 1
INSTCTRL
EIF
PUSHW_1
 511
SCANCTRL
PUSHW_1
 68
SCVTCI
PUSHW_2
 9
 3
SDS
SDB
ENDF
PUSHW_1
 1
FDEF
DUP
DUP
RCVT
ROUND[Black]
WCVTP
PUSHB_1
 1
ADD
ENDF
PUSHW_1
 2
FDEF
PUSHW_1
 1
LOOPCALL
POP
ENDF
PUSHW_1

StartChar: mouse
Encoding: 59273 59273 1
Width: 381
Flags: W
LayerCount: 2
Fore
SplineSet
325 140 m 2,0,1
 332 120 332 120 329.5 99.5 c 128,-1,2
 327 79 327 79 316.5 61 c 128,-1,3
 306 43 306 43 288 28.5 c 128,-1,4
 270 14 270 14 247 6 c 0,5,6
 224 -1 224 -1 201.5 0.5 c 128,-1,7
 179 2 179 2 160 10.5 c 128,-1,8
 141 19 141 19 127.5 34 c 128,-1,9
 114 49 114 49 108 69 c 2,10,-1
 55 261 l 2,11,12
 45 296 45 296 58 328.5 c 128,-1,13
 71 361 71 361 100 381 c 1,14,-1
 52 474 l 2,15,16
 49 481 49 481 51 488 c 128,-1,17
 53 495 53 495 59 498 c 0,18,19
 66 502 66 502 72.5 500 c 128,-1,20
 79 498 79 498 83 491 c 2,21,-1
 132 395 l 1,22,23
 152 400 152 400 171.5 398 c 128,-1,24
 191 396 191 396 208.5 387 c 128,-1,25
 226 378 226 378 239.5 363 c 128,-1,26
 253 348 253 348 260 329 c 2,27,-1
 325 140 l 2,0,1
163 277 m 256,28,29
 177 282 177 282 183.5 295 c 128,-1,30
 190 308 190 308 185 322 c 256,31,32
 180 336 180 336 167.5 343 c 128,-1,33
 155 350 155 350 141 345 c 256,34,35
 127 340 127 340 120.5 327 c 128,-1,36
 114 314 114 314 119 300 c 256,37,38
 124 286 124 286 136.5 279 c 128,-1,39
 149 272 149 272 163 277 c 256,28,29
EndSplineSet
EndChar

StartChar: address
Encoding: 59171 59171 2
Width: 600
Flags: W
LayerCount: 2
Fore
SplineSet
263 475 m 2,0,1
 273 475 273 475 273 465 c 2,2,-1
 273 35 l 2,3,4
 273 25 273 25 263 25 c 2,5,-1
 240 25 l 2,6,7
 230 25 230 25 230 35 c 2,8,-1
 230 255 l 1,9,-1
 142 255 l 2,10,11
 134 255 134 255 128 258 c 0,12,13
 124 259 124 259 120.5 260.5 c 128,-1,14
 117 262 117 262 115 264 c 2,15,-1
 55 305 l 2,16,17
 50 308 50 308 50 313 c 256,18,19
 50 318 50 318 55 321 c 2,20,-1
 115 362 l 2,21,22
 117 364 117 364 120.5 365.5 c 128,-1,23
 124 367 124 367 128 368 c 1,24,25
 131 370 131 370 135 370 c 128,-1,26
 139 370 139 370 142 370 c 2,27,-1
 230 370 l 1,28,-1
 230 465 l 2,29,30
 230 475 230 475 240 475 c 2,31,-1
 263 475 l 2,0,1
545 371 m 2,32,33
 550 368 550 368 550 363 c 256,34,35
 550 358 550 358 545 355 c 2,36,-1
 486 314 l 2,37,38
 483 312 483 312 480 310.5 c 128,-1,39
 477 309 477 309 473 308 c 0,40,41
 465 305 465 305 459 305 c 2,42,-1
 308 305 l 1,43,-1
 288 420 l 1,44,-1
 459 420 l 2,45,46
 462 420 462 420 465.5 420 c 128,-1,47
 469 420 469 420 473 418 c 0,48,49
 478 416 478 416 486 412 c 1,50,-1
 545 371 l 2,32,33
EndSplineSet
EndChar

StartChar: mail
Encoding: 9993 9993 3
Width: 550
Flags: W
LayerCount: 2
Fore
SplineSet
65 368 m 0,0,1
 60 371 60 371 56.5 375.5 c 128,-1,2
 53 380 53 380 51.5 384.5 c 128,-1,3
 50 389 50 389 52.5 392 c 128,-1,4
 55 395 55 395 64 395 c 2,5,-1
 487 395 l 2,6,7
 495 395 495 395 497.5 392 c 128,-1,8
 500 389 500 389 499 384.5 c 128,-1,9
 498 380 498 380 494 375.5 c 128,-1,10
 490 371 490 371 485 368 c 0,11,12
 482 366 482 366 467.5 358.5 c 128,-1,13
 453 351 453 351 432.5 340 c 128,-1,14
 412 329 412 329 389 317 c 128,-1,15
 366 305 366 305 346.5 294 c 128,-1,16
 327 283 327 283 313 276 c 128,-1,17
 299 269 299 269 298 268 c 0,18,19
 293 265 293 265 287 264 c 128,-1,20
 281 263 281 263 275 263 c 0,21,22
 261 263 261 263 252 268 c 0,23,24
 250 269 250 269 236.5 276 c 128,-1,25
 223 283 223 283 203.5 294 c 128,-1,26
 184 305 184 305 161 317 c 128,-1,27
 138 329 138 329 117.5 340 c 128,-1,28
 97 351 97 351 82.5 358.5 c 128,-1,29
 68 366 68 366 65 368 c 0,0,1
490 318 m 0,30,31
 498 322 498 322 499 319 c 128,-1,32
 500 316 500 316 500 313 c 2,33,-1
 500 129 l 2,34,35
 500 121 500 121 491.5 113 c 128,-1,36
 483 105 483 105 475 105 c 2,37,-1
 75 105 l 2,38,39
 67 105 67 105 58.5 113 c 128,-1,40
 50 121 50 121 50 129 c 2,41,-1
 50 313 l 2,42,43
 50 316 50 316 51 319 c 128,-1,44
 52 322 52 322 60 318 c 0,45,46
 63 316 63 316 78.5 308.5 c 128,-1,47
 94 301 94 301 114.5 290 c 128,-1,48
 135 279 135 279 158.5 267 c 128,-1,49
 182 255 182 255 202 244.5 c 128,-1,50
 222 234 222 234 236 226.5 c 128,-1,51
 250 219 250 219 252 218 c 0,52,53
 259 214 259 214 264 213.5 c 128,-1,54
 269 213 269 213 275 213 c 256,55,56
 281 213 281 213 286 213.5 c 128,-1,57
 291 214 291 214 298 218 c 0,58,59
 300 219 300 219 314 226.5 c 128,-1,60
 328 234 328 234 348.5 244.5 c 128,-1,61
 369 255 369 255 392.5 267 c 128,-1,62
 416 279 416 279 436.5 290 c 128,-1,63
 457 301 457 301 472 308.5 c 128,-1,64
 487 316 487 316 490 318 c 0,30,31
EndSplineSet
EndChar

StartChar: pencil
Encoding: 9998 9998 4
Width: 491
Flags: W
LayerCount: 2
Fore
SplineSet
409 415 m 256,0,1
 423 401 423 401 429.5 389 c 128,-1,2
 436 377 436 377 438 369 c 0,3,4
 441 359 441 359 440 351 c 1,5,-1
 314 225 l 1,6,-1
 169 81 l 1,7,-1
 50 55 l 1,8,-1
 75 175 l 1,9,-1
 220 319 l 1,10,-1
 346 445 l 1,11,12
 354 446 354 446 364 443 c 0,13,14
 372 441 372 441 383.5 435 c 128,-1,15
 395 429 395 429 409 415 c 256,0,1
174 107 m 1,16,17
 173 113 173 113 170 121 c 0,18,19
 165 135 165 135 148 154 c 0,20,21
 139 163 139 163 130.5 168.5 c 128,-1,22
 122 174 122 174 115 176 c 0,23,24
 107 179 107 179 101 179 c 1,25,-1
 90 167 l 1,26,-1
 81 127 l 1,27,28
 86 124 86 124 92 120 c 128,-1,29
 98 116 98 116 104 110 c 0,30,31
 116 98 116 98 122 86 c 1,32,-1
 162 95 l 1,33,-1
 174 107 l 1,16,17
EndSplineSet
EndChar

StartChar: feather
Encoding: 10002 10002 5
Width: 450
Flags: W
LayerCount: 2
Fore
SplineSet
81 6 m 0,0,1
 79 -2 79 -2 69 1.5 c 128,-1,2
 59 5 59 5 60 19 c 0,3,4
 61 37 61 37 67.5 69 c 128,-1,5
 74 101 74 101 85 132 c 1,6,7
 54 179 54 179 51 217 c 128,-1,8
 48 255 48 255 59 290 c 1,9,10
 63 278 63 278 70.5 261.5 c 128,-1,11
 78 245 78 245 86 229.5 c 128,-1,12
 94 214 94 214 101.5 204 c 128,-1,13
 109 194 109 194 113 196 c 256,14,15
 117 198 117 198 114.5 221.5 c 128,-1,16
 112 245 112 245 109.5 277 c 128,-1,17
 107 309 107 309 108 342.5 c 128,-1,18
 109 376 109 376 120 399 c 0,19,20
 126 411 126 411 137.5 423.5 c 128,-1,21
 149 436 149 436 162 447.5 c 128,-1,22
 175 459 175 459 188.5 467.5 c 128,-1,23
 202 476 202 476 212 481 c 1,24,25
 203 463 203 463 198.5 445 c 128,-1,26
 194 427 194 427 193 412.5 c 128,-1,27
 192 398 192 398 195 388.5 c 128,-1,28
 198 379 198 379 204 379 c 256,29,30
 210 379 210 379 221 397.5 c 128,-1,31
 232 416 232 416 245.5 438.5 c 128,-1,32
 259 461 259 461 273 480 c 128,-1,33
 287 499 287 499 299 500 c 256,34,35
 311 501 311 501 326.5 496.5 c 128,-1,36
 342 492 342 492 356.5 485 c 128,-1,37
 371 478 371 478 382.5 469 c 128,-1,38
 394 460 394 460 397 453 c 0,39,40
 400 447 400 447 400 436.5 c 128,-1,41
 400 426 400 426 397 414 c 128,-1,42
 394 402 394 402 389 390.5 c 128,-1,43
 384 379 384 379 377 372 c 0,44,45
 363 358 363 358 344 351.5 c 128,-1,46
 325 345 325 345 306.5 342 c 128,-1,47
 288 339 288 339 272 336.5 c 128,-1,48
 256 334 256 334 247 329 c 0,49,50
 243 327 243 327 246 320 c 128,-1,51
 249 313 249 313 260.5 306.5 c 128,-1,52
 272 300 272 300 291.5 297.5 c 128,-1,53
 311 295 311 295 341 302 c 1,54,55
 317 268 317 268 289.5 253 c 128,-1,56
 262 238 262 238 238 232.5 c 128,-1,57
 214 227 214 227 197.5 226.5 c 128,-1,58
 181 226 181 226 180 221 c 256,59,60
 179 216 179 216 186 208.5 c 128,-1,61
 193 201 193 201 204 195 c 128,-1,62
 215 189 215 189 228.5 186 c 128,-1,63
 242 183 242 183 255 187 c 1,64,65
 239 158 239 158 225 145 c 128,-1,66
 211 132 211 132 195 127.5 c 128,-1,67
 179 123 179 123 160 122.5 c 128,-1,68
 141 122 141 122 116 118 c 1,69,70
 105 80 105 80 96 52.5 c 128,-1,71
 87 25 87 25 81 6 c 0,0,1
EndSplineSet
EndChar

StartChar: attach
Encoding: 128206 128206 6
Width: 569
Flags: W
LayerCount: 2
Fore
SplineSet
172 5 m 0,0,1
 148 5 148 5 126 14.5 c 128,-1,2
 104 24 104 24 87 41 c 0,3,4
 70 57 70 57 60.5 78.5 c 128,-1,5
 51 100 51 100 50 123.5 c 128,-1,6
 49 147 49 147 59 171.5 c 128,-1,7
 69 196 69 196 92 219 c 0,8,9
 105 232 105 232 135.5 262.5 c 128,-1,10
 166 293 166 293 202.5 329.5 c 128,-1,11
 239 366 239 366 276 403 c 128,-1,12
 313 440 313 440 340 467 c 0,13,14
 359 486 359 486 381.5 493 c 128,-1,15
 404 500 404 500 427 494 c 256,16,17
 450 488 450 488 467 471 c 128,-1,18
 484 454 484 454 490 431 c 256,19,20
 496 408 496 408 489 385 c 128,-1,21
 482 362 482 362 463 343 c 2,22,-1
 226 106 l 2,23,24
 206 86 206 86 182 83 c 0,25,26
 158 81 158 81 142 97 c 0,27,28
 128 111 128 111 128.5 134 c 128,-1,29
 129 157 129 157 152 180 c 2,30,-1
 318 347 l 2,31,32
 323 352 323 352 330.5 352 c 128,-1,33
 338 352 338 352 343 347 c 256,34,35
 348 342 348 342 348 334.5 c 128,-1,36
 348 327 348 327 343 322 c 2,37,-1
 177 156 l 2,38,39
 166 145 166 145 164 135.5 c 128,-1,40
 162 126 162 126 167 121 c 1,41,42
 173 117 173 117 179 118 c 0,43,44
 191 120 191 120 202 131 c 2,45,-1
 439 368 l 2,46,47
 464 393 464 393 456 422 c 0,48,49
 452 436 452 436 442 446 c 128,-1,50
 432 456 432 456 418 460 c 0,51,52
 391 467 391 467 364 442 c 1,53,-1
 117 195 l 2,54,55
 99 177 99 177 92 159 c 128,-1,56
 85 141 85 141 85.5 123.5 c 128,-1,57
 86 106 86 106 93 91 c 128,-1,58
 100 76 100 76 111 65 c 256,59,60
 122 54 122 54 137 47 c 128,-1,61
 152 40 152 40 169.5 39.5 c 128,-1,62
 187 39 187 39 205 46.5 c 128,-1,63
 223 54 223 54 240 71 c 2,64,-1
 488 318 l 2,65,66
 493 323 493 323 500.5 323 c 128,-1,67
 508 323 508 323 513 318 c 256,68,69
 518 313 518 313 518 306 c 128,-1,70
 518 299 518 299 513 294 c 2,71,-1
 265 46 l 2,72,73
 243 24 243 24 219 14.5 c 128,-1,74
 195 5 195 5 172 5 c 0,0,1
EndSplineSet
EndChar

StartChar: inbox
Encoding: 59255 59255 7
Width: 601
Flags: W
LayerCount: 2
Fore
SplineSet
534 274 m 0,0,1
 543 264 543 264 547.5 256 c 128,-1,2
 552 248 552 248 549 238 c 1,3,-1
 535 161 l 2,4,5
 533 151 533 151 524 144.5 c 128,-1,6
 515 138 515 138 504 138 c 2,7,-1
 96 138 l 2,8,9
 85 138 85 138 76 144.5 c 128,-1,10
 67 151 67 151 65 161 c 2,11,-1
 51 238 l 2,12,13
 49 248 49 248 53 256 c 128,-1,14
 57 264 57 264 67 274 c 0,15,16
 70 278 70 278 80 288 c 128,-1,17
 90 298 90 298 101.5 309.5 c 128,-1,18
 113 321 113 321 125 332.5 c 128,-1,19
 137 344 137 344 145 352 c 0,20,21
 156 363 156 363 171 363 c 2,22,-1
 300 363 l 1,23,-1
 429 363 l 2,24,25
 444 363 444 363 455 352 c 0,26,27
 463 344 463 344 475 332.5 c 128,-1,28
 487 321 487 321 499 309.5 c 128,-1,29
 511 298 511 298 520.5 288 c 128,-1,30
 530 278 530 278 534 274 c 0,0,1
490 258 m 1,31,-1
 439 315 l 1,32,-1
 161 315 l 1,33,-1
 110 258 l 1,34,-1
 199 258 l 2,35,36
 203 258 203 258 205 254 c 2,37,-1
 225 204 l 1,38,-1
 375 204 l 1,39,-1
 395 254 l 2,40,41
 397 258 397 258 401 258 c 2,42,-1
 490 258 l 1,31,-1
EndSplineSet
EndChar

StartChar: reply
Encoding: 59154 59154 8
Width: 550
Flags: W
LayerCount: 2
Fore
SplineSet
500 80 m 1,0,1
 477 121 477 121 448.5 145 c 128,-1,2
 420 169 420 169 386.5 181.5 c 128,-1,3
 353 194 353 194 314.5 197.5 c 128,-1,4
 276 201 276 201 231 201 c 1,5,-1
 231 92 l 1,6,-1
 50 259 l 1,7,-1
 231 420 l 1,8,-1
 231 324 l 1,9,10
 272 324 272 324 305.5 313.5 c 128,-1,11
 339 303 339 303 365.5 286 c 128,-1,12
 392 269 392 269 412.5 247 c 128,-1,13
 433 225 433 225 448 202 c 0,14,15
 483 148 483 148 500 80 c 1,0,1
EndSplineSet
EndChar

StartChar: reply-all
Encoding: 59155 59155 9
Width: 600
Flags: W
LayerCount: 2
Fore
SplineSet
125 259 m 1,0,-1
 231 161 l 1,1,-1
 231 92 l 1,2,-1
 50 259 l 1,3,-1
 231 420 l 1,4,-1
 231 353 l 1,5,-1
 125 259 l 1,0,-1
356 324 m 1,6,7
 390 324 390 324 417 313.5 c 128,-1,8
 444 303 444 303 464 286 c 128,-1,9
 484 269 484 269 498.5 247 c 128,-1,10
 513 225 513 225 522 202 c 0,11,12
 544 148 544 148 550 80 c 1,13,14
 527 121 527 121 505 145 c 128,-1,15
 483 169 483 169 460.5 181.5 c 128,-1,16
 438 194 438 194 412.5 197.5 c 128,-1,17
 387 201 387 201 356 201 c 1,18,-1
 356 92 l 1,19,-1
 175 259 l 1,20,-1
 356 420 l 1,21,-1
 356 324 l 1,6,7
EndSplineSet
EndChar

StartChar: forward
Encoding: 10150 10150 10
Width: 550
Flags: W
LayerCount: 2
Fore
SplineSet
320 201 m 1,0,1
 275 201 275 201 236 197.5 c 128,-1,2
 197 194 197 194 163.5 181.5 c 128,-1,3
 130 169 130 169 101.5 145 c 128,-1,4
 73 121 73 121 50 80 c 1,5,6
 67 148 67 148 102 202 c 0,7,8
 117 225 117 225 137.5 247 c 128,-1,9
 158 269 158 269 185 286 c 128,-1,10
 212 303 212 303 245.5 313.5 c 128,-1,11
 279 324 279 324 320 324 c 1,12,-1
 320 420 l 1,13,-1
 500 259 l 1,14,-1
 320 92 l 1,15,-1
 320 201 l 1,16,-1
 320 201 l 1,0,1
EndSplineSet
EndChar

StartChar: user
Encoding: 128100 128100 11
Width: 570
Flags: W
LayerCount: 2
Fore
SplineSet
418 139 m 0,0,1
 465 122 465 122 492.5 106 c 128,-1,2
 520 90 520 90 520 78 c 2,3,-1
 520 25 l 1,4,-1
 285 25 l 1,5,-1
 50 25 l 1,6,-1
 50 78 l 2,7,8
 50 90 50 90 77.5 106 c 128,-1,9
 105 122 105 122 152 139 c 256,10,11
 199 156 199 156 216 173.5 c 128,-1,12
 233 191 233 191 233 221 c 0,13,14
 233 230 233 230 230 234.5 c 128,-1,15
 227 239 227 239 223 244 c 128,-1,16
 219 249 219 249 214 257 c 128,-1,17
 209 265 209 265 206 282 c 0,18,19
 205 289 205 289 201.5 291 c 128,-1,20
 198 293 198 293 194.5 295 c 128,-1,21
 191 297 191 297 187.5 303 c 128,-1,22
 184 309 184 309 183 325 c 0,23,24
 183 336 183 336 187 342 c 0,25,26
 189 345 189 345 192 346 c 1,27,28
 191 353 191 353 190 361 c 0,29,30
 189 368 189 368 188 375 c 128,-1,31
 187 382 187 382 186 390 c 0,32,33
 185 399 185 399 188.5 413.5 c 128,-1,34
 192 428 192 428 203 441.5 c 128,-1,35
 214 455 214 455 233.5 465 c 128,-1,36
 253 475 253 475 285 475 c 256,37,38
 317 475 317 475 337 465 c 128,-1,39
 357 455 357 455 368 441.5 c 128,-1,40
 379 428 379 428 382 413.5 c 128,-1,41
 385 399 385 399 384 390 c 0,42,43
 383 382 383 382 382.5 375 c 128,-1,44
 382 368 382 368 381 361 c 0,45,46
 380 353 380 353 378 346 c 1,47,48
 380 345 380 345 382 342 c 0,49,50
 384 340 384 340 385.5 335.5 c 128,-1,51
 387 331 387 331 387 325 c 0,52,53
 386 309 386 309 382.5 303 c 128,-1,54
 379 297 379 297 375.5 295 c 128,-1,55
 372 293 372 293 368.5 291 c 128,-1,56
 365 289 365 289 364 282 c 0,57,58
 361 265 361 265 356.5 257 c 128,-1,59
 352 249 352 249 347.5 244 c 128,-1,60
 343 239 343 239 340 234.5 c 128,-1,61
 337 230 337 230 337 221 c 0,62,63
 337 191 337 191 354.5 173.5 c 128,-1,64
 372 156 372 156 418 139 c 0,0,1
EndSplineSet
EndChar

StartChar: users
Encoding: 128101 128101 12
Width: 600
Flags: W
LayerCount: 2
Fore
SplineSet
438 30 m 1,0,-1
 438 105 l 2,1,2
 438 118 438 118 435 127.5 c 128,-1,3
 432 137 432 137 422.5 145.5 c 128,-1,4
 413 154 413 154 394.5 164.5 c 128,-1,5
 376 175 376 175 346 190 c 1,6,7
 357 198 357 198 361.5 208 c 128,-1,8
 366 218 366 218 366 232 c 0,9,10
 366 238 366 238 364 241 c 128,-1,11
 362 244 362 244 359.5 247.5 c 128,-1,12
 357 251 357 251 354.5 256.5 c 128,-1,13
 352 262 352 262 350 274 c 0,14,15
 349 279 349 279 347 280 c 128,-1,16
 345 281 345 281 343 282.5 c 128,-1,17
 341 284 341 284 339 288 c 128,-1,18
 337 292 337 292 336 303 c 0,19,20
 336 312 336 312 339 315 c 0,21,22
 340 317 340 317 342 318 c 1,23,24
 341 323 341 323 340 328 c 256,25,26
 339 333 339 333 338.5 338 c 128,-1,27
 338 343 338 343 338 348 c 0,28,29
 337 354 337 354 339 364 c 128,-1,30
 341 374 341 374 347.5 383.5 c 128,-1,31
 354 393 354 393 366 400 c 128,-1,32
 378 407 378 407 397 407 c 256,33,34
 416 407 416 407 428.5 400 c 128,-1,35
 441 393 441 393 447.5 383.5 c 128,-1,36
 454 374 454 374 456 364 c 128,-1,37
 458 354 458 354 457 348 c 0,38,39
 456 343 456 343 456 338 c 128,-1,40
 456 333 456 333 455 328 c 256,41,42
 454 323 454 323 453 318 c 1,43,-1
 456 315 l 2,44,45
 457 313 457 313 458 310.5 c 128,-1,46
 459 308 459 308 459 303 c 0,47,48
 458 292 458 292 456 288 c 128,-1,49
 454 284 454 284 452 282.5 c 128,-1,50
 450 281 450 281 448 280 c 128,-1,51
 446 279 446 279 445 274 c 0,52,53
 443 262 443 262 440.5 256.5 c 128,-1,54
 438 251 438 251 435.5 247.5 c 128,-1,55
 433 244 433 244 431 241 c 128,-1,56
 429 238 429 238 429 232 c 0,57,58
 429 211 429 211 439 199 c 128,-1,59
 449 187 449 187 478 175 c 0,60,61
 506 164 506 164 521.5 155 c 128,-1,62
 537 146 537 146 543 135 c 0,63,64
 545 131 545 131 546.5 114.5 c 128,-1,65
 548 98 548 98 549 79 c 0,66,67
 550 57 550 57 550 30 c 1,68,-1
 438 30 l 1,0,-1
306 161 m 0,69,70
 343 145 343 145 370 130 c 128,-1,71
 397 115 397 115 397 99 c 2,72,-1
 397 30 l 1,73,-1
 50 30 l 1,74,-1
 50 122 l 2,75,76
 50 131 50 131 54.5 137 c 128,-1,77
 59 143 59 143 65.5 147.5 c 128,-1,78
 72 152 72 152 79 155.5 c 128,-1,79
 86 159 86 159 92 161 c 0,80,81
 130 177 130 177 144 192.5 c 128,-1,82
 158 208 158 208 158 237 c 0,83,84
 158 245 158 245 155.5 249 c 128,-1,85
 153 253 153 253 149.5 257.5 c 128,-1,86
 146 262 146 262 142 270 c 128,-1,87
 138 278 138 278 136 293 c 0,88,89
 135 299 135 299 132 300.5 c 128,-1,90
 129 302 129 302 126 304 c 128,-1,91
 123 306 123 306 120.5 311.5 c 128,-1,92
 118 317 118 317 117 332 c 0,93,94
 117 342 117 342 120 347 c 0,95,96
 122 350 122 350 124 351 c 1,97,98
 123 358 123 358 122 365 c 0,99,100
 121 371 121 371 120.5 378 c 128,-1,101
 120 385 120 385 119 392 c 0,102,103
 118 400 118 400 121 413.5 c 128,-1,104
 124 427 124 427 132.5 439.5 c 128,-1,105
 141 452 141 452 157 461 c 128,-1,106
 173 470 173 470 199 470 c 256,107,108
 225 470 225 470 241 461 c 128,-1,109
 257 452 257 452 265.5 439.5 c 128,-1,110
 274 427 274 427 277 413.5 c 128,-1,111
 280 400 280 400 279 392 c 0,112,113
 278 385 278 385 277.5 378 c 128,-1,114
 277 371 277 371 276 365 c 0,115,116
 275 358 275 358 274 351 c 1,117,118
 275 350 275 350 277 347 c 0,119,120
 281 341 281 341 281 332 c 0,121,122
 280 317 280 317 277 311.5 c 128,-1,123
 274 306 274 306 271 304 c 128,-1,124
 268 302 268 302 265.5 300.5 c 128,-1,125
 263 299 263 299 262 293 c 0,126,127
 260 278 260 278 256 270 c 128,-1,128
 252 262 252 262 248.5 257.5 c 128,-1,129
 245 253 245 253 242.5 249 c 128,-1,130
 240 245 240 245 240 237 c 0,131,132
 240 208 240 208 254 192.5 c 128,-1,133
 268 177 268 177 306 161 c 0,69,70
EndSplineSet
EndChar

StartChar: add-user
Encoding: 59136 59136 13
Width: 600
Flags: W
LayerCount: 2
Fore
SplineSet
360 139 m 0,0,1
 407 122 407 122 428.5 106 c 128,-1,2
 450 90 450 90 450 78 c 2,3,-1
 450 25 l 1,4,-1
 50 25 l 1,5,-1
 50 126 l 1,6,7
 61 131 61 131 73 134 c 128,-1,8
 85 137 85 137 91 139 c 0,9,10
 138 156 138 156 155.5 173.5 c 128,-1,11
 173 191 173 191 173 221 c 0,12,13
 173 230 173 230 170 234.5 c 128,-1,14
 167 239 167 239 162.5 244 c 128,-1,15
 158 249 158 249 153.5 257 c 128,-1,16
 149 265 149 265 146 282 c 0,17,18
 144 289 144 289 140.5 291 c 128,-1,19
 137 293 137 293 133.5 295 c 128,-1,20
 130 297 130 297 126.5 303 c 128,-1,21
 123 309 123 309 122 325 c 0,22,23
 122 336 122 336 126 342 c 0,24,25
 128 345 128 345 131 346 c 1,26,27
 130 353 130 353 129 361 c 0,28,29
 128 368 128 368 127 375 c 128,-1,30
 126 382 126 382 125 390 c 0,31,32
 124 399 124 399 127.5 413.5 c 128,-1,33
 131 428 131 428 142 441.5 c 128,-1,34
 153 455 153 455 173 465 c 128,-1,35
 193 475 193 475 225 475 c 0,36,37
 258 475 258 475 278 465 c 128,-1,38
 298 455 298 455 309 441.5 c 128,-1,39
 320 428 320 428 323.5 413.5 c 128,-1,40
 327 399 327 399 326 390 c 0,41,42
 325 382 325 382 324 375 c 128,-1,43
 323 368 323 368 322 361 c 0,44,45
 320 353 320 353 319 346 c 1,46,47
 321 345 321 345 323 342 c 0,48,49
 325 340 325 340 326.5 335.5 c 128,-1,50
 328 331 328 331 328 325 c 0,51,52
 327 309 327 309 323.5 303 c 128,-1,53
 320 297 320 297 316.5 295 c 128,-1,54
 313 293 313 293 309.5 291 c 128,-1,55
 306 289 306 289 305 282 c 0,56,57
 302 265 302 265 297 257 c 128,-1,58
 292 249 292 249 287.5 244 c 128,-1,59
 283 239 283 239 280 234.5 c 128,-1,60
 277 230 277 230 277 221 c 0,61,62
 277 191 277 191 294.5 173.5 c 128,-1,63
 312 156 312 156 360 139 c 0,0,1
550 275 m 1,64,-1
 550 225 l 1,65,-1
 475 225 l 1,66,-1
 475 150 l 1,67,-1
 425 150 l 1,68,-1
 425 225 l 1,69,-1
 350 225 l 1,70,-1
 350 275 l 1,71,-1
 425 275 l 1,72,-1
 425 350 l 1,73,-1
 475 350 l 1,74,-1
 475 275 l 1,75,-1
 550 275 l 1,64,-1
EndSplineSet
EndChar

StartChar: vcard
Encoding: 59170 59170 14
Width: 600
Flags: W
LayerCount: 2
Fore
SplineSet
500 450 m 2,0,1
 521 450 521 450 535.5 435.5 c 128,-1,2
 550 421 550 421 550 400 c 2,3,-1
 550 100 l 2,4,5
 550 80 550 80 535.5 65 c 128,-1,6
 521 50 521 50 500 50 c 2,7,-1
 100 50 l 2,8,9
 80 50 80 50 65 65 c 128,-1,10
 50 80 50 80 50 100 c 2,11,-1
 50 400 l 2,12,13
 50 421 50 421 65 435.5 c 128,-1,14
 80 450 80 450 100 450 c 2,15,-1
 500 450 l 2,0,1
500 400 m 1,16,-1
 100 400 l 1,17,-1
 100 100 l 1,18,-1
 500 100 l 1,19,-1
 500 400 l 1,16,-1
275 153 m 1,20,-1
 150 153 l 1,21,-1
 150 198 l 1,22,-1
 275 198 l 1,23,-1
 275 153 l 1,20,-1
275 228 m 1,24,-1
 150 228 l 1,25,-1
 150 273 l 1,26,-1
 275 273 l 1,27,-1
 275 228 l 1,24,-1
275 303 m 1,28,-1
 150 303 l 1,29,-1
 150 348 l 1,30,-1
 275 348 l 1,31,-1
 275 303 l 1,28,-1
448 188 m 0,32,33
 449 188 449 188 449.5 182.5 c 128,-1,34
 450 177 450 177 450 170 c 2,35,-1
 450 153 l 1,36,-1
 325 153 l 1,37,-1
 325 170 l 2,38,39
 325 177 325 177 325.5 182.5 c 128,-1,40
 326 188 326 188 328 188 c 0,41,42
 339 191 339 191 349 196 c 0,43,44
 357 200 357 200 363.5 206.5 c 128,-1,45
 370 213 370 213 370 221 c 256,46,47
 370 229 370 229 366 235 c 128,-1,48
 362 241 362 241 356.5 248.5 c 128,-1,49
 351 256 351 256 347 266.5 c 128,-1,50
 343 277 343 277 343 293 c 0,51,52
 343 319 343 319 352.5 333.5 c 128,-1,53
 362 348 362 348 388 348 c 256,54,55
 414 348 414 348 423.5 333.5 c 128,-1,56
 433 319 433 319 433 293 c 0,57,58
 433 277 433 277 428.5 266.5 c 128,-1,59
 424 256 424 256 419 248.5 c 128,-1,60
 414 241 414 241 409.5 235 c 128,-1,61
 405 229 405 229 405 221 c 256,62,63
 405 213 405 213 411.5 206.5 c 128,-1,64
 418 200 418 200 426 196 c 0,65,66
 436 191 436 191 448 188 c 0,32,33
EndSplineSet
EndChar

StartChar: export
Encoding: 59157 59157 15
Width: 600
Flags: W
LayerCount: 2
Fore
SplineSet
425 133 m 1,0,-1
 475 174 l 1,1,-1
 475 80 l 2,2,3
 475 70 475 70 468 62.5 c 128,-1,4
 461 55 461 55 450 55 c 2,5,-1
 75 55 l 2,6,7
 64 55 64 55 57 62.5 c 128,-1,8
 50 70 50 70 50 80 c 2,9,-1
 50 355 l 2,10,11
 50 366 50 366 57 373 c 128,-1,12
 64 380 64 380 75 380 c 2,13,-1
 219 380 l 1,14,15
 205 369 205 369 195 360.5 c 128,-1,16
 185 352 185 352 178 345 c 0,17,18
 170 337 170 337 165 330 c 1,19,-1
 100 330 l 1,20,-1
 100 105 l 1,21,-1
 425 105 l 1,22,-1
 425 133 l 1,0,-1
384 279 m 1,23,24
 343 279 343 279 314.5 275 c 128,-1,25
 286 271 286 271 264 259 c 128,-1,26
 242 247 242 247 223 225 c 128,-1,27
 204 203 204 203 183 168 c 1,28,29
 186 223 186 223 208 267 c 0,30,31
 217 286 217 286 231.5 304 c 128,-1,32
 246 322 246 322 267.5 336 c 128,-1,33
 289 350 289 350 317.5 358.5 c 128,-1,34
 346 367 346 367 384 367 c 1,35,-1
 384 445 l 1,36,-1
 550 320 l 1,37,-1
 384 190 l 1,38,-1
 384 279 l 1,23,24
EndSplineSet
EndChar

StartChar: location
Encoding: 59172 59172 16
Width: 350
Flags: W
LayerCount: 2
Fore
SplineSet
175 450 m 256,0,1
 201 450 201 450 223.5 440 c 128,-1,2
 246 430 246 430 263 413 c 128,-1,3
 280 396 280 396 290 373.5 c 128,-1,4
 300 351 300 351 300 325 c 0,5,6
 300 280 300 280 280 232 c 128,-1,7
 260 184 260 184 237 143 c 0,8,9
 210 95 210 95 175 50 c 1,10,11
 139 95 139 95 112 143 c 0,12,13
 89 184 89 184 69.5 232 c 128,-1,14
 50 280 50 280 50 325 c 0,15,16
 50 351 50 351 60 373.5 c 128,-1,17
 70 396 70 396 87 413 c 128,-1,18
 104 430 104 430 126.5 440 c 128,-1,19
 149 450 149 450 175 450 c 256,0,1
175 256 m 256,20,21
 203 256 203 256 223 276 c 128,-1,22
 243 296 243 296 243 324 c 256,23,24
 243 352 243 352 223 371.5 c 128,-1,25
 203 391 203 391 175 391 c 256,26,27
 147 391 147 391 127.5 371.5 c 128,-1,28
 108 352 108 352 108 324 c 256,29,30
 108 296 108 296 127.5 276 c 128,-1,31
 147 256 147 256 175 256 c 256,20,21
EndSplineSet
EndChar

StartChar: map
Encoding: 59175 59175 17
Width: 600
Flags: W
LayerCount: 2
Fore
SplineSet
542 375 m 2,0,1
 550 370 550 370 550 360 c 2,2,-1
 550 68 l 2,3,4
 550 58 550 58 542 53 c 0,5,6
 537 50 537 50 534 50 c 0,7,8
 529 50 529 50 525 53 c 2,9,-1
 417 121 l 1,10,-1
 309 53 l 2,11,12
 300 48 300 48 292 53 c 2,13,-1
 183 121 l 1,14,-1
 75 53 l 2,15,16
 67 48 67 48 58 53 c 0,17,18
 50 58 50 58 50 68 c 2,19,-1
 50 360 l 2,20,21
 50 370 50 370 58 375 c 2,22,-1
 175 448 l 2,23,24
 183 453 183 453 192 448 c 2,25,-1
 300 380 l 1,26,-1
 409 448 l 2,27,28
 417 453 417 453 425 448 c 2,29,-1
 542 375 l 2,0,1
167 403 m 1,30,-1
 83 351 l 1,31,-1
 83 98 l 1,32,-1
 167 150 l 1,33,-1
 167 403 l 1,30,-1
284 351 m 1,34,-1
 200 403 l 1,35,-1
 200 150 l 1,36,-1
 284 98 l 1,37,-1
 284 351 l 1,34,-1
401 403 m 1,38,-1
 316 351 l 1,39,-1
 316 98 l 1,40,-1
 401 150 l 1,41,-1
 401 403 l 1,38,-1
517 351 m 1,42,-1
 433 403 l 1,43,-1
 433 150 l 1,44,-1
 517 98 l 1,45,-1
 517 351 l 1,42,-1
EndSplineSet
EndChar

StartChar: compass
Encoding: 59176 59176 18
Width: 582
Flags: W
LayerCount: 2
Fore
SplineSet
288 490 m 1,0,1
 337 491 337 491 381 472.5 c 128,-1,2
 425 454 425 454 458 422 c 128,-1,3
 491 390 491 390 510.5 346.5 c 128,-1,4
 530 303 530 303 531 254 c 0,5,6
 532 204 532 204 513.5 160 c 128,-1,7
 495 116 495 116 463 83 c 128,-1,8
 431 50 431 50 387.5 30.5 c 128,-1,9
 344 11 344 11 294 10 c 0,10,11
 244 10 244 10 200.5 28 c 128,-1,12
 157 46 157 46 124 78.5 c 128,-1,13
 91 111 91 111 71.5 154 c 128,-1,14
 52 197 52 197 51 247 c 256,15,16
 50 297 50 297 68.5 341 c 128,-1,17
 87 385 87 385 119 418 c 128,-1,18
 151 451 151 451 194.5 470.5 c 128,-1,19
 238 490 238 490 288 490 c 1,0,1
294 61 m 256,20,21
 333 61 333 61 367 76.5 c 128,-1,22
 401 92 401 92 426.5 118 c 128,-1,23
 452 144 452 144 466.5 179 c 128,-1,24
 481 214 481 214 481 253 c 0,25,26
 480 292 480 292 464.5 326.5 c 128,-1,27
 449 361 449 361 423 386.5 c 128,-1,28
 397 412 397 412 362.5 426 c 128,-1,29
 328 440 328 440 289 440 c 256,30,31
 250 440 250 440 215.5 424.5 c 128,-1,32
 181 409 181 409 155.5 383 c 128,-1,33
 130 357 130 357 115.5 322 c 128,-1,34
 101 287 101 287 102 248 c 0,35,36
 102 209 102 209 117.5 174.5 c 128,-1,37
 133 140 133 140 159 114.5 c 128,-1,38
 185 89 185 89 220 75 c 128,-1,39
 255 61 255 61 294 61 c 256,20,21
177 138 m 1,40,41
 182 170 182 170 191 201 c 0,42,43
 199 227 199 227 211 254.5 c 128,-1,44
 223 282 223 282 242 301 c 0,45,46
 260 319 260 319 288 331 c 128,-1,47
 316 343 316 343 342 351 c 0,48,49
 373 360 373 360 405 365 c 1,50,51
 400 333 400 333 391 302 c 0,52,53
 383 276 383 276 370.5 248 c 128,-1,54
 358 220 358 220 340 202 c 256,55,56
 322 184 322 184 294 172 c 128,-1,57
 266 160 266 160 240 152 c 0,58,59
 209 143 209 143 177 138 c 1,40,41
267 276 m 1,60,61
 256 266 256 266 256 252 c 128,-1,62
 256 238 256 238 267 227 c 0,63,64
 277 216 277 216 291 216 c 128,-1,65
 305 216 305 216 316 227 c 0,66,67
 331 242 331 242 342 268.5 c 128,-1,68
 353 295 353 295 360 320 c 1,69,70
 334 313 334 313 308 302.5 c 128,-1,71
 282 292 282 292 267 276 c 1,60,61
EndSplineSet
EndChar

StartChar: direction
Encoding: 10146 10146 19
Width: 530
Flags: W
LayerCount: 2
Fore
SplineSet
474 459 m 0,0,1
 479 454 479 454 479.5 448 c 128,-1,2
 480 442 480 442 476.5 433.5 c 128,-1,3
 473 425 473 425 466.5 413 c 128,-1,4
 460 401 460 401 452 383 c 0,5,6
 429 335 429 335 397.5 275.5 c 128,-1,7
 366 216 366 216 337 162 c 0,8,9
 303 100 303 100 267 35 c 1,10,-1
 240 225 l 1,11,-1
 50 253 l 1,12,13
 114 289 114 289 176 322 c 0,14,15
 203 336 203 336 232 351.5 c 128,-1,16
 261 367 261 367 290 382 c 128,-1,17
 319 397 319 397 346.5 411 c 128,-1,18
 374 425 374 425 398 437 c 0,19,20
 433 454 433 454 448 462 c 128,-1,21
 463 470 463 470 474 459 c 0,0,1
276 271 m 1,22,-1
 290 154 l 1,23,-1
 428 411 l 1,24,-1
 276 271 l 1,22,-1
EndSplineSet
EndChar

StartChar: hair-cross
Encoding: 127919 127919 20
Width: 530
Flags: W
LayerCount: 2
Fore
SplineSet
265 465 m 256,0,1
 310 465 310 465 349 448 c 128,-1,2
 388 431 388 431 417 402 c 128,-1,3
 446 373 446 373 463 334 c 128,-1,4
 480 295 480 295 480 250 c 0,5,6
 480 206 480 206 463 166.5 c 128,-1,7
 446 127 446 127 417 98 c 128,-1,8
 388 69 388 69 349 52 c 128,-1,9
 310 35 310 35 265 35 c 256,10,11
 220 35 220 35 181 52 c 128,-1,12
 142 69 142 69 113 98 c 128,-1,13
 84 127 84 127 67 166.5 c 128,-1,14
 50 206 50 206 50 250 c 0,15,16
 50 295 50 295 67 334 c 128,-1,17
 84 373 84 373 113 402 c 128,-1,18
 142 431 142 431 181 448 c 128,-1,19
 220 465 220 465 265 465 c 256,0,1
283 76 m 1,20,21
 314 79 314 79 341 92.5 c 128,-1,22
 368 106 368 106 389 127 c 128,-1,23
 410 148 410 148 423 175 c 128,-1,24
 436 202 436 202 439 233 c 1,25,-1
 343 233 l 1,26,-1
 343 268 l 1,27,-1
 439 268 l 1,28,29
 436 299 436 299 423 326 c 128,-1,30
 410 353 410 353 389 374 c 128,-1,31
 368 395 368 395 341 408.5 c 128,-1,32
 314 422 314 422 283 425 c 1,33,-1
 283 328 l 1,34,-1
 248 328 l 1,35,-1
 248 425 l 1,36,37
 217 422 217 422 189.5 408.5 c 128,-1,38
 162 395 162 395 141 374 c 128,-1,39
 120 353 120 353 107 326 c 128,-1,40
 94 299 94 299 91 268 c 1,41,-1
 188 268 l 1,42,-1
 188 233 l 1,43,-1
 91 233 l 1,44,45
 94 202 94 202 107 175 c 128,-1,46
 120 148 120 148 141 127 c 128,-1,47
 162 106 162 106 189.5 92.5 c 128,-1,48
 217 79 217 79 248 76 c 1,49,-1
 248 173 l 1,50,-1
 283 173 l 1,51,-1
 283 76 l 1,20,21
EndSplineSet
EndChar

StartChar: share
Encoding: 59196 59196 21
Width: 500
Flags: W
LayerCount: 2
Fore
SplineSet
375 175 m 0,0,1
 407 175 407 175 428.5 153.5 c 128,-1,2
 450 132 450 132 450 100 c 0,3,4
 450 69 450 69 428.5 47 c 128,-1,5
 407 25 407 25 375 25 c 0,6,7
 344 25 344 25 322 47 c 128,-1,8
 300 69 300 69 300 100 c 0,9,10
 300 104 300 104 300.5 107 c 128,-1,11
 301 110 301 110 301 113 c 1,12,-1
 171 191 l 1,13,14
 150 175 150 175 125 175 c 0,15,16
 94 175 94 175 72 197 c 128,-1,17
 50 219 50 219 50 250 c 0,18,19
 50 282 50 282 72 303.5 c 128,-1,20
 94 325 94 325 125 325 c 0,21,22
 151 325 151 325 171 310 c 1,23,-1
 301 388 l 1,24,25
 301 391 301 391 300.5 394 c 128,-1,26
 300 397 300 397 300 400 c 0,27,28
 300 432 300 432 322 453.5 c 128,-1,29
 344 475 344 475 375 475 c 0,30,31
 407 475 407 475 428.5 453.5 c 128,-1,32
 450 432 450 432 450 400 c 0,33,34
 450 369 450 369 428.5 347 c 128,-1,35
 407 325 407 325 375 325 c 0,36,37
 349 325 349 325 330 341 c 1,38,-1
 199 263 l 1,39,40
 200 259 200 259 200 250 c 0,41,42
 200 242 200 242 199 238 c 1,43,-1
 330 160 l 1,44,45
 348 175 348 175 375 175 c 0,0,1
EndSplineSet
EndChar

StartChar: shareable
Encoding: 59198 59198 22
Width: 600
Flags: W
LayerCount: 2
Fore
SplineSet
220 250 m 0,0,1
 220 284 220 284 243.5 307 c 128,-1,2
 267 330 267 330 300 330 c 256,3,4
 333 330 333 330 356.5 307 c 128,-1,5
 380 284 380 284 380 250 c 0,6,7
 380 217 380 217 356.5 193.5 c 128,-1,8
 333 170 333 170 300 170 c 256,9,10
 267 170 267 170 243.5 193.5 c 128,-1,11
 220 217 220 217 220 250 c 0,0,1
163 280 m 0,12,13
 161 273 161 273 155 261.5 c 128,-1,14
 149 250 149 250 130 250 c 2,15,-1
 50 250 l 1,16,-1
 50 310 l 1,17,-1
 109 310 l 1,18,19
 119 341 119 341 137.5 366.5 c 128,-1,20
 156 392 156 392 181 410.5 c 128,-1,21
 206 429 206 429 236.5 439.5 c 128,-1,22
 267 450 267 450 300 450 c 0,23,24
 342 450 342 450 378 434.5 c 128,-1,25
 414 419 414 419 442 392 c 0,26,27
 450 383 450 383 450 370.5 c 128,-1,28
 450 358 450 358 442 349 c 1,29,30
 433 341 433 341 420.5 341 c 128,-1,31
 408 341 408 341 399 349 c 1,32,33
 360 390 360 390 300 390 c 0,34,35
 249 390 249 390 211.5 359 c 128,-1,36
 174 328 174 328 163 280 c 0,12,13
550 250 m 1,37,-1
 550 190 l 1,38,-1
 491 190 l 1,39,40
 481 160 481 160 462.5 134 c 128,-1,41
 444 108 444 108 419.5 89.5 c 128,-1,42
 395 71 395 71 364.5 60.5 c 128,-1,43
 334 50 334 50 300 50 c 0,44,45
 258 50 258 50 222 66 c 128,-1,46
 186 82 186 82 159 109 c 0,47,48
 150 118 150 118 150 130.5 c 128,-1,49
 150 143 150 143 159 151 c 1,50,51
 167 160 167 160 179.5 160 c 128,-1,52
 192 160 192 160 201 151 c 0,53,54
 220 132 220 132 245.5 121 c 128,-1,55
 271 110 271 110 300 110 c 0,56,57
 351 110 351 110 388.5 141.5 c 128,-1,58
 426 173 426 173 437 220 c 0,59,60
 439 228 439 228 445 239 c 128,-1,61
 451 250 451 250 470 250 c 2,62,-1
 550 250 l 1,37,-1
EndSplineSet
EndChar

StartChar: heart
Encoding: 9829 9829 23
Width: 532
Flags: W
LayerCount: 2
Fore
SplineSet
446 397 m 0,0,1
 464 381 464 381 472.5 360.5 c 128,-1,2
 481 340 481 340 481 319 c 128,-1,3
 481 298 481 298 472.5 277 c 128,-1,4
 464 256 464 256 446 240 c 2,5,-1
 266 75 l 1,6,-1
 86 240 l 2,7,8
 68 256 68 256 59.5 277 c 128,-1,9
 51 298 51 298 51 319 c 128,-1,10
 51 340 51 340 59.5 360.5 c 128,-1,11
 68 381 68 381 86 397 c 0,12,13
 102 411 102 411 121.5 418 c 128,-1,14
 141 425 141 425 162 425 c 128,-1,15
 183 425 183 425 202.5 418 c 128,-1,16
 222 411 222 411 238 397 c 2,17,-1
 266 371 l 1,18,-1
 295 397 l 2,19,20
 310 411 310 411 330 418 c 128,-1,21
 350 425 350 425 370.5 425 c 128,-1,22
 391 425 391 425 410.5 418 c 128,-1,23
 430 411 430 411 446 397 c 0,0,1
EndSplineSet
EndChar

StartChar: heart-empty
Encoding: 9825 9825 24
Width: 532
Flags: W
LayerCount: 2
Fore
SplineSet
446 396 m 0,0,1
 464 380 464 380 472.5 359.5 c 128,-1,2
 481 339 481 339 481 318 c 128,-1,3
 481 297 481 297 472.5 276.5 c 128,-1,4
 464 256 464 256 446 240 c 2,5,-1
 266 75 l 1,6,-1
 86 240 l 2,7,8
 68 256 68 256 59.5 276.5 c 128,-1,9
 51 297 51 297 51 318 c 128,-1,10
 51 339 51 339 59.5 359.5 c 128,-1,11
 68 380 68 380 86 396 c 0,12,13
 102 411 102 411 121.5 418 c 128,-1,14
 141 425 141 425 161.5 425 c 128,-1,15
 182 425 182 425 202 418 c 128,-1,16
 222 411 222 411 237 396 c 1,17,-1
 266 370 l 1,18,-1
 294 396 l 2,19,20
 326 425 326 425 370 425 c 128,-1,21
 414 425 414 425 446 396 c 0,0,1
419 266 m 2,22,23
 440 286 440 286 440 318 c 0,24,25
 440 333 440 333 436.5 345 c 128,-1,26
 433 357 433 357 421 368 c 0,27,28
 411 378 411 378 397.5 382.5 c 128,-1,29
 384 387 384 387 370 387 c 0,30,31
 355 387 355 387 342 380 c 128,-1,32
 329 373 329 373 318 363 c 2,33,-1
 266 317 l 1,34,-1
 213 363 l 2,35,36
 203 373 203 373 189.5 380 c 128,-1,37
 176 387 176 387 162 387 c 0,38,39
 130 387 130 387 110 368 c 0,40,41
 99 357 99 357 95 345 c 128,-1,42
 91 333 91 333 91 318 c 256,43,44
 91 303 91 303 96 290 c 128,-1,45
 101 277 101 277 113 266 c 2,46,-1
 266 123 l 1,47,-1
 419 266 l 2,22,23
EndSplineSet
EndChar

StartChar: star
Encoding: 9733 9733 25
Width: 540
Flags: W
LayerCount: 2
Fore
SplineSet
270 470 m 1,0,-1
 330 302 l 1,1,-1
 490 302 l 1,2,-1
 359 204 l 1,3,-1
 406 30 l 1,4,-1
 270 134 l 1,5,-1
 134 30 l 1,6,-1
 181 204 l 1,7,-1
 50 302 l 1,8,-1
 210 302 l 1,9,-1
 270 470 l 1,10,-1
 270 470 l 1,0,-1
EndSplineSet
EndChar

StartChar: star-empty
Encoding: 9734 9734 26
Width: 540
Flags: W
LayerCount: 2
Fore
SplineSet
490 302 m 1,0,-1
 359 204 l 1,1,-1
 406 30 l 1,2,-1
 270 134 l 1,3,-1
 134 30 l 1,4,-1
 181 204 l 1,5,-1
 50 302 l 1,6,-1
 210 302 l 1,7,-1
 270 470 l 1,8,-1
 330 302 l 1,9,-1
 490 302 l 1,0,-1
270 183 m 1,10,-1
 345 121 l 1,11,-1
 314 210 l 1,12,-1
 386 267 l 1,13,-1
 298 265 l 1,14,-1
 270 366 l 1,15,-1
 243 265 l 1,16,-1
 155 267 l 1,17,-1
 226 210 l 1,18,-1
 195 121 l 1,19,-1
 270 183 l 1,10,-1
EndSplineSet
EndChar

StartChar: thumbs-up
Encoding: 128077 128077 27
Width: 500
Flags: W
LayerCount: 2
Fore
SplineSet
341 315 m 256,0,1
 342 312 342 312 359.5 310 c 128,-1,2
 377 308 377 308 397 304 c 128,-1,3
 417 300 417 300 433.5 293 c 128,-1,4
 450 286 450 286 450 273 c 0,5,6
 450 264 450 264 446 242.5 c 128,-1,7
 442 221 442 221 436 193.5 c 128,-1,8
 430 166 430 166 421.5 136 c 128,-1,9
 413 106 413 106 403.5 81.5 c 128,-1,10
 394 57 394 57 384.5 41 c 128,-1,11
 375 25 375 25 366 25 c 0,12,13
 331 25 331 25 293 30.5 c 128,-1,14
 255 36 255 36 223 45.5 c 128,-1,15
 191 55 191 55 170.5 66.5 c 128,-1,16
 150 78 150 78 150 90 c 2,17,-1
 150 261 l 2,18,19
 150 271 150 271 162.5 284 c 128,-1,20
 175 297 175 297 193 310.5 c 128,-1,21
 211 324 211 324 230 336.5 c 128,-1,22
 249 349 249 349 261 358 c 0,23,24
 283 373 283 373 302.5 395 c 128,-1,25
 322 417 322 417 336.5 436 c 128,-1,26
 351 455 351 455 361 467 c 128,-1,27
 371 479 371 479 376 473 c 0,28,29
 396 448 396 448 393 421.5 c 128,-1,30
 390 395 390 395 378 372.5 c 128,-1,31
 366 350 366 350 353 334 c 128,-1,32
 340 318 340 318 341 315 c 256,0,1
125 313 m 256,33,34
 131 313 131 313 128 310 c 128,-1,35
 125 307 125 307 119 300 c 128,-1,36
 113 293 113 293 106.5 281.5 c 128,-1,37
 100 270 100 270 100 254 c 2,38,-1
 100 95 l 2,39,40
 100 79 100 79 106.5 68 c 128,-1,41
 113 57 113 57 119 50.5 c 128,-1,42
 125 44 125 44 128 41 c 128,-1,43
 131 38 131 38 125 38 c 256,44,45
 119 38 119 38 106.5 40.5 c 128,-1,46
 94 43 94 43 81.5 50.5 c 128,-1,47
 69 58 69 58 59.5 73 c 128,-1,48
 50 88 50 88 50 114 c 2,49,-1
 50 235 l 2,50,51
 50 260 50 260 59.5 275.5 c 128,-1,52
 69 291 69 291 81.5 299.5 c 128,-1,53
 94 308 94 308 106.5 310.5 c 128,-1,54
 119 313 119 313 125 313 c 256,33,34
EndSplineSet
EndChar

StartChar: thumbs-down
Encoding: 128078 128078 28
Width: 500
Flags: W
LayerCount: 2
Fore
SplineSet
159 184 m 256,0,1
 158 187 158 187 141 189 c 128,-1,2
 124 191 124 191 103.5 195 c 128,-1,3
 83 199 83 199 66.5 206 c 128,-1,4
 50 213 50 213 50 226 c 0,5,6
 50 234 50 234 54 256 c 128,-1,7
 58 278 58 278 64.5 305.5 c 128,-1,8
 71 333 71 333 79.5 363 c 128,-1,9
 88 393 88 393 97 418 c 128,-1,10
 106 443 106 443 115.5 459 c 128,-1,11
 125 475 125 475 134 475 c 0,12,13
 169 475 169 475 207 469 c 128,-1,14
 245 463 245 463 277 454 c 128,-1,15
 309 445 309 445 329.5 433 c 128,-1,16
 350 421 350 421 350 409 c 2,17,-1
 350 238 l 2,18,19
 350 228 350 228 337.5 215 c 128,-1,20
 325 202 325 202 307.5 188.5 c 128,-1,21
 290 175 290 175 271 162.5 c 128,-1,22
 252 150 252 150 239 141 c 0,23,24
 216 126 216 126 197.5 104 c 128,-1,25
 179 82 179 82 164 63 c 128,-1,26
 149 44 149 44 139 32 c 128,-1,27
 129 20 129 20 124 26 c 0,28,29
 104 51 104 51 107 77.5 c 128,-1,30
 110 104 110 104 122 126.5 c 128,-1,31
 134 149 134 149 147 165 c 128,-1,32
 160 181 160 181 159 184 c 256,0,1
375 186 m 256,33,34
 369 186 369 186 372 189 c 128,-1,35
 375 192 375 192 381.5 199 c 128,-1,36
 388 206 388 206 394 217 c 128,-1,37
 400 228 400 228 400 245 c 2,38,-1
 400 404 l 2,39,40
 400 420 400 420 394 430.5 c 128,-1,41
 388 441 388 441 381.5 448 c 128,-1,42
 375 455 375 455 372 458 c 128,-1,43
 369 461 369 461 375 461 c 256,44,45
 381 461 381 461 393.5 458.5 c 128,-1,46
 406 456 406 456 418.5 448.5 c 128,-1,47
 431 441 431 441 440.5 425.5 c 128,-1,48
 450 410 450 410 450 385 c 2,49,-1
 450 264 l 2,50,51
 450 238 450 238 440.5 223 c 128,-1,52
 431 208 431 208 418.5 199.5 c 128,-1,53
 406 191 406 191 393.5 188.5 c 128,-1,54
 381 186 381 186 375 186 c 256,33,34
EndSplineSet
EndChar

StartChar: chat
Encoding: 59168 59168 29
Width: 600
Flags: W
LayerCount: 2
Fore
SplineSet
370 195 m 2,0,1
 372 195 372 195 373 195.5 c 128,-1,2
 374 196 374 196 375 196 c 1,3,-1
 375 150 l 2,4,5
 375 130 375 130 360.5 115 c 128,-1,6
 346 100 346 100 325 100 c 2,7,-1
 200 100 l 1,8,-1
 125 25 l 1,9,-1
 125 100 l 1,10,-1
 100 100 l 2,11,12
 80 100 80 100 65 115 c 128,-1,13
 50 130 50 130 50 150 c 2,14,-1
 50 300 l 2,15,16
 50 321 50 321 65 335.5 c 128,-1,17
 80 350 80 350 100 350 c 2,18,-1
 195 350 l 1,19,-1
 195 195 l 1,20,-1
 370 195 l 2,0,1
500 475 m 2,21,22
 521 475 521 475 535.5 460.5 c 128,-1,23
 550 446 550 446 550 425 c 2,24,-1
 550 275 l 2,25,26
 550 255 550 255 535.5 240 c 128,-1,27
 521 225 521 225 500 225 c 2,28,-1
 475 225 l 1,29,-1
 475 150 l 1,30,-1
 400 225 l 1,31,-1
 225 225 l 1,32,-1
 225 425 l 2,33,34
 225 446 225 446 240 460.5 c 128,-1,35
 255 475 255 475 275 475 c 2,36,-1
 500 475 l 2,21,22
EndSplineSet
EndChar

StartChar: comment
Encoding: 59160 59160 30
Width: 500
Flags: W
LayerCount: 2
Fore
SplineSet
400 425 m 1,0,1
 421 425 421 425 435.5 410.5 c 128,-1,2
 450 396 450 396 450 375 c 2,3,-1
 450 200 l 2,4,5
 450 180 450 180 435.5 165 c 128,-1,6
 421 150 421 150 400 150 c 2,7,-1
 300 150 l 1,8,-1
 300 75 l 1,9,-1
 200 150 l 1,10,-1
 100 150 l 2,11,12
 80 150 80 150 65 165 c 128,-1,13
 50 180 50 180 50 200 c 2,14,-1
 50 375 l 2,15,16
 50 396 50 396 65 410.5 c 128,-1,17
 80 425 80 425 100 425 c 2,18,-1
 400 425 l 1,19,-1
 400 425 l 1,0,1
EndSplineSet
EndChar

StartChar: quote
Encoding: 10078 10078 31
Width: 481
Flags: W
LayerCount: 2
Fore
SplineSet
123 415 m 0,0,1
 165 415 165 415 188 390.5 c 128,-1,2
 211 366 211 366 217.5 329.5 c 128,-1,3
 224 293 224 293 215 250 c 128,-1,4
 206 207 206 207 184 170.5 c 128,-1,5
 162 134 162 134 127.5 109.5 c 128,-1,6
 93 85 93 85 50 85 c 1,7,-1
 50 120 l 1,8,9
 86 120 86 120 112.5 142.5 c 128,-1,10
 139 165 139 165 150.5 192.5 c 128,-1,11
 162 220 162 220 156 242.5 c 128,-1,12
 150 265 150 265 123 265 c 0,13,14
 93 265 93 265 71.5 287 c 128,-1,15
 50 309 50 309 50 340 c 0,16,17
 50 372 50 372 71.5 393.5 c 128,-1,18
 93 415 93 415 123 415 c 0,0,1
333 415 m 0,19,20
 375 415 375 415 398 390.5 c 128,-1,21
 421 366 421 366 427.5 329.5 c 128,-1,22
 434 293 434 293 425 250 c 128,-1,23
 416 207 416 207 394 170.5 c 128,-1,24
 372 134 372 134 337.5 109.5 c 128,-1,25
 303 85 303 85 260 85 c 1,26,-1
 260 120 l 1,27,28
 296 120 296 120 322.5 142.5 c 128,-1,29
 349 165 349 165 360.5 192.5 c 128,-1,30
 372 220 372 220 366 242.5 c 128,-1,31
 360 265 360 265 333 265 c 0,32,33
 303 265 303 265 281.5 287 c 128,-1,34
 260 309 260 309 260 340 c 0,35,36
 260 372 260 372 281.5 393.5 c 128,-1,37
 303 415 303 415 333 415 c 0,19,20
EndSplineSet
EndChar

StartChar: home
Encoding: 8962 8962 32
Width: 551
Flags: W
LayerCount: 2
Fore
SplineSet
494 243 m 1,0,1
 502 235 502 235 499.5 229.5 c 128,-1,2
 497 224 497 224 486 224 c 2,3,-1
 444 224 l 1,4,-1
 444 69 l 2,5,6
 444 61 444 61 442 55 c 128,-1,7
 440 49 440 49 428 49 c 2,8,-1
 326 49 l 1,9,-1
 326 204 l 1,10,-1
 224 204 l 1,11,-1
 224 49 l 1,12,-1
 127 49 l 2,13,14
 112 49 112 49 109 55 c 128,-1,15
 106 61 106 61 106 69 c 2,16,-1
 106 224 l 1,17,-1
 64 224 l 2,18,19
 53 224 53 224 50.5 229.5 c 128,-1,20
 48 235 48 235 56 243 c 2,21,-1
 256 444 l 2,22,23
 264 452 264 452 275 452 c 128,-1,24
 286 452 286 452 294 444 c 2,25,-1
 494 243 l 1,26,-1
 494 243 l 1,0,1
EndSplineSet
EndChar

StartChar: popup
Encoding: 59212 59212 33
Width: 500
Flags: W
LayerCount: 2
Fore
SplineSet
400 450 m 2,0,1
 421 450 421 450 435.5 435.5 c 128,-1,2
 450 421 450 421 450 400 c 2,3,-1
 450 200 l 2,4,5
 450 180 450 180 435.5 165 c 128,-1,6
 421 150 421 150 400 150 c 2,7,-1
 200 150 l 2,8,9
 180 150 180 150 165 165 c 128,-1,10
 150 180 150 180 150 200 c 2,11,-1
 150 401 l 2,12,13
 150 421 150 421 164.5 435.5 c 128,-1,14
 179 450 179 450 200 450 c 2,15,-1
 400 450 l 2,0,1
400 400 m 1,16,-1
 200 400 l 1,17,-1
 200 200 l 1,18,-1
 400 200 l 1,19,-1
 400 400 l 1,16,-1
100 100 m 1,20,-1
 250 100 l 1,21,-1
 250 50 l 1,22,-1
 100 50 l 2,23,24
 80 50 80 50 65 65 c 128,-1,25
 50 80 50 80 50 100 c 2,26,-1
 50 250 l 1,27,-1
 100 250 l 1,28,-1
 100 100 l 1,20,-1
EndSplineSet
EndChar

StartChar: search
Encoding: 128269 128269 34
Width: 495
Flags: W
LayerCount: 2
Fore
SplineSet
436 114 m 1,0,1
 451 97 451 97 439 83 c 1,2,-1
 416 60 l 2,3,4
 408 53 408 53 398.5 53 c 128,-1,5
 389 53 389 53 382 60 c 2,6,-1
 287 155 l 1,7,8
 270 145 270 145 250 139.5 c 128,-1,9
 230 134 230 134 209 134 c 0,10,11
 177 134 177 134 148 147 c 128,-1,12
 119 160 119 160 97.5 181.5 c 128,-1,13
 76 203 76 203 63 232 c 128,-1,14
 50 261 50 261 50 293 c 256,15,16
 50 325 50 325 62 353.5 c 128,-1,17
 74 382 74 382 95 403 c 128,-1,18
 116 424 116 424 144 436 c 128,-1,19
 172 448 172 448 204 448 c 256,20,21
 236 448 236 448 265 435 c 128,-1,22
 294 422 294 422 316 400.5 c 128,-1,23
 338 379 338 379 351 350 c 128,-1,24
 364 321 364 321 364 289 c 0,25,26
 364 245 364 245 341 208 c 1,27,-1
 436 114 l 1,0,1
97 293 m 256,28,29
 97 271 97 271 106 250.5 c 128,-1,30
 115 230 115 230 130.5 214.5 c 128,-1,31
 146 199 146 199 166.5 190 c 128,-1,32
 187 181 187 181 209 181 c 256,33,34
 231 181 231 181 250.5 189.5 c 128,-1,35
 270 198 270 198 284.5 212.5 c 128,-1,36
 299 227 299 227 307.5 246.5 c 128,-1,37
 316 266 316 266 316 289 c 0,38,39
 316 311 316 311 307 331 c 128,-1,40
 298 351 298 351 282.5 366.5 c 128,-1,41
 267 382 267 382 246.5 391 c 128,-1,42
 226 400 226 400 204 400 c 256,43,44
 182 400 182 400 162.5 391.5 c 128,-1,45
 143 383 143 383 128.5 368.5 c 128,-1,46
 114 354 114 354 105.5 334.5 c 128,-1,47
 97 315 97 315 97 293 c 256,28,29
EndSplineSet
EndChar

StartChar: flashlight
Encoding: 128294 128294 35
Width: 551
Flags: W
LayerCount: 2
Fore
SplineSet
454 428 m 1,0,1
 485 396 485 396 496 363 c 128,-1,2
 507 330 507 330 494 317 c 2,3,-1
 427 250 l 2,4,5
 419 242 419 242 396.5 237 c 128,-1,6
 374 232 374 232 348 235 c 1,7,-1
 144 31 l 2,8,9
 135 22 135 22 115.5 28 c 128,-1,10
 96 34 96 34 78 53 c 0,11,12
 60 71 60 71 53.5 90 c 128,-1,13
 47 109 47 109 56 118 c 2,14,-1
 260 322 l 1,15,16
 257 348 257 348 262 370.5 c 128,-1,17
 267 393 267 393 275 401 c 2,18,-1
 343 469 l 2,19,20
 356 482 356 482 389 470.5 c 128,-1,21
 422 459 422 459 454 428 c 1,0,1
230 224 m 0,22,23
 237 217 237 217 248.5 219 c 128,-1,24
 260 221 260 221 270 231 c 256,25,26
 280 241 280 241 282 252.5 c 128,-1,27
 284 264 284 264 277 272 c 0,28,29
 270 279 270 279 258 277 c 128,-1,30
 246 275 246 275 236 265 c 256,31,32
 226 255 226 255 224 243.5 c 128,-1,33
 222 232 222 232 230 224 c 0,22,23
398 373 m 256,34,35
 410 361 410 361 423.5 353 c 128,-1,36
 437 345 437 345 448.5 340.5 c 128,-1,37
 460 336 460 336 468 335 c 128,-1,38
 476 334 476 334 477 335 c 256,39,40
 478 336 478 336 476.5 343.5 c 128,-1,41
 475 351 475 351 470.5 362 c 128,-1,42
 466 373 466 373 457.5 386.5 c 128,-1,43
 449 400 449 400 437 412 c 256,44,45
 425 424 425 424 412 432 c 128,-1,46
 399 440 399 440 388 444.5 c 128,-1,47
 377 449 377 449 369.5 450.5 c 128,-1,48
 362 452 362 452 361 451 c 256,49,50
 360 450 360 450 361 442 c 128,-1,51
 362 434 362 434 366.5 423 c 128,-1,52
 371 412 371 412 378.5 398.5 c 128,-1,53
 386 385 386 385 398 373 c 256,34,35
EndSplineSet
EndChar

StartChar: print
Encoding: 59158 59158 36
Width: 590
Flags: W
LayerCount: 2
Fore
SplineSet
83 338 m 2,0,1
 72 338 72 338 72.5 346 c 128,-1,2
 73 354 73 354 78 356 c 0,3,4
 81 357 81 357 95 362 c 128,-1,5
 109 367 109 367 125.5 373 c 128,-1,6
 142 379 142 379 157.5 383.5 c 128,-1,7
 173 388 173 388 178 388 c 2,8,-1
 200 388 l 1,9,-1
 200 463 l 1,10,-1
 390 463 l 1,11,-1
 390 388 l 1,12,-1
 413 388 l 2,13,14
 418 388 418 388 433 383.5 c 128,-1,15
 448 379 448 379 464.5 373 c 128,-1,16
 481 367 481 367 495 362 c 128,-1,17
 509 357 509 357 512 356 c 0,18,19
 518 354 518 354 518.5 346 c 128,-1,20
 519 338 519 338 508 338 c 2,21,-1
 83 338 l 2,0,1
513 310 m 2,22,23
 523 310 523 310 531.5 300.5 c 128,-1,24
 540 291 540 291 540 280 c 2,25,-1
 540 193 l 2,26,27
 540 182 540 182 531.5 172.5 c 128,-1,28
 523 163 523 163 513 163 c 2,29,-1
 463 163 l 1,30,-1
 485 38 l 1,31,-1
 105 38 l 1,32,-1
 127 163 l 1,33,-1
 78 163 l 2,34,35
 67 163 67 163 58.5 172.5 c 128,-1,36
 50 182 50 182 50 193 c 2,37,-1
 50 280 l 2,38,39
 50 291 50 291 58.5 300.5 c 128,-1,40
 67 310 67 310 78 310 c 2,41,-1
 513 310 l 2,22,23
435 88 m 1,42,-1
 400 250 l 1,43,-1
 190 250 l 1,44,-1
 155 88 l 1,45,-1
 435 88 l 1,42,-1
EndSplineSet
EndChar

StartChar: bell
Encoding: 128276 128276 37
Width: 500
Flags: W
LayerCount: 2
Fore
SplineSet
366 288 m 0,0,1
 375 268 375 268 386.5 261.5 c 128,-1,2
 398 255 398 255 409 250.5 c 128,-1,3
 420 246 420 246 430.5 239 c 128,-1,4
 441 232 441 232 448 212 c 0,5,6
 453 197 453 197 443.5 176 c 128,-1,7
 434 155 434 155 412.5 132.5 c 128,-1,8
 391 110 391 110 358.5 89 c 128,-1,9
 326 68 326 68 285 53 c 256,10,11
 244 38 244 38 205.5 32.5 c 128,-1,12
 167 27 167 27 136.5 30 c 128,-1,13
 106 33 106 33 85 43 c 128,-1,14
 64 53 64 53 59 68 c 0,15,16
 52 88 52 88 55.5 100 c 128,-1,17
 59 112 59 112 65 122.5 c 128,-1,18
 71 133 71 133 75.5 145.5 c 128,-1,19
 80 158 80 158 74 179 c 0,20,21
 62 228 62 228 55 264.5 c 128,-1,22
 48 301 48 301 50.5 329.5 c 128,-1,23
 53 358 53 358 66.5 380.5 c 128,-1,24
 80 403 80 403 107 425 c 0,25,26
 117 433 117 433 119 440 c 128,-1,27
 121 447 121 447 122 452 c 128,-1,28
 123 457 123 457 125 461.5 c 128,-1,29
 127 466 127 466 136 470 c 0,30,31
 145 473 145 473 149.5 471 c 128,-1,32
 154 469 154 469 158 465.5 c 128,-1,33
 162 462 162 462 168 458.5 c 128,-1,34
 174 455 174 455 187 455 c 0,35,36
 222 456 222 456 246 447 c 128,-1,37
 270 438 270 438 289.5 418 c 128,-1,38
 309 398 309 398 327 366 c 128,-1,39
 345 334 345 334 366 288 c 0,0,1
273 86 m 0,40,41
 309 99 309 99 336.5 117 c 128,-1,42
 364 135 364 135 382 152 c 128,-1,43
 400 169 400 169 408 182 c 128,-1,44
 416 195 416 195 415 199 c 0,45,46
 412 206 412 206 399.5 211.5 c 128,-1,47
 387 217 387 217 364 218 c 128,-1,48
 341 219 341 219 309 213 c 128,-1,49
 277 207 277 207 235 192 c 256,50,51
 193 177 193 177 165 159.5 c 128,-1,52
 137 142 137 142 120 126.5 c 128,-1,53
 103 111 103 111 97 98.5 c 128,-1,54
 91 86 91 86 93 80 c 0,55,56
 94 77 94 77 108.5 72.5 c 128,-1,57
 123 68 123 68 147.5 66.5 c 128,-1,58
 172 65 172 65 204.5 68.5 c 128,-1,59
 237 72 237 72 273 86 c 0,40,41
242 173 m 0,60,61
 247 175 247 175 251.5 176.5 c 128,-1,62
 256 178 256 178 261 180 c 1,63,64
 261 179 261 179 262 179 c 0,65,66
 269 159 269 159 253.5 138 c 128,-1,67
 238 117 238 117 209 106 c 0,68,69
 186 98 186 98 165.5 100 c 128,-1,70
 145 102 145 102 133 113 c 1,71,72
 150 128 150 128 177 143.5 c 128,-1,73
 204 159 204 159 242 173 c 0,60,61
EndSplineSet
EndChar

StartChar: link
Encoding: 128279 128279 38
Width: 500
Flags: W
LayerCount: 2
Fore
SplineSet
197 133 m 2,0,1
 204 141 204 141 214 141 c 128,-1,2
 224 141 224 141 232 133 c 0,3,4
 239 125 239 125 239 115.5 c 128,-1,5
 239 106 239 106 232 98 c 2,6,-1
 211 78 l 2,7,8
 183 50 183 50 145 50 c 0,9,10
 106 50 106 50 78 78 c 256,11,12
 50 106 50 106 50 144 c 0,13,14
 50 183 50 183 78 211 c 2,15,-1
 152 285 l 2,16,17
 187 320 187 320 224 324 c 128,-1,18
 261 328 261 328 288 302 c 0,19,20
 296 294 296 294 296 284 c 128,-1,21
 296 274 296 274 288 266 c 0,22,23
 280 259 280 259 270.5 259 c 128,-1,24
 261 259 261 259 253 266 c 0,25,26
 245 274 245 274 236 274.5 c 128,-1,27
 227 275 227 275 218 271.5 c 128,-1,28
 209 268 209 268 201 261.5 c 128,-1,29
 193 255 193 255 187 249 c 2,30,-1
 113 176 l 2,31,32
 100 163 100 163 100 144 c 256,33,34
 100 125 100 125 113 113 c 0,35,36
 126 100 126 100 144.5 100 c 128,-1,37
 163 100 163 100 176 113 c 2,38,-1
 197 133 l 2,0,1
422 420 m 0,39,40
 450 392 450 392 450 354 c 0,41,42
 450 315 450 315 422 287 c 2,43,-1
 343 208 l 1,44,45
 305 172 305 172 268 172 c 0,46,47
 237 172 237 172 212 197 c 0,48,49
 205 204 205 204 205 214 c 128,-1,50
 205 224 205 224 212 232 c 1,51,52
 220 239 220 239 230 239 c 128,-1,53
 240 239 240 239 247 232 c 0,54,55
 250 229 250 229 255 225.5 c 128,-1,56
 260 222 260 222 267 221.5 c 128,-1,57
 274 221 274 221 284 225.5 c 128,-1,58
 294 230 294 230 308 244 c 2,59,-1
 387 322 l 2,60,61
 401 336 401 336 401 354 c 0,62,63
 401 373 401 373 387 385 c 1,64,65
 376 397 376 397 359.5 400.5 c 128,-1,66
 343 404 343 404 329 390 c 2,67,-1
 304 365 l 2,68,69
 296 357 296 357 286 357 c 128,-1,70
 276 357 276 357 269 365 c 0,71,72
 261 373 261 373 261 382.5 c 128,-1,73
 261 392 261 392 269 400 c 2,74,-1
 294 425 l 2,75,76
 321 452 321 452 357 450.5 c 128,-1,77
 393 449 393 449 422 420 c 0,39,40
EndSplineSet
EndChar

StartChar: flag
Encoding: 9873 9873 39
Width: 551
Flags: W
LayerCount: 2
Fore
SplineSet
487 383 m 0,0,1
 494 386 494 386 498.5 382.5 c 128,-1,2
 503 379 503 379 498 373 c 0,3,4
 454 309 454 309 424 275.5 c 128,-1,5
 394 242 394 242 372.5 228.5 c 128,-1,6
 351 215 351 215 336.5 217.5 c 128,-1,7
 322 220 322 220 309.5 228.5 c 128,-1,8
 297 237 297 237 284 247.5 c 128,-1,9
 271 258 271 258 253 261 c 128,-1,10
 235 264 235 264 209.5 254.5 c 128,-1,11
 184 245 184 245 147 214 c 1,12,-1
 192 38 l 1,13,-1
 142 38 l 1,14,-1
 50 398 l 1,15,-1
 96 415 l 1,16,17
 138 445 138 445 165 455.5 c 128,-1,18
 192 466 192 466 210.5 462.5 c 128,-1,19
 229 459 229 459 242 446 c 128,-1,20
 255 433 255 433 268 417 c 128,-1,21
 281 401 281 401 296.5 385.5 c 128,-1,22
 312 370 312 370 336.5 362.5 c 128,-1,23
 361 355 361 355 397.5 358.5 c 128,-1,24
 434 362 434 362 487 383 c 0,0,1
EndSplineSet
EndChar

StartChar: cog
Encoding: 9881 9881 40
Width: 520
Flags: W
LayerCount: 2
Fore
SplineSet
430 250 m 256,0,1
 430 230 430 230 441 215 c 128,-1,2
 452 200 452 200 470 189 c 1,3,4
 464 169 464 169 453 148 c 1,5,6
 433 153 433 153 416 146.5 c 128,-1,7
 399 140 399 140 385 126 c 0,8,9
 358 97 358 97 368 58 c 1,10,11
 348 47 348 47 326 40 c 1,12,13
 315 59 315 59 297.5 70 c 128,-1,14
 280 81 280 81 260 81 c 256,15,16
 240 81 240 81 222.5 70 c 128,-1,17
 205 59 205 59 194 40 c 1,18,19
 171 47 171 47 152 58 c 1,20,21
 162 98 162 98 135 126 c 0,22,23
 108 153 108 153 67 143 c 1,24,25
 62 153 62 153 58 163 c 128,-1,26
 54 173 54 173 50 184 c 1,27,28
 68 195 68 195 79.5 212.5 c 128,-1,29
 91 230 91 230 91 250 c 256,30,31
 91 270 91 270 79.5 285.5 c 128,-1,32
 68 301 68 301 50 312 c 1,33,34
 54 323 54 323 58 333 c 128,-1,35
 62 343 62 343 67 353 c 1,36,37
 88 348 88 348 104.5 354.5 c 128,-1,38
 121 361 121 361 135 375 c 0,39,40
 162 402 162 402 152 443 c 1,41,42
 173 454 173 454 194 460 c 1,43,44
 205 442 205 442 222.5 431 c 128,-1,45
 240 420 240 420 260 420 c 256,46,47
 280 420 280 420 297.5 431 c 128,-1,48
 315 442 315 442 326 460 c 1,49,50
 347 454 347 454 368 443 c 1,51,52
 358 404 358 404 385 375 c 0,53,54
 399 361 399 361 416 354.5 c 128,-1,55
 433 348 433 348 453 353 c 1,56,57
 464 332 464 332 470 312 c 1,58,59
 452 301 452 301 441 285.5 c 128,-1,60
 430 270 430 270 430 250 c 256,0,1
260 159 m 0,61,62
 279 159 279 159 295.5 166 c 128,-1,63
 312 173 312 173 324.5 185.5 c 128,-1,64
 337 198 337 198 344 214.5 c 128,-1,65
 351 231 351 231 351 250 c 256,66,67
 351 269 351 269 344 286 c 128,-1,68
 337 303 337 303 324.5 315.5 c 128,-1,69
 312 328 312 328 295.5 335 c 128,-1,70
 279 342 279 342 260 342 c 256,71,72
 241 342 241 342 224.5 335 c 128,-1,73
 208 328 208 328 195.5 315.5 c 128,-1,74
 183 303 183 303 176 286 c 128,-1,75
 169 269 169 269 169 250 c 0,76,77
 169 212 169 212 195.5 185.5 c 128,-1,78
 222 159 222 159 260 159 c 0,61,62
EndSplineSet
EndChar

StartChar: tools
Encoding: 9874 9874 41
Width: 599
Flags: W
LayerCount: 2
Fore
SplineSet
127 328 m 0,0,1
 119 322 119 322 120 311 c 128,-1,2
 121 300 121 300 119 299 c 0,3,4
 117 297 117 297 110.5 291.5 c 128,-1,5
 104 286 104 286 101 283 c 0,6,7
 97 280 97 280 93 281.5 c 128,-1,8
 89 283 89 283 87 285 c 0,9,10
 85 286 85 286 79.5 292 c 128,-1,11
 74 298 74 298 68 305 c 2,12,-1
 52 323 l 2,13,14
 47 329 47 329 53 335 c 0,15,16
 55 337 55 337 62 342 c 128,-1,17
 69 347 69 347 72 350 c 0,18,19
 78 355 78 355 85.5 353 c 128,-1,20
 93 351 93 351 104 360 c 0,21,22
 114 369 114 369 113.5 379 c 128,-1,23
 113 389 113 389 118 394 c 0,24,25
 120 395 120 395 128 402.5 c 128,-1,26
 136 410 136 410 156 424 c 0,27,28
 164 429 164 429 175 436.5 c 128,-1,29
 186 444 186 444 198.5 451.5 c 128,-1,30
 211 459 211 459 224 464.5 c 128,-1,31
 237 470 237 470 249 472 c 0,32,33
 252 472 252 472 262 472 c 128,-1,34
 272 472 272 472 284 472 c 128,-1,35
 296 472 296 472 307 471.5 c 128,-1,36
 318 471 318 471 323 471 c 0,37,38
 330 471 330 471 322 468 c 128,-1,39
 314 465 314 465 299.5 458.5 c 128,-1,40
 285 452 285 452 267 443.5 c 128,-1,41
 249 435 249 435 236 424 c 128,-1,42
 223 413 223 413 218.5 400 c 128,-1,43
 214 387 214 387 225 372 c 0,44,45
 230 365 230 365 236 357.5 c 128,-1,46
 242 350 242 350 244 348 c 0,47,48
 248 344 248 344 243 341 c 0,49,50
 242 340 242 340 236.5 335 c 128,-1,51
 231 330 231 330 224 323.5 c 128,-1,52
 217 317 217 317 211.5 312 c 128,-1,53
 206 307 206 307 205 306 c 0,54,55
 203 305 203 305 200.5 303.5 c 128,-1,56
 198 302 198 302 196 304 c 0,57,58
 176 327 176 327 160.5 334.5 c 128,-1,59
 145 342 145 342 127 328 c 0,0,1
475 77 m 2,60,61
 484 66 484 66 474 58 c 2,62,-1
 450 37 l 1,63,64
 439 30 439 30 431 39 c 2,65,-1
 224 275 l 2,66,67
 220 279 220 279 224 285 c 1,68,-1
 260 316 l 2,69,70
 266 320 266 320 270 315 c 2,71,-1
 475 77 l 2,60,61
547 416 m 0,72,73
 548 411 548 411 548.5 400.5 c 128,-1,74
 549 390 549 390 548.5 378 c 128,-1,75
 548 366 548 366 545.5 354 c 128,-1,76
 543 342 543 342 539 333 c 1,77,78
 528 314 528 314 510.5 304 c 128,-1,79
 493 294 493 294 462 302 c 0,80,81
 448 305 448 305 434 299.5 c 128,-1,82
 420 294 420 294 412 286 c 2,83,-1
 371 247 l 1,84,-1
 337 286 l 1,85,-1
 371 321 l 2,86,87
 381 331 381 331 384.5 342 c 128,-1,88
 388 353 388 353 388.5 363.5 c 128,-1,89
 389 374 389 374 389 385.5 c 128,-1,90
 389 397 389 397 392 409 c 256,91,92
 395 421 395 421 405 430.5 c 128,-1,93
 415 440 415 440 426.5 447 c 128,-1,94
 438 454 438 454 448.5 458.5 c 128,-1,95
 459 463 459 463 462 465 c 0,96,97
 469 468 469 468 471.5 463 c 128,-1,98
 474 458 474 458 472 456 c 0,99,100
 471 455 471 455 468 450 c 128,-1,101
 465 445 465 445 461.5 438.5 c 128,-1,102
 458 432 458 432 454.5 426 c 128,-1,103
 451 420 451 420 449 416 c 0,104,105
 447 413 447 413 445 408.5 c 128,-1,106
 443 404 443 404 443.5 398.5 c 128,-1,107
 444 393 444 393 448 386.5 c 128,-1,108
 452 380 452 380 463 372 c 0,109,110
 473 365 473 365 481 364.5 c 128,-1,111
 489 364 489 364 495 367 c 128,-1,112
 501 370 501 370 505 374.5 c 128,-1,113
 509 379 509 379 511 383 c 0,114,115
 516 391 516 391 524.5 403.5 c 128,-1,116
 533 416 533 416 535 420 c 256,117,118
 537 424 537 424 541 424.5 c 128,-1,119
 545 425 545 425 547 416 c 0,72,73
245 198 m 1,120,-1
 283 155 l 1,121,-1
 160 34 l 2,122,123
 156 30 156 30 151 29 c 128,-1,124
 146 28 146 28 141 32 c 2,125,-1
 118 55 l 2,126,127
 113 59 113 59 113 64.5 c 128,-1,128
 113 70 113 70 118 74 c 2,129,-1
 245 198 l 1,120,-1
EndSplineSet
EndChar

StartChar: trophy
Encoding: 127942 127942 42
Width: 550
Flags: W
LayerCount: 2
Fore
SplineSet
305 109 m 1,0,1
 340 105 340 105 363 93 c 128,-1,2
 386 81 386 81 386 65 c 0,3,4
 386 47 386 47 354 33.5 c 128,-1,5
 322 20 322 20 275 20 c 0,6,7
 229 20 229 20 196.5 33.5 c 128,-1,8
 164 47 164 47 164 65 c 0,9,10
 164 81 164 81 187.5 93 c 128,-1,11
 211 105 211 105 246 109 c 1,12,-1
 246 142 l 2,13,14
 246 169 246 169 226.5 187 c 128,-1,15
 207 205 207 205 173 228 c 0,16,17
 152 241 152 241 130.5 257.5 c 128,-1,18
 109 274 109 274 91 295.5 c 128,-1,19
 73 317 73 317 61.5 346.5 c 128,-1,20
 50 376 50 376 50 417 c 0,21,22
 50 424 50 424 55 429 c 128,-1,23
 60 434 60 434 68 434 c 2,24,-1
 154 434 l 1,25,26
 163 451 163 451 191.5 465.5 c 128,-1,27
 220 480 220 480 275 480 c 256,28,29
 330 480 330 480 359 465.5 c 128,-1,30
 388 451 388 451 397 434 c 1,31,-1
 482 434 l 2,32,33
 490 434 490 434 495 429 c 128,-1,34
 500 424 500 424 500 417 c 0,35,36
 500 376 500 376 488.5 346.5 c 128,-1,37
 477 317 477 317 459 295.5 c 128,-1,38
 441 274 441 274 419.5 257.5 c 128,-1,39
 398 241 398 241 377 228 c 0,40,41
 343 205 343 205 324 187 c 128,-1,42
 305 169 305 169 305 142 c 2,43,-1
 305 109 l 1,0,1
374 268 m 1,44,45
 390 279 390 279 405.5 291.5 c 128,-1,46
 421 304 421 304 433 319.5 c 128,-1,47
 445 335 445 335 453.5 354.5 c 128,-1,48
 462 374 462 374 464 399 c 1,49,-1
 401 399 l 1,50,51
 399 354 399 354 392 322.5 c 128,-1,52
 385 291 385 291 374 268 c 1,44,45
275 450 m 0,53,54
 249 450 249 450 231 445.5 c 128,-1,55
 213 441 213 441 202 435 c 128,-1,56
 191 429 191 429 185.5 422.5 c 128,-1,57
 180 416 180 416 180 412 c 256,58,59
 180 408 180 408 185.5 401.5 c 128,-1,60
 191 395 191 395 202 388.5 c 128,-1,61
 213 382 213 382 231 377.5 c 128,-1,62
 249 373 249 373 275 373 c 0,63,64
 300 373 300 373 318.5 377.5 c 128,-1,65
 337 382 337 382 348 388.5 c 128,-1,66
 359 395 359 395 364.5 401.5 c 128,-1,67
 370 408 370 408 370 412 c 256,68,69
 370 416 370 416 364.5 422.5 c 128,-1,70
 359 429 359 429 348 435 c 128,-1,71
 337 441 337 441 318.5 445.5 c 128,-1,72
 300 450 300 450 275 450 c 0,53,54
86 399 m 1,73,74
 88 374 88 374 96.5 354.5 c 128,-1,75
 105 335 105 335 117 319.5 c 128,-1,76
 129 304 129 304 144.5 291.5 c 128,-1,77
 160 279 160 279 176 268 c 1,78,79
 165 291 165 291 158 322.5 c 128,-1,80
 151 354 151 354 149 399 c 1,81,-1
 86 399 l 1,73,74
EndSplineSet
EndChar

StartChar: tag
Encoding: 59148 59148 43
Width: 580
Flags: W
LayerCount: 2
Fore
SplineSet
522 490 m 0,0,1
 532 461 532 461 529.5 434.5 c 128,-1,2
 527 408 527 408 516 385.5 c 128,-1,3
 505 363 505 363 488.5 344 c 128,-1,4
 472 325 472 325 454 312 c 1,5,-1
 463 300 l 2,6,7
 466 295 466 295 467 287 c 128,-1,8
 468 279 468 279 466 273 c 2,9,-1
 442 194 l 2,10,11
 440 189 440 189 434.5 182 c 128,-1,12
 429 175 429 175 424 171 c 2,13,-1
 192 7 l 2,14,15
 184 1 184 1 175 0.5 c 128,-1,16
 166 0 166 0 160 9 c 2,17,-1
 55 161 l 2,18,19
 49 170 49 170 50.5 180.5 c 128,-1,20
 52 191 52 191 61 197 c 2,21,-1
 293 361 l 2,22,23
 298 365 298 365 306 367.5 c 128,-1,24
 314 370 314 370 320 370 c 2,25,-1
 399 370 l 2,26,27
 405 370 405 370 412 366 c 128,-1,28
 419 362 419 362 423 357 c 2,29,-1
 437 337 l 1,30,31
 450 347 450 347 464 361.5 c 128,-1,32
 478 376 478 376 487.5 394 c 128,-1,33
 497 412 497 412 500 433.5 c 128,-1,34
 503 455 503 455 494 480 c 0,35,36
 492 486 492 486 495 492 c 128,-1,37
 498 498 498 498 503 500 c 0,38,39
 509 502 509 502 514.5 499 c 128,-1,40
 520 496 520 496 522 490 c 0,0,1
414 256 m 1,41,42
 434 272 434 272 431 296 c 1,43,44
 426 294 426 294 422.5 292 c 128,-1,45
 419 290 419 290 415 288 c 256,46,47
 411 286 411 286 409 286 c 0,48,49
 400 286 400 286 395 295 c 1,50,51
 393 301 393 301 395 307 c 128,-1,52
 397 313 397 313 403 315 c 1,53,54
 403 315 403 315 415 322 c 1,55,56
 404 330 404 330 392 330 c 128,-1,57
 380 330 380 330 369 322 c 0,58,59
 355 313 355 313 352 296.5 c 128,-1,60
 349 280 349 280 359 266 c 0,61,62
 368 252 368 252 384 249.5 c 128,-1,63
 400 247 400 247 414 256 c 1,41,42
EndSplineSet
EndChar

StartChar: camera
Encoding: 128247 128247 44
Width: 600
Flags: W
LayerCount: 2
Fore
SplineSet
300 300 m 0,0,1
 332 300 332 300 353.5 278.5 c 128,-1,2
 375 257 375 257 375 225 c 0,3,4
 375 194 375 194 353.5 172 c 128,-1,5
 332 150 332 150 300 150 c 0,6,7
 269 150 269 150 247 172 c 128,-1,8
 225 194 225 194 225 225 c 0,9,10
 225 257 225 257 247 278.5 c 128,-1,11
 269 300 269 300 300 300 c 0,0,1
500 375 m 2,12,13
 521 375 521 375 535.5 360.5 c 128,-1,14
 550 346 550 346 550 325 c 2,15,-1
 550 100 l 2,16,17
 550 80 550 80 535.5 65 c 128,-1,18
 521 50 521 50 500 50 c 2,19,-1
 100 50 l 2,20,21
 80 50 80 50 65 65 c 128,-1,22
 50 80 50 80 50 100 c 2,23,-1
 50 325 l 2,24,25
 50 346 50 346 65 360.5 c 128,-1,26
 80 375 80 375 100 375 c 2,27,-1
 160 375 l 2,28,29
 166 375 166 375 172 379.5 c 128,-1,30
 178 384 178 384 180 390 c 2,31,-1
 195 436 l 2,32,33
 197 442 197 442 203 446 c 128,-1,34
 209 450 209 450 215 450 c 2,35,-1
 385 450 l 2,36,37
 391 450 391 450 397 446 c 128,-1,38
 403 442 403 442 405 436 c 2,39,-1
 420 390 l 2,40,41
 422 384 422 384 428 379.5 c 128,-1,42
 434 375 434 375 440 375 c 2,43,-1
 500 375 l 2,12,13
300 100 m 256,44,45
 326 100 326 100 348.5 110 c 128,-1,46
 371 120 371 120 388 137 c 128,-1,47
 405 154 405 154 415 176.5 c 128,-1,48
 425 199 425 199 425 225 c 256,49,50
 425 251 425 251 415 273.5 c 128,-1,51
 405 296 405 296 388 313 c 128,-1,52
 371 330 371 330 348.5 340 c 128,-1,53
 326 350 326 350 300 350 c 256,54,55
 274 350 274 350 251.5 340 c 128,-1,56
 229 330 229 330 212 313 c 128,-1,57
 195 296 195 296 185 273.5 c 128,-1,58
 175 251 175 251 175 225 c 256,59,60
 175 199 175 199 185 176.5 c 128,-1,61
 195 154 195 154 212 137 c 128,-1,62
 229 120 229 120 251.5 110 c 128,-1,63
 274 100 274 100 300 100 c 256,44,45
483 290 m 0,64,65
 490 290 490 290 495 295 c 128,-1,66
 500 300 500 300 500 308 c 256,67,68
 500 316 500 316 495 320.5 c 128,-1,69
 490 325 490 325 483 325 c 0,70,71
 475 325 475 325 470 320.5 c 128,-1,72
 465 316 465 316 465 308 c 256,73,74
 465 300 465 300 470 295 c 128,-1,75
 475 290 475 290 483 290 c 0,64,65
EndSplineSet
EndChar

StartChar: megaphone
Encoding: 128227 128227 45
Width: 531
Flags: W
LayerCount: 2
Fore
SplineSet
446 325 m 0,0,1
 461 290 461 290 469.5 256.5 c 128,-1,2
 478 223 478 223 480 195.5 c 128,-1,3
 482 168 482 168 477 149.5 c 128,-1,4
 472 131 472 131 460 126 c 0,5,6
 444 120 444 120 430 128 c 128,-1,7
 416 136 416 136 396.5 147.5 c 128,-1,8
 377 159 377 159 348 168 c 128,-1,9
 319 177 319 177 273 172 c 0,10,11
 259 170 259 170 251.5 162.5 c 128,-1,12
 244 155 244 155 249 144 c 0,13,14
 250 140 250 140 253.5 133 c 128,-1,15
 257 126 257 126 260.5 117.5 c 128,-1,16
 264 109 264 109 267 101.5 c 128,-1,17
 270 94 270 94 272 90 c 0,18,19
 275 82 275 82 284 79 c 128,-1,20
 293 76 293 76 296 69 c 256,21,22
 299 62 299 62 296.5 55.5 c 128,-1,23
 294 49 294 49 285 46 c 0,24,25
 281 44 281 44 273.5 41 c 128,-1,26
 266 38 266 38 258.5 35 c 128,-1,27
 251 32 251 32 244 29.5 c 128,-1,28
 237 27 237 27 234 26 c 0,29,30
 227 24 227 24 219.5 30.5 c 128,-1,31
 212 37 212 37 207 47 c 0,32,33
 205 51 205 51 201.5 59.5 c 128,-1,34
 198 68 198 68 193.5 78 c 128,-1,35
 189 88 189 88 185 97.5 c 128,-1,36
 181 107 181 107 178 113 c 0,37,38
 176 118 176 118 171.5 119.5 c 128,-1,39
 167 121 167 121 162 122 c 128,-1,40
 157 123 157 123 150.5 125.5 c 128,-1,41
 144 128 144 128 138 137 c 1,42,43
 134 135 134 135 130 134 c 1,44,45
 127 132 127 132 124 131.5 c 128,-1,46
 121 131 121 131 119 130 c 0,47,48
 110 127 110 127 100.5 129 c 128,-1,49
 91 131 91 131 82 136 c 128,-1,50
 73 141 73 141 65.5 149 c 128,-1,51
 58 157 58 157 55 166 c 1,52,53
 47 183 47 183 52 205.5 c 128,-1,54
 57 228 57 228 74 236 c 1,55,56
 141 263 141 263 181 290 c 128,-1,57
 221 317 221 317 242.5 341.5 c 128,-1,58
 264 366 264 366 272 387.5 c 128,-1,59
 280 409 280 409 284 426.5 c 128,-1,60
 288 444 288 444 292 456 c 128,-1,61
 296 468 296 468 310 474 c 0,62,63
 322 479 322 479 339 469 c 128,-1,64
 356 459 356 459 375 438.5 c 128,-1,65
 394 418 394 418 412.5 388.5 c 128,-1,66
 431 359 431 359 446 325 c 0,0,1
432 175 m 256,67,68
 435 176 435 176 436 187 c 128,-1,69
 437 198 437 198 435.5 215.5 c 128,-1,70
 434 233 434 233 428.5 256.5 c 128,-1,71
 423 280 423 280 411 307 c 256,72,73
 399 334 399 334 385.5 356 c 128,-1,74
 372 378 372 378 359.5 393 c 128,-1,75
 347 408 347 408 338 415.5 c 128,-1,76
 329 423 329 423 326 422 c 256,77,78
 323 421 323 421 321.5 409 c 128,-1,79
 320 397 320 397 321.5 378 c 128,-1,80
 323 359 323 359 328.5 334 c 128,-1,81
 334 309 334 309 346 282 c 256,82,83
 358 255 358 255 371.5 234.5 c 128,-1,84
 385 214 385 214 398 200.5 c 128,-1,85
 411 187 411 187 420 180.5 c 128,-1,86
 429 174 429 174 432 175 c 256,67,68
EndSplineSet
EndChar

StartChar: moon
Encoding: 9789 9789 46
Width: 511
Flags: W
LayerCount: 2
Fore
SplineSet
312 194 m 256,0,1
 339 221 339 221 354.5 253 c 128,-1,2
 370 285 370 285 374.5 319.5 c 128,-1,3
 379 354 379 354 372.5 389 c 128,-1,4
 366 424 366 424 348 455 c 1,5,6
 373 441 373 441 396 419 c 0,7,8
 428 387 428 387 444 346.5 c 128,-1,9
 460 306 460 306 460 264 c 128,-1,10
 460 222 460 222 444 182 c 128,-1,11
 428 142 428 142 396 110 c 256,12,13
 364 78 364 78 323.5 61.5 c 128,-1,14
 283 45 283 45 241 45 c 128,-1,15
 199 45 199 45 158.5 61.5 c 128,-1,16
 118 78 118 78 86 110 c 0,17,18
 66 130 66 130 50 157 c 1,19,20
 81 140 81 140 116 133.5 c 128,-1,21
 151 127 151 127 185.5 131.5 c 128,-1,22
 220 136 220 136 252.5 151.5 c 128,-1,23
 285 167 285 167 312 194 c 256,0,1
EndSplineSet
EndChar

StartChar: palette
Encoding: 127912 127912 47
Width: 591
Flags: W
LayerCount: 2
Fore
SplineSet
479 386 m 0,0,1
 509 366 509 366 522.5 344 c 128,-1,2
 536 322 536 322 539 303 c 128,-1,3
 542 284 542 284 536.5 270.5 c 128,-1,4
 531 257 531 257 522 255 c 256,5,6
 513 253 513 253 501.5 257.5 c 128,-1,7
 490 262 490 262 476 264.5 c 128,-1,8
 462 267 462 267 446.5 263.5 c 128,-1,9
 431 260 431 260 415 242 c 0,10,11
 402 228 402 228 403.5 214 c 128,-1,12
 405 200 405 200 411.5 187.5 c 128,-1,13
 418 175 418 175 426 164.5 c 128,-1,14
 434 154 434 154 433 147 c 1,15,16
 433 139 433 139 422.5 125 c 128,-1,17
 412 111 412 111 389.5 96.5 c 128,-1,18
 367 82 367 82 331 71 c 128,-1,19
 295 60 295 60 244 60 c 0,20,21
 196 60 196 60 159 74 c 128,-1,22
 122 88 122 88 97 111.5 c 128,-1,23
 72 135 72 135 60 166.5 c 128,-1,24
 48 198 48 198 51 233 c 0,25,26
 53 262 53 262 67 292.5 c 128,-1,27
 81 323 81 323 102.5 350 c 128,-1,28
 124 377 124 377 152.5 397 c 128,-1,29
 181 417 181 417 211 426 c 0,30,31
 289 449 289 449 354.5 437 c 128,-1,32
 420 425 420 425 479 386 c 0,0,1
320 153 m 0,33,34
 335 153 335 153 346 164 c 128,-1,35
 357 175 357 175 357 191 c 256,36,37
 357 207 357 207 346 217.5 c 128,-1,38
 335 228 335 228 320 228 c 0,39,40
 304 228 304 228 293 217.5 c 128,-1,41
 282 207 282 207 282 191 c 256,42,43
 282 175 282 175 293 164 c 128,-1,44
 304 153 304 153 320 153 c 0,33,34
EndSplineSet
EndChar

StartChar: leaf
Encoding: 127810 127810 48
Width: 570
Flags: W
LayerCount: 2
Fore
SplineSet
168 398 m 0,0,1
 200 417 200 417 240.5 425.5 c 128,-1,2
 281 434 281 434 322 435.5 c 128,-1,3
 363 437 363 437 401.5 433 c 128,-1,4
 440 429 440 429 468 423 c 128,-1,5
 496 417 496 417 510 410.5 c 128,-1,6
 524 404 524 404 518 401 c 0,7,8
 476 378 476 378 453.5 346 c 128,-1,9
 431 314 431 314 414.5 280 c 128,-1,10
 398 246 398 246 381.5 214.5 c 128,-1,11
 365 183 365 183 335 162 c 0,12,13
 313 147 313 147 287 142 c 128,-1,14
 261 137 261 137 235.5 139 c 128,-1,15
 210 141 210 141 186 147 c 128,-1,16
 162 153 162 153 144 160 c 1,17,18
 134 149 134 149 124 135 c 0,19,20
 116 123 116 123 106 107 c 128,-1,21
 96 91 96 91 87 72 c 0,22,23
 84 66 84 66 77 65.5 c 128,-1,24
 70 65 70 65 63.5 68.5 c 128,-1,25
 57 72 57 72 53 77.5 c 128,-1,26
 49 83 49 83 51 88 c 0,27,28
 65 122 65 122 87.5 151.5 c 128,-1,29
 110 181 110 181 136.5 206 c 128,-1,30
 163 231 163 231 192 252 c 128,-1,31
 221 273 221 273 249 290 c 0,32,33
 315 330 315 330 389 358 c 1,34,35
 335 357 335 357 281 343 c 0,36,37
 234 330 234 330 181 302 c 128,-1,38
 128 274 128 274 81 219 c 1,39,40
 80 231 80 231 80 253 c 128,-1,41
 80 275 80 275 87.5 300 c 128,-1,42
 95 325 95 325 113.5 351 c 128,-1,43
 132 377 132 377 168 398 c 0,0,1
EndSplineSet
EndChar

StartChar: note
Encoding: 9834 9834 49
Width: 391
Flags: W
LayerCount: 2
Fore
SplineSet
241 485 m 1,0,1
 241 468 241 468 252 452.5 c 128,-1,2
 263 437 263 437 278 420.5 c 128,-1,3
 293 404 293 404 309 386.5 c 128,-1,4
 325 369 325 369 333.5 348.5 c 128,-1,5
 342 328 342 328 340.5 303.5 c 128,-1,6
 339 279 339 279 320 250 c 0,7,8
 312 237 312 237 308.5 239.5 c 128,-1,9
 305 242 305 242 307 250 c 0,10,11
 310 259 310 259 310 278 c 128,-1,12
 310 297 310 297 303.5 317 c 128,-1,13
 297 337 297 337 282 353.5 c 128,-1,14
 267 370 267 370 241 374 c 1,15,-1
 241 106 l 1,16,17
 242 82 242 82 222.5 58.5 c 128,-1,18
 203 35 203 35 170 23 c 0,19,20
 132 9 132 9 98.5 19 c 128,-1,21
 65 29 65 29 54 57 c 0,22,23
 44 85 44 85 64 114 c 128,-1,24
 84 143 84 143 122 157 c 0,25,26
 143 165 143 165 163.5 165 c 128,-1,27
 184 165 184 165 201 159 c 1,28,-1
 201 485 l 1,29,-1
 241 485 l 1,30,-1
 241 485 l 1,0,1
EndSplineSet
EndChar

StartChar: beamed-notes
Encoding: 9835 9835 50
Width: 471
Flags: W
LayerCount: 2
Fore
SplineSet
420 490 m 1,0,-1
 420 138 l 1,1,2
 421 117 421 117 405 97.5 c 128,-1,3
 389 78 389 78 362 68 c 0,4,5
 330 56 330 56 307 64.5 c 128,-1,6
 284 73 284 73 276 96 c 256,7,8
 268 119 268 119 279 144 c 128,-1,9
 290 169 290 169 322 181 c 0,10,11
 336 186 336 186 349.5 187 c 128,-1,12
 363 188 363 188 375 186 c 1,13,-1
 375 374 l 1,14,-1
 198 333 l 1,15,-1
 198 88 l 2,16,17
 198 67 198 67 182 47.5 c 128,-1,18
 166 28 166 28 139 18 c 0,19,20
 107 6 107 6 84.5 14.5 c 128,-1,21
 62 23 62 23 54 46 c 0,22,23
 45 69 45 69 56 94 c 128,-1,24
 67 119 67 119 99 131 c 0,25,26
 113 136 113 136 127 137 c 128,-1,27
 141 138 141 138 153 136 c 1,28,-1
 153 432 l 1,29,-1
 420 490 l 1,0,-1
EndSplineSet
EndChar

StartChar: new
Encoding: 128165 128165 51
Width: 552
Flags: W
LayerCount: 2
Fore
SplineSet
493 192 m 2,0,1
 503 184 503 184 501 175.5 c 128,-1,2
 499 167 499 167 487 164 c 2,3,-1
 448 153 l 2,4,5
 436 150 436 150 428 139 c 128,-1,6
 420 128 420 128 421 115 c 2,7,-1
 423 74 l 2,8,9
 424 62 424 62 416 57 c 128,-1,10
 408 52 408 52 397 57 c 2,11,-1
 354 79 l 2,12,13
 343 85 343 85 330.5 81 c 128,-1,14
 318 77 318 77 313 66 c 2,15,-1
 290 22 l 2,16,17
 284 11 284 11 275.5 10 c 128,-1,18
 267 9 267 9 259 20 c 2,19,-1
 234 59 l 2,20,21
 226 70 226 70 213.5 72.5 c 128,-1,22
 201 75 201 75 190 69 c 2,23,-1
 129 34 l 2,24,25
 118 27 118 27 113 31 c 128,-1,26
 108 35 108 35 112 47 c 2,27,-1
 139 129 l 2,28,29
 143 141 143 141 137 150.5 c 128,-1,30
 131 160 131 160 119 162 c 2,31,-1
 66 168 l 2,32,33
 54 170 54 170 51.5 177 c 128,-1,34
 49 184 49 184 59 192 c 2,35,-1
 102 230 l 2,36,37
 112 238 112 238 112 250.5 c 128,-1,38
 112 263 112 263 102 271 c 2,39,-1
 59 309 l 2,40,41
 49 317 49 317 51 325.5 c 128,-1,42
 53 334 53 334 65 337 c 2,43,-1
 104 348 l 2,44,45
 116 351 116 351 124.5 362 c 128,-1,46
 133 373 133 373 132 386 c 2,47,-1
 129 427 l 2,48,49
 129 440 129 440 136.5 445 c 128,-1,50
 144 450 144 450 155 445 c 2,51,-1
 195 426 l 2,52,53
 207 421 207 421 219.5 425 c 128,-1,54
 232 429 232 429 238 440 c 2,55,-1
 261 480 l 2,56,57
 267 491 267 491 276 490.5 c 128,-1,58
 285 490 285 490 291 479 c 2,59,-1
 316 436 l 2,60,61
 322 425 322 425 333.5 421.5 c 128,-1,62
 345 418 345 418 356 425 c 2,63,-1
 424 467 l 2,64,65
 435 474 435 474 439.5 470 c 128,-1,66
 444 466 444 466 439 454 c 2,67,-1
 409 369 l 1,68,69
 404 358 404 358 410 348.5 c 128,-1,70
 416 339 416 339 429 338 c 2,71,-1
 486 332 l 2,72,73
 499 331 499 331 501 324 c 128,-1,74
 503 317 503 317 493 309 c 2,75,-1
 450 271 l 2,76,77
 441 263 441 263 441 250.5 c 128,-1,78
 441 238 441 238 450 230 c 2,79,-1
 493 192 l 2,0,1
301 198 m 1,80,-1
 251 198 l 1,81,-1
 251 146 l 1,82,-1
 301 146 l 1,83,-1
 301 198 l 1,80,-1
301 356 m 1,84,-1
 251 356 l 1,85,-1
 251 226 l 1,86,-1
 301 226 l 1,87,-1
 301 356 l 1,84,-1
EndSplineSet
EndChar

StartChar: graduation-cap
Encoding: 127891 127891 52
Width: 600
Flags: W
LayerCount: 2
Fore
SplineSet
300 110 m 1,0,-1
 438 178 l 1,1,2
 434 160 434 160 433 149 c 128,-1,3
 432 138 432 138 429 130.5 c 128,-1,4
 426 123 426 123 417.5 117 c 128,-1,5
 409 111 409 111 391 103 c 0,6,7
 353 86 353 86 333.5 73 c 128,-1,8
 314 60 314 60 300 60 c 256,9,10
 286 60 286 60 265.5 74.5 c 128,-1,11
 245 89 245 89 208 105 c 256,12,13
 171 121 171 121 156 140 c 128,-1,14
 141 159 141 159 133 194 c 1,15,-1
 300 110 l 1,0,-1
538 317 m 2,16,17
 550 310 550 310 550 300.5 c 128,-1,18
 550 291 550 291 538 284 c 2,19,-1
 499 262 l 1,20,-1
 345 313 l 1,21,22
 334 331 334 331 300 331 c 0,23,24
 280 331 280 331 266.5 323 c 128,-1,25
 253 315 253 315 253 303 c 256,26,27
 253 291 253 291 266.5 283 c 128,-1,28
 280 275 280 275 300 275 c 0,29,30
 313 275 313 275 318 277 c 1,31,-1
 464 243 l 1,32,-1
 330 167 l 2,33,34
 317 160 317 160 300 160 c 128,-1,35
 283 160 283 160 270 167 c 2,36,-1
 62 284 l 2,37,38
 50 291 50 291 50 300.5 c 128,-1,39
 50 310 50 310 62 317 c 2,40,-1
 270 434 l 2,41,42
 283 441 283 441 300 441 c 128,-1,43
 317 441 317 441 330 434 c 2,44,-1
 538 317 l 2,16,17
474 96 m 0,45,46
 482 141 482 141 481 169 c 128,-1,47
 480 197 480 197 476 214 c 0,48,49
 472 233 472 233 464 243 c 1,50,-1
 499 262 l 1,51,52
 506 250 506 250 510 228 c 0,53,54
 513 209 513 209 514 178 c 128,-1,55
 515 147 515 147 510 99 c 0,56,57
 508 88 508 88 502.5 85 c 128,-1,58
 497 82 497 82 490.5 83.5 c 128,-1,59
 484 85 484 85 479 89 c 128,-1,60
 474 93 474 93 474 96 c 0,45,46
EndSplineSet
EndChar

StartChar: book
Encoding: 128213 128213 53
Width: 450
Flags: W
LayerCount: 2
Fore
SplineSet
391 372 m 1,0,1
 400 367 400 367 400 358 c 2,2,-1
 400 77 l 2,3,4
 400 70 400 70 394 64.5 c 128,-1,5
 388 59 388 59 380 59 c 256,6,7
 372 59 372 59 364.5 63 c 128,-1,8
 357 67 357 67 357 77 c 2,9,-1
 357 338 l 2,10,11
 357 342 357 342 356.5 343.5 c 128,-1,12
 356 345 356 345 351 347 c 0,13,14
 350 347 350 347 340.5 352 c 128,-1,15
 331 357 331 357 317 364.5 c 128,-1,16
 303 372 303 372 285 382 c 128,-1,17
 267 392 267 392 248 402 c 0,18,19
 204 426 204 426 149 455 c 0,20,21
 147 456 147 456 138 457 c 128,-1,22
 129 458 129 458 115 450 c 1,23,24
 102 444 102 444 95.5 437.5 c 128,-1,25
 89 431 89 431 87 428 c 1,26,-1
 291 314 l 2,27,28
 300 309 300 309 300 300 c 2,29,-1
 300 25 l 2,30,31
 300 14 300 14 291 11 c 0,32,33
 288 9 288 9 283 9 c 0,34,35
 276 9 276 9 273 11 c 0,36,37
 272 12 272 12 257 21.5 c 128,-1,38
 242 31 242 31 220 44.5 c 128,-1,39
 198 58 198 58 172.5 74 c 128,-1,40
 147 90 147 90 124.5 104 c 128,-1,41
 102 118 102 118 85.5 128 c 128,-1,42
 69 138 69 138 66 140 c 0,43,44
 61 143 61 143 57 147.5 c 128,-1,45
 53 152 53 152 53 157 c 2,46,-1
 50 419 l 2,47,48
 50 423 50 423 51 429.5 c 128,-1,49
 52 436 52 436 57 445 c 1,50,51
 64 455 64 455 77.5 465.5 c 128,-1,52
 91 476 91 476 107 483 c 128,-1,53
 123 490 123 490 139 492 c 128,-1,54
 155 494 155 494 166 488 c 2,55,-1
 391 372 l 1,56,-1
 391 372 l 1,0,1
EndSplineSet
EndChar

StartChar: newspaper
Encoding: 128240 128240 54
Width: 500
Flags: W
LayerCount: 2
Fore
SplineSet
400 475 m 2,0,1
 421 475 421 475 435.5 460.5 c 128,-1,2
 450 446 450 446 450 425 c 2,3,-1
 450 75 l 2,4,5
 450 55 450 55 435.5 40 c 128,-1,6
 421 25 421 25 400 25 c 2,7,-1
 100 25 l 2,8,9
 80 25 80 25 65 40 c 128,-1,10
 50 55 50 55 50 75 c 2,11,-1
 50 425 l 2,12,13
 50 446 50 446 65 460.5 c 128,-1,14
 80 475 80 475 100 475 c 2,15,-1
 400 475 l 2,0,1
400 425 m 1,16,-1
 100 425 l 1,17,-1
 100 75 l 1,18,-1
 400 75 l 1,19,-1
 400 425 l 1,16,-1
275 175 m 1,20,-1
 150 175 l 1,21,-1
 150 200 l 1,22,-1
 275 200 l 1,23,-1
 275 175 l 1,20,-1
350 275 m 1,24,-1
 250 275 l 1,25,-1
 250 300 l 1,26,-1
 350 300 l 1,27,-1
 350 275 l 1,24,-1
250 375 m 1,28,-1
 350 375 l 1,29,-1
 350 325 l 1,30,-1
 250 325 l 1,31,-1
 250 375 l 1,28,-1
225 275 m 1,32,-1
 150 275 l 1,33,-1
 150 375 l 1,34,-1
 225 375 l 1,35,-1
 225 275 l 1,32,-1
200 225 m 1,36,-1
 150 225 l 1,37,-1
 150 250 l 1,38,-1
 200 250 l 1,39,-1
 200 225 l 1,36,-1
225 250 m 1,40,-1
 350 250 l 1,41,-1
 350 225 l 1,42,-1
 225 225 l 1,43,-1
 225 250 l 1,40,-1
350 125 m 1,44,-1
 150 125 l 1,45,-1
 150 150 l 1,46,-1
 350 150 l 1,47,-1
 350 125 l 1,44,-1
300 200 m 1,48,-1
 350 200 l 1,49,-1
 350 175 l 1,50,-1
 300 175 l 1,51,-1
 300 200 l 1,48,-1
EndSplineSet
EndChar

StartChar: bag
Encoding: 128092 128092 55
Width: 531
Flags: W
LayerCount: 2
Fore
SplineSet
468 409 m 0,0,1
 474 404 474 404 478 397 c 128,-1,2
 482 390 482 390 480 379 c 0,3,4
 480 376 480 376 477.5 361 c 128,-1,5
 475 346 475 346 471.5 322.5 c 128,-1,6
 468 299 468 299 463.5 270.5 c 128,-1,7
 459 242 459 242 455 212 c 0,8,9
 444 142 444 142 431 55 c 1,10,11
 429 49 429 49 423.5 44.5 c 128,-1,12
 418 40 418 40 412 40 c 2,13,-1
 119 40 l 2,14,15
 112 40 112 40 106.5 44.5 c 128,-1,16
 101 49 101 49 99 55 c 1,17,18
 86 142 86 142 75 212 c 0,19,20
 70 242 70 242 66 270.5 c 128,-1,21
 62 299 62 299 58.5 322.5 c 128,-1,22
 55 346 55 346 53 361 c 128,-1,23
 51 376 51 376 51 379 c 0,24,25
 49 390 49 390 53 397 c 128,-1,26
 57 404 57 404 62 409 c 0,27,28
 65 411 65 411 72.5 417.5 c 128,-1,29
 80 424 80 424 89 430.5 c 128,-1,30
 98 437 98 437 106 443.5 c 128,-1,31
 114 450 114 450 117 452 c 0,32,33
 123 457 123 457 131 458.5 c 128,-1,34
 139 460 139 460 145 460 c 2,35,-1
 385 460 l 2,36,37
 392 460 392 460 399.5 458.5 c 128,-1,38
 407 457 407 457 413 452 c 0,39,40
 416 450 416 450 424 443.5 c 128,-1,41
 432 437 432 437 441 430.5 c 128,-1,42
 450 424 450 424 457.5 417.5 c 128,-1,43
 465 411 465 411 468 409 c 0,0,1
265 191 m 256,44,45
 295 191 295 191 314.5 209.5 c 128,-1,46
 334 228 334 228 345 251.5 c 128,-1,47
 356 275 356 275 361 298 c 128,-1,48
 366 321 366 321 367 330 c 1,49,-1
 321 330 l 1,50,51
 318 317 318 317 314 300.5 c 128,-1,52
 310 284 310 284 303 270 c 128,-1,53
 296 256 296 256 287 246 c 128,-1,54
 278 236 278 236 265 236 c 0,55,56
 253 236 253 236 243.5 246 c 128,-1,57
 234 256 234 256 227 270 c 128,-1,58
 220 284 220 284 216 300.5 c 128,-1,59
 212 317 212 317 209 330 c 1,60,-1
 163 330 l 1,61,62
 164 321 164 321 169 298 c 128,-1,63
 174 275 174 275 185 251.5 c 128,-1,64
 196 228 196 228 215.5 209.5 c 128,-1,65
 235 191 235 191 265 191 c 256,44,45
441 375 m 1,66,-1
 386 433 l 1,67,-1
 144 433 l 1,68,-1
 89 375 l 1,69,-1
 441 375 l 1,66,-1
EndSplineSet
EndChar

StartChar: airplane
Encoding: 9992 9992 56
Width: 600
Flags: W
LayerCount: 2
Fore
SplineSet
246 215 m 1,0,-1
 156 215 l 1,1,-1
 100 165 l 1,2,-1
 50 165 l 1,3,-1
 90 250 l 1,4,-1
 50 335 l 1,5,-1
 100 335 l 1,6,-1
 156 285 l 1,7,-1
 246 285 l 1,8,-1
 184 485 l 1,9,-1
 234 485 l 1,10,-1
 346 285 l 1,11,-1
 475 285 l 2,12,13
 495 285 495 285 512 281 c 0,14,15
 526 278 526 278 538 270.5 c 128,-1,16
 550 263 550 263 550 250 c 0,17,18
 550 236 550 236 538 229 c 128,-1,19
 526 222 526 222 512 219 c 0,20,21
 495 215 495 215 475 215 c 2,22,-1
 346 215 l 1,23,-1
 234 15 l 1,24,-1
 184 15 l 1,25,-1
 246 215 l 1,0,-1
EndSplineSet
EndChar

StartChar: lifebuoy
Encoding: 59272 59272 57
Width: 562
Flags: W
LayerCount: 2
Fore
SplineSet
278 480 m 0,0,1
 326 481 326 481 368 463.5 c 128,-1,2
 410 446 410 446 441.5 415.5 c 128,-1,3
 473 385 473 385 491.5 343.5 c 128,-1,4
 510 302 510 302 511 254 c 256,5,6
 512 206 512 206 494.5 164 c 128,-1,7
 477 122 477 122 446 90 c 128,-1,8
 415 58 415 58 373.5 39.5 c 128,-1,9
 332 21 332 21 284 20 c 0,10,11
 236 20 236 20 194 37.5 c 128,-1,12
 152 55 152 55 120.5 85.5 c 128,-1,13
 89 116 89 116 70.5 157.5 c 128,-1,14
 52 199 52 199 51 247 c 256,15,16
 50 295 50 295 67.5 337 c 128,-1,17
 85 379 85 379 116 410.5 c 128,-1,18
 147 442 147 442 188.5 461 c 128,-1,19
 230 480 230 480 278 480 c 0,0,1
278 450 m 0,20,21
 231 450 231 450 189 428 c 1,22,-1
 220 376 l 1,23,24
 248 390 248 390 281 390 c 256,25,26
 314 390 314 390 342 376 c 1,27,-1
 373 428 l 1,28,29
 329 451 329 451 278 450 c 0,20,21
155 189 m 1,30,31
 141 219 141 219 141 250 c 0,32,33
 141 282 141 282 155 312 c 1,34,-1
 104 343 l 1,35,36
 81 299 81 299 81 248 c 1,37,38
 82 200 82 200 104 158 c 1,39,-1
 155 189 l 1,30,31
284 50 m 1,40,41
 333 52 333 52 373 73 c 1,42,-1
 342 125 l 1,43,44
 328 118 328 118 313 114 c 128,-1,45
 298 110 298 110 281 110 c 256,46,47
 264 110 264 110 249 114 c 128,-1,48
 234 118 234 118 220 125 c 1,49,-1
 189 73 l 1,50,51
 232 50 232 50 284 50 c 1,40,41
281 140 m 256,52,53
 304 140 304 140 324 148.5 c 128,-1,54
 344 157 344 157 359 172 c 128,-1,55
 374 187 374 187 382.5 207 c 128,-1,56
 391 227 391 227 391 250 c 256,57,58
 391 273 391 273 382.5 293 c 128,-1,59
 374 313 374 313 359 328 c 128,-1,60
 344 343 344 343 324 351.5 c 128,-1,61
 304 360 304 360 281 360 c 256,62,63
 258 360 258 360 238 351.5 c 128,-1,64
 218 343 218 343 203 328 c 128,-1,65
 188 313 188 313 179.5 293 c 128,-1,66
 171 273 171 273 171 250 c 256,67,68
 171 227 171 227 179.5 207 c 128,-1,69
 188 187 188 187 203 172 c 128,-1,70
 218 157 218 157 238 148.5 c 128,-1,71
 258 140 258 140 281 140 c 256,52,53
459 158 m 1,72,73
 470 180 470 180 476 203.5 c 128,-1,74
 482 227 482 227 481 253 c 1,75,76
 481 301 481 301 459 343 c 1,77,-1
 407 312 l 1,78,79
 421 282 421 282 421 250 c 0,80,81
 421 219 421 219 407 189 c 1,82,-1
 459 158 l 1,72,73
EndSplineSet
EndChar

StartChar: eye
Encoding: 59146 59146 58
Width: 600
Flags: W
LayerCount: 2
Fore
SplineSet
300 390 m 0,0,1
 361 390 361 390 408 371 c 128,-1,2
 455 352 455 352 486.5 327.5 c 128,-1,3
 518 303 518 303 534 280 c 128,-1,4
 550 257 550 257 550 250 c 256,5,6
 550 243 550 243 534 220 c 128,-1,7
 518 197 518 197 486.5 172.5 c 128,-1,8
 455 148 455 148 408 129 c 128,-1,9
 361 110 361 110 300 110 c 0,10,11
 238 110 238 110 191.5 129 c 128,-1,12
 145 148 145 148 113.5 172.5 c 128,-1,13
 82 197 82 197 66 220 c 128,-1,14
 50 243 50 243 50 250 c 256,15,16
 50 257 50 257 66 280 c 128,-1,17
 82 303 82 303 113.5 327.5 c 128,-1,18
 145 352 145 352 191.5 371 c 128,-1,19
 238 390 238 390 300 390 c 0,0,1
300 143 m 256,20,21
 323 143 323 143 343 151.5 c 128,-1,22
 363 160 363 160 378 174.5 c 128,-1,23
 393 189 393 189 402 208.5 c 128,-1,24
 411 228 411 228 411 250 c 256,25,26
 411 272 411 272 402 292 c 128,-1,27
 393 312 393 312 378 326.5 c 128,-1,28
 363 341 363 341 343 349.5 c 128,-1,29
 323 358 323 358 300 358 c 256,30,31
 277 358 277 358 257 349.5 c 128,-1,32
 237 341 237 341 222 326.5 c 128,-1,33
 207 312 207 312 198 292 c 128,-1,34
 189 272 189 272 189 250 c 256,35,36
 189 228 189 228 198 208.5 c 128,-1,37
 207 189 207 189 222 174.5 c 128,-1,38
 237 160 237 160 257 151.5 c 128,-1,39
 277 143 277 143 300 143 c 256,20,21
300 250 m 0,40,41
 303 247 303 247 312.5 248.5 c 128,-1,42
 322 250 322 250 331.5 252 c 128,-1,43
 341 254 341 254 348.5 254.5 c 128,-1,44
 356 255 356 255 356 250 c 0,45,46
 356 228 356 228 339.5 212.5 c 128,-1,47
 323 197 323 197 300 197 c 256,48,49
 277 197 277 197 261 212.5 c 128,-1,50
 245 228 245 228 245 250 c 0,51,52
 245 273 245 273 261 288.5 c 128,-1,53
 277 304 277 304 300 304 c 0,54,55
 306 304 306 304 305.5 297 c 128,-1,56
 305 290 305 290 302.5 281 c 128,-1,57
 300 272 300 272 298 263 c 128,-1,58
 296 254 296 254 300 250 c 0,40,41
EndSplineSet
EndChar

StartChar: clock
Encoding: 128340 128340 59
Width: 560
Flags: W
LayerCount: 2
Fore
SplineSet
280 480 m 256,0,1
 328 480 328 480 369.5 462 c 128,-1,2
 411 444 411 444 442.5 412.5 c 128,-1,3
 474 381 474 381 492 339.5 c 128,-1,4
 510 298 510 298 510 250 c 256,5,6
 510 202 510 202 492 160.5 c 128,-1,7
 474 119 474 119 442.5 87.5 c 128,-1,8
 411 56 411 56 369.5 38 c 128,-1,9
 328 20 328 20 280 20 c 256,10,11
 232 20 232 20 190.5 38 c 128,-1,12
 149 56 149 56 117.5 87.5 c 128,-1,13
 86 119 86 119 68 160.5 c 128,-1,14
 50 202 50 202 50 250 c 256,15,16
 50 298 50 298 68 339.5 c 128,-1,17
 86 381 86 381 117.5 412.5 c 128,-1,18
 149 444 149 444 190.5 462 c 128,-1,19
 232 480 232 480 280 480 c 256,0,1
280 70 m 256,20,21
 317 70 317 70 350 84 c 128,-1,22
 383 98 383 98 407.5 122.5 c 128,-1,23
 432 147 432 147 446 180 c 128,-1,24
 460 213 460 213 460 250 c 256,25,26
 460 287 460 287 446 320 c 128,-1,27
 432 353 432 353 407.5 377.5 c 128,-1,28
 383 402 383 402 350 416 c 128,-1,29
 317 430 317 430 280 430 c 256,30,31
 243 430 243 430 210 416 c 128,-1,32
 177 402 177 402 152.5 377.5 c 128,-1,33
 128 353 128 353 114 320 c 128,-1,34
 100 287 100 287 100 250 c 256,35,36
 100 213 100 213 114 180 c 128,-1,37
 128 147 128 147 152.5 122.5 c 128,-1,38
 177 98 177 98 210 84 c 128,-1,39
 243 70 243 70 280 70 c 256,20,21
298 258 m 1,40,-1
 373 183 l 1,41,-1
 348 158 l 1,42,-1
 263 243 l 1,43,-1
 263 380 l 1,44,-1
 298 380 l 1,45,-1
 298 258 l 1,40,-1
EndSplineSet
EndChar

StartChar: mic
Encoding: 127908 127908 60
Width: 420
Flags: W
LayerCount: 2
Fore
SplineSet
360 319 m 2,0,1
 370 319 370 319 370 309 c 2,2,-1
 370 240 l 2,3,4
 370 219 370 219 362 198.5 c 128,-1,5
 354 178 354 178 337.5 160.5 c 128,-1,6
 321 143 321 143 295.5 131 c 128,-1,7
 270 119 270 119 235 116 c 1,8,-1
 235 50 l 1,9,-1
 300 50 l 2,10,11
 310 50 310 50 310 40 c 2,12,-1
 310 10 l 2,13,14
 310 0 310 0 300 0 c 2,15,-1
 120 0 l 2,16,17
 110 0 110 0 110 10 c 2,18,-1
 110 40 l 2,19,20
 110 50 110 50 120 50 c 2,21,-1
 185 50 l 1,22,-1
 185 116 l 1,23,24
 150 119 150 119 124.5 131 c 128,-1,25
 99 143 99 143 82.5 160.5 c 128,-1,26
 66 178 66 178 58 198.5 c 128,-1,27
 50 219 50 219 50 240 c 2,28,-1
 50 309 l 2,29,30
 50 319 50 319 60 319 c 2,31,-1
 75 319 l 2,32,33
 85 319 85 319 85 309 c 2,34,-1
 85 240 l 2,35,36
 85 228 85 228 90.5 212 c 128,-1,37
 96 196 96 196 110.5 182.5 c 128,-1,38
 125 169 125 169 149 159.5 c 128,-1,39
 173 150 173 150 210 150 c 256,40,41
 247 150 247 150 271 159.5 c 128,-1,42
 295 169 295 169 309.5 182.5 c 128,-1,43
 324 196 324 196 329.5 212 c 128,-1,44
 335 228 335 228 335 240 c 2,45,-1
 335 309 l 2,46,47
 335 319 335 319 345 319 c 2,48,-1
 360 319 l 2,0,1
210 200 m 256,49,50
 188 200 188 200 173.5 204 c 128,-1,51
 159 208 159 208 150.5 214 c 128,-1,52
 142 220 142 220 138.5 227 c 128,-1,53
 135 234 135 234 135 240 c 2,54,-1
 135 319 l 1,55,-1
 285 319 l 1,56,-1
 285 240 l 2,57,58
 285 234 285 234 281.5 227 c 128,-1,59
 278 220 278 220 269.5 214 c 128,-1,60
 261 208 261 208 246.5 204 c 128,-1,61
 232 200 232 200 210 200 c 256,49,50
285 354 m 1,62,-1
 135 354 l 1,63,-1
 135 460 l 2,64,65
 135 472 135 472 150.5 486 c 128,-1,66
 166 500 166 500 210 500 c 256,67,68
 254 500 254 500 269.5 486 c 128,-1,69
 285 472 285 472 285 460 c 2,70,-1
 285 354 l 1,62,-1
EndSplineSet
EndChar

StartChar: calendar
Encoding: 128197 128197 61
Width: 550
Flags: W
LayerCount: 2
Fore
SplineSet
450 425 m 2,0,1
 471 425 471 425 485.5 410.5 c 128,-1,2
 500 396 500 396 500 375 c 2,3,-1
 500 75 l 2,4,5
 500 55 500 55 485.5 40 c 128,-1,6
 471 25 471 25 450 25 c 2,7,-1
 100 25 l 2,8,9
 80 25 80 25 65 40 c 128,-1,10
 50 55 50 55 50 75 c 2,11,-1
 50 375 l 2,12,13
 50 396 50 396 65 410.5 c 128,-1,14
 80 425 80 425 100 425 c 2,15,-1
 123 425 l 1,16,-1
 123 375 l 1,17,-1
 203 375 l 1,18,-1
 203 425 l 1,19,-1
 348 425 l 1,20,-1
 348 375 l 1,21,-1
 428 375 l 1,22,-1
 428 425 l 1,23,-1
 450 425 l 2,0,1
450 275 m 1,24,-1
 100 275 l 1,25,-1
 100 75 l 1,26,-1
 450 75 l 1,27,-1
 450 275 l 1,24,-1
180 390 m 1,28,-1
 145 390 l 1,29,-1
 145 475 l 1,30,-1
 180 475 l 1,31,-1
 180 390 l 1,28,-1
405 390 m 1,32,-1
 370 390 l 1,33,-1
 370 475 l 1,34,-1
 405 475 l 1,35,-1
 405 390 l 1,32,-1
EndSplineSet
EndChar

StartChar: bolt
Encoding: 9889 9889 62
Width: 302
Flags: W
LayerCount: 2
Fore
SplineSet
71 25 m 256,0,1
 70 26 70 26 75 40 c 128,-1,2
 80 54 80 54 89 74 c 128,-1,3
 98 94 98 94 108.5 117.5 c 128,-1,4
 119 141 119 141 127.5 161.5 c 128,-1,5
 136 182 136 182 142 196 c 128,-1,6
 148 210 148 210 147 212 c 0,7,8
 146 215 146 215 131.5 221 c 128,-1,9
 117 227 117 227 99.5 234.5 c 128,-1,10
 82 242 82 242 67.5 249.5 c 128,-1,11
 53 257 53 257 51 262 c 0,12,13
 50 265 50 265 62.5 282.5 c 128,-1,14
 75 300 75 300 94.5 324 c 128,-1,15
 114 348 114 348 137.5 375 c 128,-1,16
 161 402 161 402 181.5 424.5 c 128,-1,17
 202 447 202 447 216 461.5 c 128,-1,18
 230 476 230 476 231 475 c 256,19,20
 232 474 232 474 227 460 c 128,-1,21
 222 446 222 446 213 426 c 128,-1,22
 204 406 204 406 194 382.5 c 128,-1,23
 184 359 184 359 175 338.5 c 128,-1,24
 166 318 166 318 160 304 c 128,-1,25
 154 290 154 290 155 289 c 0,26,27
 156 287 156 287 170.5 281 c 128,-1,28
 185 275 185 275 202.5 267.5 c 128,-1,29
 220 260 220 260 235 252.5 c 128,-1,30
 250 245 250 245 251 239 c 0,31,32
 252 235 252 235 239 218 c 128,-1,33
 226 201 226 201 206.5 177 c 128,-1,34
 187 153 187 153 164 126 c 128,-1,35
 141 99 141 99 120.5 76 c 128,-1,36
 100 53 100 53 86 38.5 c 128,-1,37
 72 24 72 24 71 25 c 256,0,1
EndSplineSet
EndChar

StartChar: thunder-cloud
Encoding: 9928 9928 63
Width: 600
Flags: W
LayerCount: 2
Fore
SplineSet
430 322 m 0,0,1
 455 322 455 322 477 313 c 128,-1,2
 499 304 499 304 515 288 c 128,-1,3
 531 272 531 272 540.5 250.5 c 128,-1,4
 550 229 550 229 550 205 c 256,5,6
 550 181 550 181 540.5 159.5 c 128,-1,7
 531 138 531 138 515 122 c 128,-1,8
 499 106 499 106 477 97 c 128,-1,9
 455 88 455 88 430 88 c 2,10,-1
 141 88 l 2,11,12
 122 88 122 88 105.5 95 c 128,-1,13
 89 102 89 102 76.5 114 c 128,-1,14
 64 126 64 126 57 142 c 128,-1,15
 50 158 50 158 50 176 c 0,16,17
 50 213 50 213 76.5 239 c 128,-1,18
 103 265 103 265 141 265 c 0,19,20
 143 265 143 265 146 264.5 c 128,-1,21
 149 264 149 264 151 264 c 1,22,23
 150 269 150 269 150 273.5 c 128,-1,24
 150 278 150 278 150 283 c 0,25,26
 150 310 150 310 160.5 333.5 c 128,-1,27
 171 357 171 357 189 375 c 128,-1,28
 207 393 207 393 231 403 c 128,-1,29
 255 413 255 413 283 413 c 0,30,31
 328 413 328 413 363 387 c 128,-1,32
 398 361 398 361 410 320 c 1,33,34
 415 321 415 321 420 321.5 c 128,-1,35
 425 322 425 322 430 322 c 0,0,1
334 214 m 0,36,37
 341 222 341 222 341 229 c 256,38,39
 341 236 341 236 336 239.5 c 128,-1,40
 331 243 331 243 326 245 c 1,41,-1
 324 245 l 1,42,43
 319 247 319 247 313.5 249.5 c 128,-1,44
 308 252 308 252 305 253 c 1,45,-1
 330 311 l 1,46,47
 333 311 333 311 333 321 c 0,48,49
 333 328 333 328 329 330 c 0,50,51
 324 333 324 333 319 330.5 c 128,-1,52
 314 328 314 328 312 326 c 0,53,54
 311 325 311 325 302 315.5 c 128,-1,55
 293 306 293 306 282 294 c 128,-1,56
 271 282 271 282 260 270 c 128,-1,57
 249 258 249 258 244 251 c 0,58,59
 238 242 238 242 238 236 c 0,60,61
 238 229 238 229 243 226 c 128,-1,62
 248 223 248 223 253 221 c 2,63,-1
 255 220 l 2,64,65
 260 218 260 218 265 216 c 128,-1,66
 270 214 270 214 274 212 c 1,67,-1
 248 155 l 2,68,69
 248 154 248 154 247 151 c 128,-1,70
 246 148 246 148 246 144 c 0,71,72
 246 139 246 139 250 135 c 1,73,74
 255 132 255 132 260 134.5 c 128,-1,75
 265 137 265 137 267 140 c 0,76,77
 268 141 268 141 276.5 150 c 128,-1,78
 285 159 285 159 296.5 171 c 128,-1,79
 308 183 308 183 318.5 195.5 c 128,-1,80
 329 208 329 208 334 214 c 0,36,37
EndSplineSet
EndChar

StartChar: droplet
Encoding: 128167 128167 64
Width: 380
Flags: W
LayerCount: 2
Fore
SplineSet
195 486 m 0,0,1
 203 420 203 420 225 376 c 128,-1,2
 247 332 247 332 270.5 297 c 128,-1,3
 294 262 294 262 312 228.5 c 128,-1,4
 330 195 330 195 330 149 c 0,5,6
 330 120 330 120 319 94.5 c 128,-1,7
 308 69 308 69 288.5 50.5 c 128,-1,8
 269 32 269 32 243.5 21 c 128,-1,9
 218 10 218 10 190 10 c 0,10,11
 161 10 161 10 136 21 c 128,-1,12
 111 32 111 32 91.5 50.5 c 128,-1,13
 72 69 72 69 61 94.5 c 128,-1,14
 50 120 50 120 50 149 c 0,15,16
 50 195 50 195 68 228.5 c 128,-1,17
 86 262 86 262 109 297 c 128,-1,18
 132 332 132 332 154.5 376 c 128,-1,19
 177 420 177 420 185 486 c 0,20,21
 186 491 186 491 190.5 491 c 128,-1,22
 195 491 195 491 195 486 c 0,0,1
174 290 m 0,23,24
 175 292 175 292 173 297 c 1,25,26
 170 300 170 300 166 300 c 128,-1,27
 162 300 162 300 160 297 c 0,28,29
 155 290 155 290 150 283 c 128,-1,30
 145 276 145 276 140 268 c 0,31,32
 123 244 123 244 106.5 215.5 c 128,-1,33
 90 187 90 187 90 145 c 0,34,35
 90 133 90 133 98.5 124.5 c 128,-1,36
 107 116 107 116 119 116 c 0,37,38
 130 116 130 116 139 123.5 c 128,-1,39
 148 131 148 131 148 150 c 0,40,41
 148 185 148 185 154.5 215.5 c 128,-1,42
 161 246 161 246 169 273 c 0,43,44
 171 278 171 278 171.5 282 c 128,-1,45
 172 286 172 286 174 290 c 0,23,24
EndSplineSet
EndChar

StartChar: cd
Encoding: 128191 128191 65
Width: 560
Flags: W
LayerCount: 2
Fore
SplineSet
280 480 m 256,0,1
 328 480 328 480 369.5 462 c 128,-1,2
 411 444 411 444 442.5 412.5 c 128,-1,3
 474 381 474 381 492 339.5 c 128,-1,4
 510 298 510 298 510 250 c 256,5,6
 510 202 510 202 492 160.5 c 128,-1,7
 474 119 474 119 442.5 87.5 c 128,-1,8
 411 56 411 56 369.5 38 c 128,-1,9
 328 20 328 20 280 20 c 256,10,11
 232 20 232 20 190.5 38 c 128,-1,12
 149 56 149 56 117.5 87.5 c 128,-1,13
 86 119 86 119 68 160.5 c 128,-1,14
 50 202 50 202 50 250 c 256,15,16
 50 298 50 298 68 339.5 c 128,-1,17
 86 381 86 381 117.5 412.5 c 128,-1,18
 149 444 149 444 190.5 462 c 128,-1,19
 232 480 232 480 280 480 c 256,0,1
280 175 m 0,20,21
 312 175 312 175 333.5 197 c 128,-1,22
 355 219 355 219 355 250 c 0,23,24
 355 282 355 282 333.5 303.5 c 128,-1,25
 312 325 312 325 280 325 c 0,26,27
 249 325 249 325 227 303.5 c 128,-1,28
 205 282 205 282 205 250 c 0,29,30
 205 219 205 219 227 197 c 128,-1,31
 249 175 249 175 280 175 c 0,20,21
EndSplineSet
EndChar

StartChar: briefcase
Encoding: 128188 128188 66
Width: 600
Flags: W
LayerCount: 2
Fore
SplineSet
278 188 m 1,0,-1
 50 188 l 1,1,2
 51 221 51 221 52 249 c 0,3,4
 53 273 53 273 53.5 297 c 128,-1,5
 54 321 54 321 55 334 c 0,6,7
 56 359 56 359 66.5 373.5 c 128,-1,8
 77 388 77 388 105 388 c 2,9,-1
 185 388 l 1,10,11
 195 405 195 405 203.5 422 c 128,-1,12
 212 439 212 439 215 444 c 0,13,14
 222 456 222 456 226.5 459.5 c 128,-1,15
 231 463 231 463 245 463 c 2,16,-1
 356 463 l 2,17,18
 370 463 370 463 374.5 459.5 c 128,-1,19
 379 456 379 456 385 444 c 0,20,21
 388 439 388 439 397 422 c 128,-1,22
 406 405 406 405 415 388 c 1,23,-1
 495 388 l 2,24,25
 523 388 523 388 533.5 373.5 c 128,-1,26
 544 359 544 359 545 334 c 0,27,28
 545 320 545 320 546 296 c 128,-1,29
 547 272 547 272 548 248 c 0,30,31
 549 220 549 220 550 188 c 1,32,-1
 323 188 l 1,33,-1
 323 238 l 1,34,-1
 278 238 l 1,35,-1
 278 188 l 1,0,-1
241 415 m 0,36,37
 239 412 239 412 235.5 404.5 c 128,-1,38
 232 397 232 397 227 388 c 1,39,-1
 373 388 l 1,40,41
 368 397 368 397 364.5 404.5 c 128,-1,42
 361 412 361 412 359 415 c 0,43,44
 354 423 354 423 351 425.5 c 128,-1,45
 348 428 348 428 338 428 c 2,46,-1
 262 428 l 2,47,48
 252 428 252 428 249 425.5 c 128,-1,49
 246 423 246 423 241 415 c 0,36,37
323 163 m 1,50,-1
 538 163 l 1,51,52
 537 150 537 150 536 136 c 0,53,54
 535 124 535 124 534.5 109 c 128,-1,55
 534 94 534 94 533 80 c 0,56,57
 533 74 533 74 531 66.5 c 128,-1,58
 529 59 529 59 524.5 53 c 128,-1,59
 520 47 520 47 511.5 42.5 c 128,-1,60
 503 38 503 38 488 38 c 2,61,-1
 113 38 l 2,62,63
 98 38 98 38 89 42.5 c 128,-1,64
 80 47 80 47 75.5 53 c 128,-1,65
 71 59 71 59 69.5 66.5 c 128,-1,66
 68 74 68 74 68 80 c 0,67,68
 67 94 67 94 66.5 109 c 128,-1,69
 66 124 66 124 65 136 c 0,70,71
 64 150 64 150 63 163 c 1,72,-1
 278 163 l 1,73,-1
 278 113 l 1,74,-1
 323 113 l 1,75,-1
 323 163 l 1,50,-1
EndSplineSet
EndChar

StartChar: area-graph
Encoding: 128318 128318 67
Width: 590
Flags: W
LayerCount: 2
Fore
SplineSet
532 441 m 1,0,1
 540 452 540 452 540 439 c 2,2,-1
 540 55 l 1,3,-1
 58 55 l 2,4,5
 52 55 52 55 50.5 58.5 c 128,-1,6
 49 62 49 62 53 67 c 2,7,-1
 168 211 l 2,8,9
 172 216 172 216 177.5 216.5 c 128,-1,10
 183 217 183 217 188 212 c 2,11,-1
 225 179 l 2,12,13
 230 174 230 174 235.5 175 c 128,-1,14
 241 176 241 176 244 181 c 2,15,-1
 323 300 l 2,16,17
 326 305 326 305 331.5 306 c 128,-1,18
 337 307 337 307 342 302 c 2,19,-1
 398 250 l 2,20,21
 408 240 408 240 417 252 c 1,22,-1
 532 441 l 1,23,-1
 532 441 l 1,0,1
EndSplineSet
EndChar

StartChar: hourglass
Encoding: 9203 9203 68
Width: 380
Flags: W
LayerCount: 2
Fore
SplineSet
330 386 m 2,0,1
 330 366 330 366 315 347.5 c 128,-1,2
 300 329 300 329 281.5 312 c 128,-1,3
 263 295 263 295 248 279.5 c 128,-1,4
 233 264 233 264 233 250 c 256,5,6
 233 236 233 236 248 220.5 c 128,-1,7
 263 205 263 205 281.5 188.5 c 128,-1,8
 300 172 300 172 315 153.5 c 128,-1,9
 330 135 330 135 330 115 c 2,10,-1
 330 56 l 2,11,12
 330 48 330 48 319 38.5 c 128,-1,13
 308 29 308 29 289 20.5 c 128,-1,14
 270 12 270 12 244.5 6 c 128,-1,15
 219 0 219 0 190 0 c 256,16,17
 161 0 161 0 135.5 6 c 128,-1,18
 110 12 110 12 91 20.5 c 128,-1,19
 72 29 72 29 61 38.5 c 128,-1,20
 50 48 50 48 50 56 c 2,21,-1
 50 115 l 2,22,23
 50 135 50 135 65 153.5 c 128,-1,24
 80 172 80 172 98.5 188.5 c 128,-1,25
 117 205 117 205 132 220.5 c 128,-1,26
 147 236 147 236 147 250 c 256,27,28
 147 264 147 264 132 279.5 c 128,-1,29
 117 295 117 295 98.5 312 c 128,-1,30
 80 329 80 329 65 347.5 c 128,-1,31
 50 366 50 366 50 386 c 2,32,-1
 50 445 l 2,33,34
 50 452 50 452 61 461.5 c 128,-1,35
 72 471 72 471 91 479.5 c 128,-1,36
 110 488 110 488 135.5 494 c 128,-1,37
 161 500 161 500 190 500 c 256,38,39
 219 500 219 500 244.5 494 c 128,-1,40
 270 488 270 488 289 479.5 c 128,-1,41
 308 471 308 471 319 461.5 c 128,-1,42
 330 452 330 452 330 445 c 2,43,-1
 330 386 l 2,0,1
89 442 m 0,44,45
 85 440 85 440 82 437 c 0,46,47
 76 431 76 431 82 428 c 0,48,49
 98 419 98 419 126.5 410.5 c 128,-1,50
 155 402 155 402 190 402 c 0,51,52
 226 402 226 402 255 410 c 128,-1,53
 284 418 284 418 300 427 c 0,54,55
 307 432 307 432 300.5 436 c 128,-1,56
 294 440 294 440 292 442 c 0,57,58
 278 449 278 449 261 455 c 0,59,60
 247 460 247 460 229 464.5 c 128,-1,61
 211 469 211 469 191 469 c 0,62,63
 152 469 152 469 127 459.5 c 128,-1,64
 102 450 102 450 89 442 c 0,44,45
203 250 m 0,65,66
 203 273 203 273 218.5 289 c 128,-1,67
 234 305 234 305 254 325 c 0,68,69
 261 332 261 332 269 340 c 128,-1,70
 277 348 277 348 284 356 c 128,-1,71
 291 364 291 364 295.5 372 c 128,-1,72
 300 380 300 380 300 386 c 2,73,-1
 301 411 l 1,74,75
 281 400 281 400 252 392 c 128,-1,76
 223 384 223 384 190 384 c 256,77,78
 157 384 157 384 128 392 c 128,-1,79
 99 400 99 400 79 411 c 1,80,-1
 81 386 l 1,81,82
 81 373 81 373 96.5 356 c 128,-1,83
 112 339 112 339 126 325 c 0,84,85
 146 305 146 305 162 289 c 128,-1,86
 178 273 178 273 178 250 c 0,87,88
 178 228 178 228 162 211.5 c 128,-1,89
 146 195 146 195 126 176 c 0,90,91
 119 169 119 169 111 161 c 128,-1,92
 103 153 103 153 96.5 144.5 c 128,-1,93
 90 136 90 136 85.5 128.5 c 128,-1,94
 81 121 81 121 81 115 c 2,95,-1
 81 82 l 1,96,97
 90 86 90 86 106 91 c 128,-1,98
 122 96 122 96 138 103 c 128,-1,99
 154 110 154 110 165.5 120 c 128,-1,100
 177 130 177 130 177 144 c 0,101,102
 177 151 177 151 181 155 c 128,-1,103
 185 159 185 159 190 159 c 128,-1,104
 195 159 195 159 199 155 c 128,-1,105
 203 151 203 151 203 144 c 0,106,107
 203 130 203 130 214.5 120 c 128,-1,108
 226 110 226 110 242 103 c 128,-1,109
 258 96 258 96 274.5 91 c 128,-1,110
 291 86 291 86 300 82 c 1,111,-1
 300 115 l 2,112,113
 300 121 300 121 295.5 128.5 c 128,-1,114
 291 136 291 136 284 144.5 c 128,-1,115
 277 153 277 153 269 161 c 128,-1,116
 261 169 261 169 254 176 c 0,117,118
 234 195 234 195 218.5 211.5 c 128,-1,119
 203 228 203 228 203 250 c 0,65,66
EndSplineSet
EndChar

StartChar: gauge
Encoding: 128711 128711 69
Width: 600
Flags: W
LayerCount: 2
Fore
SplineSet
253 164 m 0,0,1
 257 171 257 171 273.5 193.5 c 128,-1,2
 290 216 290 216 311.5 244 c 128,-1,3
 333 272 333 272 357.5 303 c 128,-1,4
 382 334 382 334 403.5 360 c 128,-1,5
 425 386 425 386 439.5 401.5 c 128,-1,6
 454 417 454 417 457 416 c 0,7,8
 459 415 459 415 452.5 394 c 128,-1,9
 446 373 446 373 434.5 342 c 128,-1,10
 423 311 423 311 408.5 274.5 c 128,-1,11
 394 238 394 238 380 204.5 c 128,-1,12
 366 171 366 171 355 146 c 128,-1,13
 344 121 344 121 340 114 c 0,14,15
 327 91 327 91 308.5 88 c 128,-1,16
 290 85 290 85 272 96 c 256,17,18
 254 107 254 107 247 124 c 128,-1,19
 240 141 240 141 253 164 c 0,0,1
300 354 m 0,20,21
 258 354 258 354 221.5 337 c 128,-1,22
 185 320 185 320 158 290.5 c 128,-1,23
 131 261 131 261 115.5 221 c 128,-1,24
 100 181 100 181 100 135 c 0,25,26
 100 129 100 129 100 123.5 c 128,-1,27
 100 118 100 118 101 112 c 0,28,29
 102 101 102 101 95.5 93.5 c 128,-1,30
 89 86 89 86 78 85 c 0,31,32
 68 84 68 84 60.5 90.5 c 128,-1,33
 53 97 53 97 51 108 c 1,34,35
 51 115 51 115 50.5 121.5 c 128,-1,36
 50 128 50 128 50 135 c 0,37,38
 50 192 50 192 69.5 241 c 128,-1,39
 89 290 89 290 122.5 326 c 128,-1,40
 156 362 156 362 201.5 383 c 128,-1,41
 247 404 247 404 300 404 c 0,42,43
 335 404 335 404 367 395 c 1,44,45
 358 384 358 384 349 373 c 128,-1,46
 340 362 340 362 332 352 c 1,47,48
 324 353 324 353 316 353.5 c 128,-1,49
 308 354 308 354 300 354 c 0,20,21
481 323 m 1,50,51
 513 287 513 287 531.5 239 c 128,-1,52
 550 191 550 191 550 135 c 0,53,54
 550 128 550 128 550 121 c 128,-1,55
 550 114 550 114 549 107 c 0,56,57
 548 97 548 97 541 90.5 c 128,-1,58
 534 84 534 84 524 84 c 2,59,-1
 522 84 l 1,60,61
 511 86 511 86 504.5 93.5 c 128,-1,62
 498 101 498 101 499 112 c 0,63,64
 500 117 500 117 500 123 c 128,-1,65
 500 129 500 129 500 135 c 0,66,67
 500 173 500 173 489.5 207 c 128,-1,68
 479 241 479 241 460 269 c 1,69,70
 465 281 465 281 470.5 295 c 128,-1,71
 476 309 476 309 481 323 c 1,50,51
EndSplineSet
EndChar

StartChar: language
Encoding: 127892 127892 70
Width: 601
Flags: W
LayerCount: 2
Fore
SplineSet
544 228 m 0,0,1
 559 186 559 186 539.5 139.5 c 128,-1,2
 520 93 520 93 472 60 c 0,3,4
 471 60 471 60 469.5 59.5 c 128,-1,5
 468 59 468 59 466 61 c 256,6,7
 464 63 464 63 458 70.5 c 128,-1,8
 452 78 452 78 450 80 c 1,9,10
 449 83 449 83 451 85 c 0,11,12
 473 100 473 100 488 120 c 128,-1,13
 503 140 503 140 510 161 c 128,-1,14
 517 182 517 182 515.5 201.5 c 128,-1,15
 514 221 514 221 504 235 c 1,16,17
 498 219 498 219 485.5 197.5 c 128,-1,18
 473 176 473 176 455 156.5 c 128,-1,19
 437 137 437 137 413 125 c 128,-1,20
 389 113 389 113 359 117 c 0,21,22
 333 120 333 120 317 137 c 128,-1,23
 301 154 301 154 301 184 c 0,24,25
 301 226 301 226 331 258 c 0,26,27
 340 267 340 267 354 276.5 c 128,-1,28
 368 286 368 286 388 291 c 1,29,-1
 387 341 l 1,30,31
 368 338 368 338 352 335 c 0,32,33
 338 333 338 333 326.5 331 c 128,-1,34
 315 329 315 329 314 329 c 0,35,36
 311 328 311 328 309 331 c 0,37,38
 309 332 309 332 308 336 c 128,-1,39
 307 340 307 340 306.5 345.5 c 128,-1,40
 306 351 306 351 305 355.5 c 128,-1,41
 304 360 304 360 304 361 c 0,42,43
 303 363 303 363 304.5 363.5 c 128,-1,44
 306 364 306 364 308 364 c 0,45,46
 309 364 309 364 321.5 366.5 c 128,-1,47
 334 369 334 369 348 371 c 0,48,49
 365 374 365 374 386 378 c 1,50,-1
 386 406 l 2,51,52
 386 417 386 417 385.5 425.5 c 128,-1,53
 385 434 385 434 385 435 c 0,54,55
 385 439 385 439 389 439 c 0,56,57
 391 439 391 439 402 439 c 128,-1,58
 413 439 413 439 415 440 c 1,59,60
 420 440 420 440 420 436 c 2,61,-1
 420 384 l 1,62,63
 442 386 442 386 460 389 c 0,64,65
 475 391 475 391 487.5 393 c 128,-1,66
 500 395 500 395 502 395 c 0,67,68
 506 397 506 397 507 392 c 0,69,70
 507 390 507 390 509 380 c 128,-1,71
 511 370 511 370 511 368 c 0,72,73
 513 363 513 363 509 362 c 0,74,75
 507 362 507 362 494 359.5 c 128,-1,76
 481 357 481 357 464 354 c 0,77,78
 445 350 445 350 421 347 c 1,79,-1
 421 296 l 1,80,-1
 427 296 l 2,81,82
 471 296 471 296 501.5 278 c 128,-1,83
 532 260 532 260 544 228 c 0,0,1
359 148 m 1,84,85
 367 146 367 146 375 147.5 c 128,-1,86
 383 149 383 149 390 151 c 1,87,-1
 388 258 l 1,88,89
 371 252 371 252 358 238 c 0,90,91
 347 227 347 227 341.5 212.5 c 128,-1,92
 336 198 336 198 336 184 c 0,93,94
 336 174 336 174 338.5 162 c 128,-1,95
 341 150 341 150 359 148 c 1,84,85
420 162 m 1,96,97
 431 172 431 172 442 187 c 128,-1,98
 453 202 453 202 461.5 216.5 c 128,-1,99
 470 231 470 231 474 242.5 c 128,-1,100
 478 254 478 254 475 256 c 0,101,102
 467 260 467 260 454.5 262.5 c 128,-1,103
 442 265 442 265 427 265 c 0,104,105
 425 265 425 265 424 264.5 c 128,-1,106
 423 264 423 264 421 264 c 1,107,-1
 420 162 l 1,96,97
196 353 m 1,108,109
 199 345 199 345 206.5 321.5 c 128,-1,110
 214 298 214 298 223.5 267.5 c 128,-1,111
 233 237 233 237 243.5 203.5 c 128,-1,112
 254 170 254 170 263 142 c 128,-1,113
 272 114 272 114 278 95.5 c 128,-1,114
 284 77 284 77 284 77 c 2,115,116
 284 75 284 75 282 75 c 2,117,-1
 239 75 l 2,118,119
 236 75 236 75 236 77 c 0,120,121
 234 83 234 83 232 90 c 0,122,123
 228 101 228 101 223 119 c 256,124,125
 218 137 218 137 211 160 c 1,126,-1
 123 160 l 1,127,128
 116 137 116 137 111 119 c 0,129,130
 109 111 109 111 106.5 103.5 c 128,-1,131
 104 96 104 96 102 90 c 0,132,133
 99 83 99 83 98 77 c 0,134,135
 98 75 98 75 95 75 c 2,136,-1
 52 75 l 2,137,138
 50 75 50 75 50 77 c 2,139,140
 50 77 50 77 56 95.5 c 128,-1,141
 62 114 62 114 71 142 c 128,-1,142
 80 170 80 170 90.5 203.5 c 128,-1,143
 101 237 101 237 111 267.5 c 128,-1,144
 121 298 121 298 128 321.5 c 128,-1,145
 135 345 135 345 138 353 c 0,146,147
 139 357 139 357 143 357 c 2,148,-1
 191 357 l 2,149,150
 196 357 196 357 196 353 c 1,108,109
203 195 m 1,151,-1
 167 327 l 1,152,-1
 131 195 l 1,153,-1
 203 195 l 1,151,-1
EndSplineSet
EndChar

StartChar: network
Encoding: 59254 59254 71
Width: 560
Flags: W
LayerCount: 2
Fore
SplineSet
162 327 m 0,0,1
 151 327 151 327 141 322 c 1,2,3
 127 336 127 336 116 352.5 c 128,-1,4
 105 369 105 369 95 386 c 1,5,6
 108 403 108 403 124 418.5 c 128,-1,7
 140 434 140 434 159 445 c 1,8,9
 179 437 179 437 198.5 427 c 128,-1,10
 218 417 218 417 235 404 c 1,11,12
 232 396 232 396 232 388 c 0,13,14
 232 385 232 385 232.5 382.5 c 128,-1,15
 233 380 233 380 234 377 c 1,16,17
 203 353 203 353 176 325 c 1,18,19
 168 327 168 327 162 327 c 0,0,1
113 278 m 0,20,21
 113 261 113 261 123 248 c 1,22,23
 109 221 109 221 98.5 192 c 128,-1,24
 88 163 88 163 83 132 c 1,25,26
 50 185 50 185 50 250 c 0,27,28
 50 305 50 305 75 353 c 1,29,30
 94 322 94 322 117 297 c 1,31,32
 115 292 115 292 114 287.5 c 128,-1,33
 113 283 113 283 113 278 c 0,20,21
281 437 m 0,34,35
 267 437 267 437 256 430 c 1,36,37
 227 451 227 451 199 465 c 1,38,39
 218 472 218 472 238.5 476 c 128,-1,40
 259 480 259 480 280 480 c 0,41,42
 312 480 312 480 340.5 471.5 c 128,-1,43
 369 463 369 463 395 449 c 1,44,45
 374 445 374 445 354 438.5 c 128,-1,46
 334 432 334 432 314 424 c 1,47,48
 301 437 301 437 281 437 c 0,34,35
354 207 m 1,49,50
 274 219 274 219 209 263 c 1,51,52
 211 273 211 273 211 278 c 0,53,54
 211 290 211 290 204 304 c 1,55,56
 215 316 215 316 227 327 c 128,-1,57
 239 338 239 338 253 349 c 1,58,59
 266 339 266 339 281 339 c 0,60,61
 286 339 286 339 290.5 340 c 128,-1,62
 295 341 295 341 300 343 c 1,63,64
 347 289 347 289 367 223 c 1,65,66
 359 216 359 216 354 207 c 1,49,50
418 141 m 1,67,68
 437 148 437 148 445 171 c 1,69,70
 474 173 474 173 499 180 c 1,71,72
 476 107 476 107 416 64 c 1,73,74
 419 88 419 88 419 113 c 0,75,76
 419 120 419 120 418.5 127 c 128,-1,77
 418 134 418 134 418 141 c 1,67,68
343 174 m 1,78,79
 295 150 295 150 257 115.5 c 128,-1,80
 219 81 219 81 191 38 c 1,81,82
 146 56 146 56 112 93 c 1,83,84
 118 165 118 165 152 230 c 1,85,86
 155 229 155 229 162 229 c 0,87,88
 177 229 177 229 188 236 c 1,89,90
 222 213 222 213 261 197 c 128,-1,91
 300 181 300 181 343 174 c 1,78,79
435 420 m 1,92,93
 470 388 470 388 490 344.5 c 128,-1,94
 510 301 510 301 510 250 c 0,95,96
 510 242 510 242 509.5 233.5 c 128,-1,97
 509 225 509 225 508 217 c 1,98,99
 476 208 476 208 443 205 c 1,100,101
 438 218 438 218 426 226 c 128,-1,102
 414 234 414 234 399 235 c 1,103,104
 375 308 375 308 325 367 c 1,105,106
 330 377 330 377 330 388 c 2,107,-1
 330 393 l 1,108,109
 379 414 379 414 435 420 c 1,92,93
367 148 m 1,110,111
 373 143 373 143 383 139 c 1,112,113
 384 132 384 132 384 126 c 128,-1,114
 384 120 384 120 384 113 c 0,115,116
 384 73 384 73 377 41 c 1,117,118
 333 20 333 20 280 20 c 0,119,120
 251 20 251 20 224 26 c 1,121,122
 279 106 279 106 367 148 c 1,110,111
EndSplineSet
EndChar

StartChar: key
Encoding: 128273 128273 72
Width: 490
Flags: W
LayerCount: 2
Fore
SplineSet
437 381 m 256,0,1
 442 353 442 353 438.5 325.5 c 128,-1,2
 435 298 435 298 424 275 c 128,-1,3
 413 252 413 252 394 236 c 128,-1,4
 375 220 375 220 348 215 c 0,5,6
 335 213 335 213 316.5 212.5 c 128,-1,7
 298 212 298 212 283 214 c 1,8,-1
 224 117 l 1,9,-1
 189 111 l 1,10,-1
 137 28 l 2,11,12
 134 22 134 22 127 17.5 c 128,-1,13
 120 13 120 13 114 12 c 2,14,-1
 76 5 l 2,15,16
 70 3 70 3 65 7 c 128,-1,17
 60 11 60 11 59 18 c 2,18,-1
 51 67 l 1,19,20
 49 73 49 73 51 81.5 c 128,-1,21
 53 90 53 90 57 95 c 2,22,-1
 186 288 l 1,23,24
 179 302 179 302 174 319 c 128,-1,25
 169 336 169 336 167 348 c 0,26,27
 162 376 162 376 170 400 c 128,-1,28
 178 424 178 424 194.5 443 c 128,-1,29
 211 462 211 462 235 474.5 c 128,-1,30
 259 487 259 487 286 492 c 256,31,32
 313 497 313 497 338 491 c 128,-1,33
 363 485 363 485 383.5 470 c 128,-1,34
 404 455 404 455 418 432 c 128,-1,35
 432 409 432 409 437 381 c 256,0,1
374 343 m 0,36,37
 389 365 389 365 384.5 391.5 c 128,-1,38
 380 418 380 418 359 433 c 0,39,40
 338 449 338 449 313 444.5 c 128,-1,41
 288 440 288 440 273 417 c 0,42,43
 265 406 265 406 265.5 398 c 128,-1,44
 266 390 266 390 272 383 c 128,-1,45
 278 376 278 376 287 369.5 c 128,-1,46
 296 363 296 363 307 355 c 0,47,48
 317 347 317 347 326.5 340.5 c 128,-1,49
 336 334 336 334 344 331 c 128,-1,50
 352 328 352 328 359.5 330 c 128,-1,51
 367 332 367 332 374 343 c 0,36,37
EndSplineSet
EndChar

StartChar: battery
Encoding: 128267 128267 73
Width: 600
Flags: W
LayerCount: 2
Fore
SplineSet
435 250 m 0,0,1
 435 197 435 197 454 169.5 c 128,-1,2
 473 142 473 142 492 142 c 2,3,-1
 525 142 l 1,4,5
 519 132 519 132 512.5 124 c 128,-1,6
 506 116 506 116 496 111 c 128,-1,7
 486 106 486 106 471.5 103 c 128,-1,8
 457 100 457 100 434 100 c 2,9,-1
 184 100 l 2,10,11
 149 100 149 100 123.5 114.5 c 128,-1,12
 98 129 98 129 81.5 151 c 128,-1,13
 65 173 65 173 57.5 199.5 c 128,-1,14
 50 226 50 226 50 250 c 256,15,16
 50 274 50 274 57.5 300 c 128,-1,17
 65 326 65 326 81.5 348.5 c 128,-1,18
 98 371 98 371 123.5 385.5 c 128,-1,19
 149 400 149 400 184 400 c 2,20,-1
 434 400 l 2,21,22
 457 400 457 400 471.5 397 c 128,-1,23
 486 394 486 394 496 388.5 c 128,-1,24
 506 383 506 383 512.5 375.5 c 128,-1,25
 519 368 519 368 525 358 c 1,26,-1
 492 358 l 2,27,28
 473 358 473 358 454 330 c 128,-1,29
 435 302 435 302 435 250 c 0,0,1
367 205 m 1,30,31
 370 209 370 209 367 214 c 1,32,-1
 363 218 l 2,33,34
 344 236 344 236 326 253 c 0,35,36
 311 267 311 267 296.5 280.5 c 128,-1,37
 282 294 282 294 274 300 c 0,38,39
 257 311 257 311 252 304.5 c 128,-1,40
 247 298 247 298 243 289 c 0,41,42
 241 284 241 284 239.5 280 c 128,-1,43
 238 276 238 276 236 271 c 256,44,45
 234 266 234 266 232 261 c 1,46,-1
 158 294 l 2,47,48
 155 295 155 295 151 296 c 0,49,50
 144 298 144 298 141 294 c 0,51,52
 138 288 138 288 141 284 c 1,53,54
 142 281 142 281 145 280 c 1,55,56
 164 261 164 261 182 245 c 0,57,58
 197 231 197 231 212 217.5 c 128,-1,59
 227 204 227 204 235 199 c 0,60,61
 251 188 251 188 256 194 c 128,-1,62
 261 200 261 200 265 209 c 0,63,64
 267 214 267 214 269 218.5 c 128,-1,65
 271 223 271 223 273 228 c 256,66,67
 275 233 275 233 277 238 c 1,68,-1
 350 204 l 2,69,70
 353 203 353 203 357 202 c 0,71,72
 365 200 365 200 367 205 c 1,30,31
522 301 m 2,73,74
 533 301 533 301 541.5 288 c 128,-1,75
 550 275 550 275 550 252 c 256,76,77
 550 229 550 229 541.5 215.5 c 128,-1,78
 533 202 533 202 522 202 c 2,79,-1
 503 202 l 2,80,81
 492 202 492 202 484 215.5 c 128,-1,82
 476 229 476 229 476 252 c 256,83,84
 476 275 476 275 484 288 c 128,-1,85
 492 301 492 301 503 301 c 2,86,-1
 522 301 l 2,73,74
EndSplineSet
EndChar

StartChar: bucket
Encoding: 128254 128254 74
Width: 558
Flags: W
LayerCount: 2
Fore
SplineSet
312 465 m 256,0,1
 358 465 358 465 395 457.5 c 128,-1,2
 432 450 432 450 457.5 439 c 128,-1,3
 483 428 483 428 496 414.5 c 128,-1,4
 509 401 509 401 507 388 c 0,5,6
 506 379 506 379 502 355 c 128,-1,7
 498 331 498 331 493 299.5 c 128,-1,8
 488 268 488 268 482.5 233.5 c 128,-1,9
 477 199 477 199 472.5 169 c 128,-1,10
 468 139 468 139 464.5 118 c 128,-1,11
 461 97 461 97 461 94 c 0,12,13
 460 88 460 88 449.5 78.5 c 128,-1,14
 439 69 439 69 419.5 59 c 128,-1,15
 400 49 400 49 373 42 c 128,-1,16
 346 35 346 35 312 35 c 0,17,18
 279 35 279 35 252 42 c 128,-1,19
 225 49 225 49 205.5 59 c 128,-1,20
 186 69 186 69 175.5 78.5 c 128,-1,21
 165 88 165 88 164 94 c 0,22,23
 163 97 163 97 163 100 c 128,-1,24
 163 103 163 103 162 109 c 1,25,26
 204 106 204 106 244 126.5 c 128,-1,27
 284 147 284 147 313 185 c 1,28,29
 327 185 327 185 337 195 c 128,-1,30
 347 205 347 205 347 220 c 0,31,32
 347 234 347 234 337 244.5 c 128,-1,33
 327 255 327 255 312 255 c 0,34,35
 298 255 298 255 287.5 244.5 c 128,-1,36
 277 234 277 234 277 220 c 0,37,38
 277 210 277 210 282 202 c 1,39,40
 258 173 258 173 224.5 157.5 c 128,-1,41
 191 142 191 142 159 144 c 0,42,43
 105 149 105 149 79 174 c 128,-1,44
 53 199 53 199 51 227 c 0,45,46
 49 250 49 250 66 276 c 128,-1,47
 83 302 83 302 129 319 c 1,48,49
 124 344 124 344 121.5 362.5 c 128,-1,50
 119 381 119 381 118 388 c 0,51,52
 116 401 116 401 129 414.5 c 128,-1,53
 142 428 142 428 167.5 439 c 128,-1,54
 193 450 193 450 229.5 457.5 c 128,-1,55
 266 465 266 465 312 465 c 256,0,1
86 230 m 0,56,57
 88 215 88 215 104 201 c 128,-1,58
 120 187 120 187 150 181 c 1,59,60
 146 205 146 205 142 231.5 c 128,-1,61
 138 258 138 258 134 283 c 1,62,63
 106 271 106 271 95.5 256.5 c 128,-1,64
 85 242 85 242 86 230 c 0,56,57
312 336 m 0,65,66
 346 336 346 336 374 341.5 c 128,-1,67
 402 347 402 347 422.5 354.5 c 128,-1,68
 443 362 443 362 454.5 369.5 c 128,-1,69
 466 377 466 377 466 382 c 256,70,71
 466 387 466 387 454.5 394.5 c 128,-1,72
 443 402 443 402 422.5 409.5 c 128,-1,73
 402 417 402 417 374 422.5 c 128,-1,74
 346 428 346 428 312 428 c 0,75,76
 279 428 279 428 250.5 422.5 c 128,-1,77
 222 417 222 417 202 409.5 c 128,-1,78
 182 402 182 402 170.5 394.5 c 128,-1,79
 159 387 159 387 159 382 c 256,80,81
 159 377 159 377 170.5 369.5 c 128,-1,82
 182 362 182 362 202 354.5 c 128,-1,83
 222 347 222 347 250.5 341.5 c 128,-1,84
 279 336 279 336 312 336 c 0,65,66
EndSplineSet
EndChar

StartChar: magnet
Encoding: 59297 59297 75
Width: 510
Flags: W
LayerCount: 2
Fore
SplineSet
317 135 m 1,0,-1
 447 125 l 1,1,-1
 439 42 l 2,2,3
 438 37 438 37 433.5 33 c 128,-1,4
 429 29 429 29 423 30 c 2,5,-1
 323 38 l 2,6,7
 317 38 317 38 313 42.5 c 128,-1,8
 309 47 309 47 309 53 c 2,9,-1
 317 135 l 1,0,-1
193 135 m 1,10,-1
 201 53 l 2,11,12
 202 47 202 47 198 42.5 c 128,-1,13
 194 38 194 38 187 38 c 2,14,-1
 88 30 l 2,15,16
 82 29 82 29 77 33 c 128,-1,17
 72 37 72 37 72 42 c 2,18,-1
 64 125 l 1,19,-1
 193 135 l 1,10,-1
51 260 m 2,20,21
 50 265 50 265 50 268.5 c 128,-1,22
 50 272 50 272 50 277 c 0,23,24
 50 317 50 317 66 352 c 128,-1,25
 82 387 82 387 110 413 c 128,-1,26
 138 439 138 439 175.5 454.5 c 128,-1,27
 213 470 213 470 255 470 c 256,28,29
 297 470 297 470 334.5 454.5 c 128,-1,30
 372 439 372 439 400 413 c 128,-1,31
 428 387 428 387 444 352 c 128,-1,32
 460 317 460 317 460 277 c 0,33,34
 460 272 460 272 460 268.5 c 128,-1,35
 460 265 460 265 459 260 c 2,36,-1
 451 175 l 1,37,-1
 322 186 l 1,38,-1
 330 271 l 1,39,-1
 330 277 l 2,40,41
 330 306 330 306 308.5 326.5 c 128,-1,42
 287 347 287 347 255 347 c 0,43,44
 224 347 224 347 202 326.5 c 128,-1,45
 180 306 180 306 180 277 c 2,46,-1
 180 271 l 1,47,-1
 188 186 l 1,48,-1
 59 175 l 1,49,-1
 51 260 l 2,20,21
EndSplineSet
EndChar

StartChar: drive
Encoding: 128253 128253 76
Width: 551
Flags: W
LayerCount: 2
Fore
SplineSet
492 227 m 1,0,1
 497 218 497 218 499 204 c 128,-1,2
 501 190 501 190 499 179 c 2,3,-1
 482 87 l 2,4,5
 480 76 480 76 472 69 c 128,-1,6
 464 62 464 62 453 62 c 2,7,-1
 97 62 l 2,8,9
 87 62 87 62 78.5 69 c 128,-1,10
 70 76 70 76 68 87 c 2,11,-1
 51 179 l 2,12,13
 49 190 49 190 51 204 c 128,-1,14
 53 218 53 218 58 227 c 1,15,-1
 137 414 l 2,16,17
 142 424 142 424 152.5 430.5 c 128,-1,18
 163 437 163 437 173 437 c 2,19,-1
 377 437 l 2,20,21
 388 437 388 437 398.5 430.5 c 128,-1,22
 409 424 409 424 414 414 c 2,23,-1
 492 227 l 1,0,1
458 161 m 2,24,25
 460 172 460 172 453.5 180 c 128,-1,26
 447 188 447 188 436 188 c 2,27,-1
 114 188 l 2,28,29
 103 188 103 188 96.5 180 c 128,-1,30
 90 172 90 172 92 161 c 2,31,-1
 99 124 l 2,32,33
 101 113 101 113 109 105.5 c 128,-1,34
 117 98 117 98 128 98 c 2,35,-1
 423 98 l 2,36,37
 434 98 434 98 442 105.5 c 128,-1,38
 450 113 450 113 452 124 c 2,39,-1
 458 161 l 2,24,25
EndSplineSet
EndChar

StartChar: cup
Encoding: 9749 9749 77
Width: 442
Flags: W
LayerCount: 2
Fore
SplineSet
221 455 m 256,0,1
 261 455 261 455 293 449 c 128,-1,2
 325 443 325 443 347.5 433.5 c 128,-1,3
 370 424 370 424 381 412.5 c 128,-1,4
 392 401 392 401 391 391 c 2,5,-1
 355 94 l 2,6,7
 355 89 355 89 345 81 c 128,-1,8
 335 73 335 73 317 65 c 128,-1,9
 299 57 299 57 274.5 51 c 128,-1,10
 250 45 250 45 221 45 c 256,11,12
 192 45 192 45 167.5 51 c 128,-1,13
 143 57 143 57 125.5 65 c 128,-1,14
 108 73 108 73 98 81 c 128,-1,15
 88 89 88 89 87 94 c 2,16,-1
 51 391 l 2,17,18
 50 401 50 401 61.5 412.5 c 128,-1,19
 73 424 73 424 95 433.5 c 128,-1,20
 117 443 117 443 149 449 c 128,-1,21
 181 455 181 455 221 455 c 256,0,1
221 347 m 256,22,23
 250 347 250 347 274.5 351.5 c 128,-1,24
 299 356 299 356 317 362.5 c 128,-1,25
 335 369 335 369 345 375.5 c 128,-1,26
 355 382 355 382 355 386 c 256,27,28
 355 390 355 390 345 396.5 c 128,-1,29
 335 403 335 403 317 409 c 128,-1,30
 299 415 299 415 274.5 419.5 c 128,-1,31
 250 424 250 424 221 424 c 256,32,33
 192 424 192 424 167.5 419.5 c 128,-1,34
 143 415 143 415 125 409 c 128,-1,35
 107 403 107 403 97 396.5 c 128,-1,36
 87 390 87 390 87 386 c 256,37,38
 87 382 87 382 97 375.5 c 128,-1,39
 107 369 107 369 125 362.5 c 128,-1,40
 143 356 143 356 167.5 351.5 c 128,-1,41
 192 347 192 347 221 347 c 256,22,23
EndSplineSet
EndChar

StartChar: rocket
Encoding: 128640 128640 78
Width: 531
Flags: W
LayerCount: 2
Fore
SplineSet
322 193 m 1,0,1
 326 152 326 152 323.5 130 c 128,-1,2
 321 108 321 108 307.5 94.5 c 128,-1,3
 294 81 294 81 267.5 70 c 128,-1,4
 241 59 241 59 198 40 c 0,5,6
 181 33 181 33 175 41.5 c 128,-1,7
 169 50 169 50 174 64 c 0,8,9
 176 70 176 70 179.5 79.5 c 128,-1,10
 183 89 183 89 186 98 c 0,11,12
 190 109 190 109 194 119 c 1,13,-1
 129 185 l 1,14,15
 118 181 118 181 108 177 c 0,16,17
 100 174 100 174 91 170.5 c 128,-1,18
 82 167 82 167 76 165 c 0,19,20
 63 160 63 160 54.5 166 c 128,-1,21
 46 172 46 172 53 189 c 0,22,23
 71 233 71 233 81.5 260 c 128,-1,24
 92 287 92 287 105.5 301 c 128,-1,25
 119 315 119 315 140 317.5 c 128,-1,26
 161 320 161 320 202 315 c 1,27,28
 239 365 239 365 282 403 c 0,29,30
 300 419 300 419 321.5 434 c 128,-1,31
 343 449 343 449 367 459.5 c 128,-1,32
 391 470 391 470 416.5 475 c 128,-1,33
 442 480 442 480 469 476 c 0,34,35
 473 476 473 476 476 473 c 0,36,37
 478 471 478 471 479 466 c 0,38,39
 482 439 482 439 477.5 412.5 c 128,-1,40
 473 386 473 386 462.5 362 c 128,-1,41
 452 338 452 338 438 316 c 128,-1,42
 424 294 424 294 408 275 c 0,43,44
 371 231 371 231 322 193 c 1,0,1
347 341 m 0,45,46
 358 330 358 330 374 330 c 128,-1,47
 390 330 390 330 401 341 c 0,48,49
 412 353 412 353 412 369 c 128,-1,50
 412 385 412 385 401 397 c 0,51,52
 390 408 390 408 374 408 c 128,-1,53
 358 408 358 408 347 397 c 0,54,55
 336 385 336 385 336 369 c 128,-1,56
 336 353 336 353 347 341 c 0,45,46
EndSplineSet
EndChar

StartChar: brush
Encoding: 59290 59290 79
Width: 581
Flags: W
LayerCount: 2
Fore
SplineSet
109 160 m 0,0,1
 128 178 128 178 151.5 175 c 128,-1,2
 175 172 175 172 195 152 c 256,3,4
 215 132 215 132 218.5 108.5 c 128,-1,5
 222 85 222 85 204 67 c 0,6,7
 183 46 183 46 153.5 34 c 128,-1,8
 124 22 124 22 98.5 17.5 c 128,-1,9
 73 13 73 13 58.5 16 c 128,-1,10
 44 19 44 19 53 28 c 0,11,12
 72 49 72 49 77.5 67.5 c 128,-1,13
 83 86 83 86 85.5 101.5 c 128,-1,14
 88 117 88 117 91.5 131.5 c 128,-1,15
 95 146 95 146 109 160 c 0,0,1
529 483 m 256,16,17
 534 478 534 478 524 459 c 128,-1,18
 514 440 514 440 495 412.5 c 128,-1,19
 476 385 476 385 450.5 353 c 128,-1,20
 425 321 425 321 399 290 c 128,-1,21
 373 259 373 259 349 232.5 c 128,-1,22
 325 206 325 206 309 190 c 0,23,24
 285 166 285 166 271 156 c 128,-1,25
 257 146 257 146 247 138 c 0,26,27
 243 135 243 135 241.5 137.5 c 128,-1,28
 240 140 240 140 239 142 c 0,29,30
 234 152 234 152 228.5 159 c 128,-1,31
 223 166 223 166 215 174 c 0,32,33
 199 190 199 190 182 198 c 0,34,35
 180 199 180 199 177.5 200.5 c 128,-1,36
 175 202 175 202 178 206 c 0,37,38
 186 216 186 216 196 230 c 128,-1,39
 206 244 206 244 230 267 c 0,40,41
 246 283 246 283 273 306.5 c 128,-1,42
 300 330 300 330 331.5 355.5 c 128,-1,43
 363 381 363 381 396 406 c 128,-1,44
 429 431 429 431 457 449.5 c 128,-1,45
 485 468 485 468 504.5 478 c 128,-1,46
 524 488 524 488 529 483 c 256,16,17
EndSplineSet
EndChar

StartChar: suitcase
Encoding: 128710 128710 80
Width: 600
Flags: W
LayerCount: 2
Fore
SplineSet
500 400 m 2,0,1
 521 400 521 400 535.5 385 c 128,-1,2
 550 370 550 370 550 350 c 2,3,-1
 550 75 l 2,4,5
 550 54 550 54 535.5 39.5 c 128,-1,6
 521 25 521 25 500 25 c 2,7,-1
 475 25 l 1,8,-1
 475 400 l 1,9,-1
 500 400 l 2,0,1
50 350 m 2,10,11
 50 370 50 370 65 385 c 128,-1,12
 80 400 80 400 100 400 c 2,13,-1
 125 400 l 1,14,-1
 125 25 l 1,15,-1
 100 25 l 2,16,17
 80 25 80 25 65 39.5 c 128,-1,18
 50 54 50 54 50 75 c 2,19,-1
 50 350 l 2,10,11
385 400 m 1,20,-1
 440 400 l 1,21,-1
 440 25 l 1,22,-1
 160 25 l 1,23,-1
 160 400 l 1,24,-1
 215 400 l 1,25,-1
 215 452 l 1,26,27
 228 458 228 458 248.5 466.5 c 128,-1,28
 269 475 269 475 300 475 c 256,29,30
 331 475 331 475 351.5 466.5 c 128,-1,31
 372 458 372 458 385 452 c 1,32,-1
 385 400 l 1,20,-1
355 433 m 1,33,34
 345 438 345 438 331 441.5 c 128,-1,35
 317 445 317 445 300 445 c 256,36,37
 283 445 283 445 269.5 441.5 c 128,-1,38
 256 438 256 438 245 433 c 1,39,-1
 245 400 l 1,40,-1
 355 400 l 1,41,-1
 355 433 l 1,33,34
EndSplineSet
EndChar

StartChar: traffic-cone
Encoding: 128712 128712 81
Width: 582
Flags: W
LayerCount: 2
Fore
SplineSet
291 198 m 256,0,1
 246 198 246 198 213 211 c 128,-1,2
 180 224 180 224 178 244 c 1,3,4
 185 263 185 263 192 283 c 128,-1,5
 199 303 199 303 206 323 c 1,6,7
 211 309 211 309 235.5 300 c 128,-1,8
 260 291 260 291 291 291 c 0,9,10
 323 291 323 291 347 300 c 128,-1,11
 371 309 371 309 376 323 c 1,12,13
 383 303 383 303 390 283 c 128,-1,14
 397 263 397 263 404 244 c 1,15,16
 402 224 402 224 369 211 c 128,-1,17
 336 198 336 198 291 198 c 256,0,1
291 365 m 256,18,19
 270 365 270 365 252.5 371 c 128,-1,20
 235 377 235 377 229 387 c 1,21,22
 237 410 237 410 243.5 428 c 128,-1,23
 250 446 250 446 255 458 c 1,24,25
 257 466 257 466 268.5 470.5 c 128,-1,26
 280 475 280 475 291 475 c 0,27,28
 303 475 303 475 314 470.5 c 128,-1,29
 325 466 325 466 328 458 c 0,30,31
 332 446 332 446 338.5 428 c 128,-1,32
 345 410 345 410 353 387 c 1,33,34
 347 377 347 377 329.5 371 c 128,-1,35
 312 365 312 365 291 365 c 256,18,19
511 173 m 2,36,37
 531 165 531 165 531.5 152.5 c 128,-1,38
 532 140 532 140 513 129 c 2,39,-1
 337 35 l 2,40,41
 318 24 318 24 291.5 24 c 128,-1,42
 265 24 265 24 246 35 c 2,43,-1
 69 129 l 2,44,45
 50 140 50 140 51 152.5 c 128,-1,46
 52 165 52 165 72 173 c 2,47,-1
 166 211 l 1,48,-1
 155 181 l 1,49,50
 155 169 155 169 166 158.5 c 128,-1,51
 177 148 177 148 195.5 140 c 128,-1,52
 214 132 214 132 238.5 127.5 c 128,-1,53
 263 123 263 123 291 123 c 256,54,55
 319 123 319 123 343.5 127.5 c 128,-1,56
 368 132 368 132 387 140 c 128,-1,57
 406 148 406 148 417 158.5 c 128,-1,58
 428 169 428 169 428 181 c 1,59,-1
 417 211 l 1,60,-1
 511 173 l 2,36,37
EndSplineSet
EndChar

StartChar: globe
Encoding: 127758 127758 82
Width: 580
Flags: W
LayerCount: 2
Fore
SplineSet
290 490 m 256,0,1
 340 490 340 490 383.5 471 c 128,-1,2
 427 452 427 452 459.5 419.5 c 128,-1,3
 492 387 492 387 511 343 c 128,-1,4
 530 299 530 299 530 250 c 0,5,6
 530 200 530 200 511 156.5 c 128,-1,7
 492 113 492 113 459.5 80.5 c 128,-1,8
 427 48 427 48 383.5 29 c 128,-1,9
 340 10 340 10 290 10 c 256,10,11
 240 10 240 10 196.5 29 c 128,-1,12
 153 48 153 48 120.5 80.5 c 128,-1,13
 88 113 88 113 69 156.5 c 128,-1,14
 50 200 50 200 50 250 c 0,15,16
 50 299 50 299 69 343 c 128,-1,17
 88 387 88 387 120.5 419.5 c 128,-1,18
 153 452 153 452 196.5 471 c 128,-1,19
 240 490 240 490 290 490 c 256,0,1
495 250 m 0,20,21
 495 284 495 284 484.5 314.5 c 128,-1,22
 474 345 474 345 455.5 370.5 c 128,-1,23
 437 396 437 396 411 414.5 c 128,-1,24
 385 433 385 433 355 444 c 1,25,26
 346 432 346 432 347 428 c 0,27,28
 349 407 349 407 356 402.5 c 128,-1,29
 363 398 363 398 371 399.5 c 128,-1,30
 379 401 379 401 386.5 405 c 128,-1,31
 394 409 394 409 397 406 c 0,32,33
 407 395 407 395 401 387 c 128,-1,34
 395 379 395 379 385.5 369.5 c 128,-1,35
 376 360 376 360 370 347.5 c 128,-1,36
 364 335 364 335 374 316 c 256,37,38
 384 297 384 297 395 290.5 c 128,-1,39
 406 284 406 284 422 284 c 0,40,41
 430 284 430 284 435.5 278 c 128,-1,42
 441 272 441 272 444.5 263.5 c 128,-1,43
 448 255 448 255 450 246.5 c 128,-1,44
 452 238 452 238 452 233 c 0,45,46
 453 227 453 227 453 218 c 128,-1,47
 453 209 453 209 452 199 c 128,-1,48
 451 189 451 189 449.5 179 c 128,-1,49
 448 169 448 169 445 163 c 0,50,51
 439 151 439 151 443 140.5 c 128,-1,52
 447 130 447 130 452 125 c 1,53,54
 472 151 472 151 483.5 183 c 128,-1,55
 495 215 495 215 495 250 c 0,20,21
262 452 m 1,56,57
 205 444 205 444 162 409 c 128,-1,58
 119 374 119 374 99 323 c 1,59,60
 105 322 105 322 113.5 321.5 c 128,-1,61
 122 321 122 321 130.5 319.5 c 128,-1,62
 139 318 139 318 146 315.5 c 128,-1,63
 153 313 153 313 155 308 c 256,64,65
 157 303 157 303 154.5 298 c 128,-1,66
 152 293 152 293 148.5 287 c 128,-1,67
 145 281 145 281 142 273 c 128,-1,68
 139 265 139 265 139 255 c 0,69,70
 139 244 139 244 145 238 c 128,-1,71
 151 232 151 232 158 227 c 128,-1,72
 165 222 165 222 171 217 c 128,-1,73
 177 212 177 212 177 204 c 0,74,75
 177 187 177 187 181 170 c 128,-1,76
 185 153 185 153 185 148 c 0,77,78
 185 145 185 145 190 137.5 c 128,-1,79
 195 130 195 130 202.5 121.5 c 128,-1,80
 210 113 210 113 217 106.5 c 128,-1,81
 224 100 224 100 229 100 c 0,82,83
 233 100 233 100 234 107 c 128,-1,84
 235 114 235 114 234.5 124 c 128,-1,85
 234 134 234 134 233 143.5 c 128,-1,86
 232 153 232 153 232 158 c 0,87,88
 232 161 232 161 233 166 c 128,-1,89
 234 171 234 171 235 177 c 128,-1,90
 236 183 236 183 237 188 c 128,-1,91
 238 193 238 193 239 195 c 0,92,93
 243 209 243 209 251 216.5 c 128,-1,94
 259 224 259 224 268 229.5 c 128,-1,95
 277 235 277 235 285 239.5 c 128,-1,96
 293 244 293 244 296 253 c 0,97,98
 306 280 306 280 298 295.5 c 128,-1,99
 290 311 290 311 275 319 c 128,-1,100
 260 327 260 327 244.5 329.5 c 128,-1,101
 229 332 229 332 225 334 c 0,102,103
 217 337 217 337 204.5 337.5 c 128,-1,104
 192 338 192 338 186 336 c 0,105,106
 181 334 181 334 172.5 341 c 128,-1,107
 164 348 164 348 164 356 c 0,108,109
 164 360 164 360 168.5 366 c 128,-1,110
 173 372 173 372 179.5 378.5 c 128,-1,111
 186 385 186 385 192.5 391.5 c 128,-1,112
 199 398 199 398 203 403 c 0,113,114
 210 414 210 414 216.5 417 c 128,-1,115
 223 420 223 420 236 432 c 0,116,117
 242 437 242 437 250 441 c 128,-1,118
 258 445 258 445 262 452 c 1,56,57
226 55 m 1,119,120
 241 50 241 50 257 47.5 c 128,-1,121
 273 45 273 45 290 45 c 0,122,123
 354 45 354 45 403 79 c 1,124,125
 396 91 396 91 376.5 94.5 c 128,-1,126
 357 98 357 98 344 96 c 0,127,128
 329 94 329 94 313.5 87.5 c 128,-1,129
 298 81 298 81 288 79 c 0,130,131
 277 77 277 77 268.5 74 c 128,-1,132
 260 71 260 71 250 71 c 1,133,134
 242 70 242 70 238.5 65 c 128,-1,135
 235 60 235 60 226 55 c 1,119,120
EndSplineSet
EndChar

StartChar: keyboard
Encoding: 9000 9000 83
Width: 600
Flags: W
LayerCount: 2
Fore
SplineSet
515 400 m 2,0,1
 529 400 529 400 539.5 389.5 c 128,-1,2
 550 379 550 379 550 365 c 2,3,-1
 550 135 l 2,4,5
 550 120 550 120 539.5 110 c 128,-1,6
 529 100 529 100 515 100 c 2,7,-1
 85 100 l 2,8,9
 71 100 71 100 60.5 110 c 128,-1,10
 50 120 50 120 50 135 c 2,11,-1
 50 365 l 2,12,13
 50 379 50 379 60.5 389.5 c 128,-1,14
 71 400 71 400 85 400 c 2,15,-1
 515 400 l 2,0,1
325 300 m 1,16,-1
 375 300 l 1,17,-1
 375 350 l 1,18,-1
 325 350 l 1,19,-1
 325 300 l 1,16,-1
350 275 m 1,20,-1
 350 225 l 1,21,-1
 400 225 l 1,22,-1
 400 275 l 1,23,-1
 350 275 l 1,20,-1
250 300 m 1,24,-1
 300 300 l 1,25,-1
 300 350 l 1,26,-1
 250 350 l 1,27,-1
 250 300 l 1,24,-1
275 275 m 1,28,-1
 275 225 l 1,29,-1
 325 225 l 1,30,-1
 325 275 l 1,31,-1
 275 275 l 1,28,-1
175 300 m 1,32,-1
 225 300 l 1,33,-1
 225 350 l 1,34,-1
 175 350 l 1,35,-1
 175 300 l 1,32,-1
200 275 m 1,36,-1
 200 225 l 1,37,-1
 250 225 l 1,38,-1
 250 275 l 1,39,-1
 200 275 l 1,36,-1
100 300 m 1,40,-1
 150 300 l 1,41,-1
 150 350 l 1,42,-1
 100 350 l 1,43,-1
 100 300 l 1,40,-1
125 275 m 1,44,-1
 125 225 l 1,45,-1
 175 225 l 1,46,-1
 175 275 l 1,47,-1
 125 275 l 1,44,-1
150 200 m 1,48,-1
 100 200 l 1,49,-1
 100 150 l 1,50,-1
 150 150 l 1,51,-1
 150 200 l 1,48,-1
425 200 m 1,52,-1
 175 200 l 1,53,-1
 175 150 l 1,54,-1
 425 150 l 1,55,-1
 425 200 l 1,52,-1
500 200 m 1,56,-1
 450 200 l 1,57,-1
 450 150 l 1,58,-1
 500 150 l 1,59,-1
 500 200 l 1,56,-1
475 225 m 1,60,-1
 475 275 l 1,61,-1
 425 275 l 1,62,-1
 425 225 l 1,63,-1
 475 225 l 1,60,-1
500 350 m 1,64,-1
 400 350 l 1,65,-1
 400 300 l 1,66,-1
 500 300 l 1,67,-1
 500 350 l 1,64,-1
EndSplineSet
EndChar

StartChar: browser
Encoding: 59214 59214 84
Width: 600
Flags: W
LayerCount: 2
Fore
SplineSet
500 450 m 2,0,1
 521 450 521 450 535.5 435 c 128,-1,2
 550 420 550 420 550 400 c 2,3,-1
 550 100 l 2,4,5
 550 79 550 79 535.5 64.5 c 128,-1,6
 521 50 521 50 500 50 c 2,7,-1
 100 50 l 2,8,9
 80 50 80 50 65 64.5 c 128,-1,10
 50 79 50 79 50 100 c 2,11,-1
 50 400 l 2,12,13
 50 420 50 420 65 435 c 128,-1,14
 80 450 80 450 100 450 c 2,15,-1
 500 450 l 2,0,1
165 403 m 256,16,17
 157 403 157 403 151.5 398 c 128,-1,18
 146 393 146 393 146 385 c 256,19,20
 146 377 146 377 151.5 371.5 c 128,-1,21
 157 366 157 366 165 366 c 0,22,23
 184 366 184 366 184 385 c 0,24,25
 184 393 184 393 178.5 398 c 128,-1,26
 173 403 173 403 165 403 c 256,16,17
96 385 m 256,27,28
 96 377 96 377 101.5 371.5 c 128,-1,29
 107 366 107 366 115 366 c 0,30,31
 134 366 134 366 134 385 c 0,32,33
 134 393 134 393 128.5 398 c 128,-1,34
 123 403 123 403 115 403 c 256,35,36
 107 403 107 403 101.5 398 c 128,-1,37
 96 393 96 393 96 385 c 256,27,28
501 330 m 1,38,-1
 100 330 l 1,39,-1
 100 100 l 1,40,-1
 501 100 l 1,41,-1
 501 330 l 1,38,-1
501 400 m 1,42,-1
 200 400 l 1,43,-1
 200 370 l 1,44,-1
 501 370 l 1,45,-1
 501 400 l 1,42,-1
EndSplineSet
EndChar

StartChar: publish
Encoding: 59213 59213 85
Width: 600
Flags: W
LayerCount: 2
Fore
SplineSet
500 475 m 2,0,1
 521 475 521 475 535.5 460 c 128,-1,2
 550 445 550 445 550 425 c 2,3,-1
 550 125 l 2,4,5
 550 104 550 104 535.5 89.5 c 128,-1,6
 521 75 521 75 500 75 c 2,7,-1
 401 75 l 1,8,-1
 401 124 l 1,9,-1
 501 124 l 1,10,-1
 501 355 l 1,11,-1
 100 355 l 1,12,-1
 100 124 l 1,13,-1
 200 124 l 1,14,-1
 200 75 l 1,15,-1
 100 75 l 2,16,17
 80 75 80 75 65 89.5 c 128,-1,18
 50 104 50 104 50 125 c 2,19,-1
 50 425 l 2,20,21
 50 445 50 445 65 460 c 128,-1,22
 80 475 80 475 100 475 c 2,23,-1
 500 475 l 2,0,1
115 391 m 0,24,25
 134 391 134 391 134 410 c 0,26,27
 134 418 134 418 128.5 423 c 128,-1,28
 123 428 123 428 115 428 c 256,29,30
 107 428 107 428 101.5 423 c 128,-1,31
 96 418 96 418 96 410 c 256,32,33
 96 402 96 402 101.5 396.5 c 128,-1,34
 107 391 107 391 115 391 c 0,24,25
165 391 m 0,35,36
 184 391 184 391 184 410 c 0,37,38
 184 418 184 418 178.5 423 c 128,-1,39
 173 428 173 428 165 428 c 256,40,41
 157 428 157 428 151.5 423 c 128,-1,42
 146 418 146 418 146 410 c 256,43,44
 146 402 146 402 151.5 396.5 c 128,-1,45
 157 391 157 391 165 391 c 0,35,36
501 425 m 1,46,-1
 200 425 l 1,47,-1
 200 394 l 1,48,-1
 501 394 l 1,49,-1
 501 425 l 1,46,-1
420 175 m 1,50,-1
 345 175 l 1,51,-1
 345 25 l 1,52,-1
 253 25 l 1,53,-1
 253 175 l 1,54,-1
 178 175 l 1,55,-1
 299 295 l 1,56,-1
 420 175 l 1,50,-1
EndSplineSet
EndChar

StartChar: progress-3
Encoding: 59243 59243 86
Width: 600
Flags: W
LayerCount: 2
Fore
SplineSet
550 175 m 2,0,1
 550 154 550 154 535.5 139.5 c 128,-1,2
 521 125 521 125 500 125 c 2,3,-1
 100 125 l 2,4,5
 80 125 80 125 65 139.5 c 128,-1,6
 50 154 50 154 50 175 c 2,7,-1
 50 325 l 2,8,9
 50 345 50 345 65 360 c 128,-1,10
 80 375 80 375 100 375 c 2,11,-1
 500 375 l 2,12,13
 521 375 521 375 535.5 360 c 128,-1,14
 550 345 550 345 550 325 c 2,15,-1
 550 300 l 1,16,-1
 550 175 l 2,0,1
500 325 m 1,17,-1
 100 325 l 1,18,-1
 100 175 l 1,19,-1
 500 175 l 1,20,-1
 500 325 l 1,17,-1
125 299 m 1,21,-1
 225 299 l 1,22,-1
 225 200 l 1,23,-1
 125 200 l 1,24,-1
 125 299 l 1,21,-1
250 299 m 1,25,-1
 350 299 l 1,26,-1
 350 200 l 1,27,-1
 250 200 l 1,28,-1
 250 299 l 1,25,-1
475 299 m 1,29,-1
 475 200 l 1,30,-1
 375 200 l 1,31,-1
 375 299 l 1,32,-1
 475 299 l 1,29,-1
EndSplineSet
EndChar

StartChar: progress-2
Encoding: 59242 59242 87
Width: 600
Flags: W
LayerCount: 2
Fore
SplineSet
550 175 m 2,0,1
 550 154 550 154 535.5 139.5 c 128,-1,2
 521 125 521 125 500 125 c 2,3,-1
 100 125 l 2,4,5
 80 125 80 125 65 139.5 c 128,-1,6
 50 154 50 154 50 175 c 2,7,-1
 50 325 l 2,8,9
 50 345 50 345 65 360 c 128,-1,10
 80 375 80 375 100 375 c 2,11,-1
 500 375 l 2,12,13
 521 375 521 375 535.5 360 c 128,-1,14
 550 345 550 345 550 325 c 2,15,-1
 550 300 l 1,16,-1
 550 175 l 2,0,1
500 325 m 1,17,-1
 100 325 l 1,18,-1
 100 175 l 1,19,-1
 500 175 l 1,20,-1
 500 325 l 1,17,-1
125 299 m 1,21,-1
 225 299 l 1,22,-1
 225 200 l 1,23,-1
 125 200 l 1,24,-1
 125 299 l 1,21,-1
250 299 m 1,25,-1
 350 299 l 1,26,-1
 350 200 l 1,27,-1
 250 200 l 1,28,-1
 250 299 l 1,25,-1
EndSplineSet
EndChar

StartChar: progress-1
Encoding: 59241 59241 88
Width: 600
Flags: W
LayerCount: 2
Fore
SplineSet
550 175 m 2,0,1
 550 154 550 154 535.5 139.5 c 128,-1,2
 521 125 521 125 500 125 c 2,3,-1
 100 125 l 2,4,5
 80 125 80 125 65 139.5 c 128,-1,6
 50 154 50 154 50 175 c 2,7,-1
 50 325 l 2,8,9
 50 345 50 345 65 360 c 128,-1,10
 80 375 80 375 100 375 c 2,11,-1
 500 375 l 2,12,13
 521 375 521 375 535.5 360 c 128,-1,14
 550 345 550 345 550 325 c 2,15,-1
 550 300 l 1,16,-1
 550 175 l 2,0,1
500 325 m 1,17,-1
 100 325 l 1,18,-1
 100 175 l 1,19,-1
 500 175 l 1,20,-1
 500 325 l 1,17,-1
125 299 m 1,21,-1
 225 299 l 1,22,-1
 225 200 l 1,23,-1
 125 200 l 1,24,-1
 125 299 l 1,21,-1
EndSplineSet
EndChar

StartChar: progress-0
Encoding: 59240 59240 89
Width: 600
Flags: W
LayerCount: 2
Fore
SplineSet
550 175 m 2,0,1
 550 154 550 154 535.5 139.5 c 128,-1,2
 521 125 521 125 500 125 c 2,3,-1
 100 125 l 2,4,5
 80 125 80 125 65 139.5 c 128,-1,6
 50 154 50 154 50 175 c 2,7,-1
 50 325 l 2,8,9
 50 345 50 345 65 360 c 128,-1,10
 80 375 80 375 100 375 c 2,11,-1
 500 375 l 2,12,13
 521 375 521 375 535.5 360 c 128,-1,14
 550 345 550 345 550 325 c 2,15,-1
 550 300 l 1,16,-1
 550 175 l 2,0,1
500 325 m 1,17,-1
 100 325 l 1,18,-1
 100 175 l 1,19,-1
 500 175 l 1,20,-1
 500 325 l 1,17,-1
EndSplineSet
EndChar

StartChar: light-down
Encoding: 128261 128261 90
Width: 450
Flags: W
LayerCount: 2
Fore
SplineSet
225 330 m 0,0,1
 259 330 259 330 282 306.5 c 128,-1,2
 305 283 305 283 305 250 c 0,3,4
 305 216 305 216 282 193 c 128,-1,5
 259 170 259 170 225 170 c 0,6,7
 192 170 192 170 168.5 193 c 128,-1,8
 145 216 145 216 145 250 c 0,9,10
 145 283 145 283 168.5 306.5 c 128,-1,11
 192 330 192 330 225 330 c 0,0,1
225 198 m 0,12,13
 247 198 247 198 261.5 213 c 128,-1,14
 276 228 276 228 276 250 c 0,15,16
 276 271 276 271 261.5 286 c 128,-1,17
 247 301 247 301 225 301 c 0,18,19
 204 301 204 301 189 286 c 128,-1,20
 174 271 174 271 174 250 c 0,21,22
 174 228 174 228 189 213 c 128,-1,23
 204 198 204 198 225 198 c 0,12,13
75 270 m 256,24,25
 86 270 86 270 93 264 c 128,-1,26
 100 258 100 258 100 250 c 0,27,28
 100 241 100 241 93 235.5 c 128,-1,29
 86 230 86 230 75 230 c 256,30,31
 64 230 64 230 57 235.5 c 128,-1,32
 50 241 50 241 50 250 c 0,33,34
 50 258 50 258 57 264 c 128,-1,35
 64 270 64 270 75 270 c 256,24,25
348 372 m 256,36,37
 354 366 354 366 353 357 c 128,-1,38
 352 348 352 348 344 340 c 0,39,40
 337 333 337 333 327.5 332 c 128,-1,41
 318 331 318 331 313 337 c 0,42,43
 307 343 307 343 307.5 352 c 128,-1,44
 308 361 308 361 316 369 c 0,45,46
 324 376 324 376 333 377 c 128,-1,47
 342 378 342 378 348 372 c 256,36,37
375 270 m 256,48,49
 386 270 386 270 393 264 c 128,-1,50
 400 258 400 258 400 250 c 0,51,52
 400 241 400 241 393 235.5 c 128,-1,53
 386 230 386 230 375 230 c 256,54,55
 364 230 364 230 357.5 235.5 c 128,-1,56
 351 241 351 241 351 250 c 0,57,58
 351 258 351 258 357.5 264 c 128,-1,59
 364 270 364 270 375 270 c 256,48,49
225 125 m 256,60,61
 233 125 233 125 239 117.5 c 128,-1,62
 245 110 245 110 245 100 c 0,63,64
 245 89 245 89 239 82 c 128,-1,65
 233 75 233 75 225 75 c 256,66,67
 217 75 217 75 211 82 c 128,-1,68
 205 89 205 89 205 100 c 0,69,70
 205 110 205 110 211 117.5 c 128,-1,71
 217 125 217 125 225 125 c 256,60,61
106 156 m 256,72,73
 114 164 114 164 123 165 c 128,-1,74
 132 166 132 166 138 160 c 256,75,76
 144 154 144 154 143 145 c 128,-1,77
 142 136 142 136 134 128 c 0,78,79
 127 120 127 120 117.5 119.5 c 128,-1,80
 108 119 108 119 103 124 c 0,81,82
 97 130 97 130 97.5 139 c 128,-1,83
 98 148 98 148 106 156 c 256,72,73
101 371 m 256,84,85
 107 377 107 377 116 376 c 128,-1,86
 125 375 125 375 133 367 c 0,87,88
 141 360 141 360 141.5 350.5 c 128,-1,89
 142 341 142 341 137 336 c 0,90,91
 131 330 131 330 122 330.5 c 128,-1,92
 113 331 113 331 105 339 c 256,93,94
 97 347 97 347 96 356 c 128,-1,95
 95 365 95 365 101 371 c 256,84,85
317 129 m 0,96,97
 310 137 310 137 309 146 c 128,-1,98
 308 155 308 155 314 161 c 256,99,100
 320 167 320 167 329 166 c 128,-1,101
 338 165 338 165 346 157 c 0,102,103
 353 150 353 150 354 140.5 c 128,-1,104
 355 131 355 131 349 126 c 0,105,106
 343 120 343 120 334 120.5 c 128,-1,107
 325 121 325 121 317 129 c 0,96,97
225 375 m 256,108,109
 217 375 217 375 211 382 c 128,-1,110
 205 389 205 389 205 400 c 0,111,112
 205 410 205 410 211 417.5 c 128,-1,113
 217 425 217 425 225 425 c 256,114,115
 233 425 233 425 239 417.5 c 128,-1,116
 245 410 245 410 245 400 c 0,117,118
 245 389 245 389 239 382 c 128,-1,119
 233 375 233 375 225 375 c 256,108,109
EndSplineSet
EndChar

StartChar: light-up
Encoding: 128262 128262 91
Width: 600
Flags: W
LayerCount: 2
Fore
SplineSet
525 270 m 2,0,1
 536 270 536 270 543 264 c 128,-1,2
 550 258 550 258 550 250 c 0,3,4
 550 241 550 241 543 235.5 c 128,-1,5
 536 230 536 230 525 230 c 2,6,-1
 501 230 l 2,7,8
 490 230 490 230 483 235.5 c 128,-1,9
 476 241 476 241 476 250 c 0,10,11
 476 258 476 258 483 264 c 128,-1,12
 490 270 490 270 501 270 c 2,13,-1
 525 270 l 2,0,1
300 387 m 0,14,15
 328 387 328 387 353.5 376.5 c 128,-1,16
 379 366 379 366 397.5 347 c 128,-1,17
 416 328 416 328 427 303 c 128,-1,18
 438 278 438 278 438 250 c 0,19,20
 438 221 438 221 427 196 c 128,-1,21
 416 171 416 171 397.5 152 c 128,-1,22
 379 133 379 133 353.5 122.5 c 128,-1,23
 328 112 328 112 300 112 c 0,24,25
 271 112 271 112 246.5 122.5 c 128,-1,26
 222 133 222 133 203 152 c 128,-1,27
 184 171 184 171 173.5 196 c 128,-1,28
 163 221 163 221 163 250 c 0,29,30
 163 278 163 278 173.5 303 c 128,-1,31
 184 328 184 328 203 347 c 128,-1,32
 222 366 222 366 246.5 376.5 c 128,-1,33
 271 387 271 387 300 387 c 0,14,15
300 150 m 256,34,35
 321 150 321 150 339 157.5 c 128,-1,36
 357 165 357 165 370.5 178.5 c 128,-1,37
 384 192 384 192 392 210.5 c 128,-1,38
 400 229 400 229 400 250 c 0,39,40
 400 292 400 292 371 321 c 128,-1,41
 342 350 342 350 300 350 c 256,42,43
 258 350 258 350 229 321 c 128,-1,44
 200 292 200 292 200 250 c 0,45,46
 200 229 200 229 208 210.5 c 128,-1,47
 216 192 216 192 229.5 178.5 c 128,-1,48
 243 165 243 165 261 157.5 c 128,-1,49
 279 150 279 150 300 150 c 256,34,35
125 250 m 0,50,51
 125 241 125 241 118 235.5 c 128,-1,52
 111 230 111 230 100 230 c 2,53,-1
 75 230 l 2,54,55
 64 230 64 230 57 235.5 c 128,-1,56
 50 241 50 241 50 250 c 0,57,58
 50 258 50 258 57 264 c 128,-1,59
 64 270 64 270 75 270 c 2,60,-1
 100 270 l 2,61,62
 111 270 111 270 118 264 c 128,-1,63
 125 258 125 258 125 250 c 0,50,51
300 425 m 256,64,65
 292 425 292 425 286 432 c 128,-1,66
 280 439 280 439 280 450 c 2,67,-1
 280 475 l 2,68,69
 280 485 280 485 286 492.5 c 128,-1,70
 292 500 292 500 300 500 c 256,71,72
 308 500 308 500 314 492.5 c 128,-1,73
 320 485 320 485 320 475 c 2,74,-1
 320 450 l 2,75,76
 320 439 320 439 314 432 c 128,-1,77
 308 425 308 425 300 425 c 256,64,65
300 75 m 256,78,79
 308 75 308 75 314 67.5 c 128,-1,80
 320 60 320 60 320 50 c 2,81,-1
 320 25 l 2,82,83
 320 14 320 14 314 7 c 128,-1,84
 308 0 308 0 300 0 c 256,85,86
 292 0 292 0 286 7 c 128,-1,87
 280 14 280 14 280 25 c 2,88,-1
 280 50 l 2,89,90
 280 60 280 60 286 67.5 c 128,-1,91
 292 75 292 75 300 75 c 256,78,79
467 388 m 2,92,93
 459 380 459 380 450 379.5 c 128,-1,94
 441 379 441 379 435 384 c 0,95,96
 429 390 429 390 430 399 c 128,-1,97
 431 408 431 408 439 416 c 0,98,99
 441 418 441 418 447.5 425 c 128,-1,100
 454 432 454 432 456 434 c 0,101,102
 464 441 464 441 473 442 c 128,-1,103
 482 443 482 443 488 437 c 256,104,105
 494 431 494 431 493 422 c 128,-1,106
 492 413 492 413 484 405 c 2,107,-1
 467 388 l 2,92,93
134 111 m 0,108,109
 141 119 141 119 150.5 120 c 128,-1,110
 160 121 160 121 165 115 c 0,111,112
 171 109 171 109 170.5 100 c 128,-1,113
 170 91 170 91 162 83 c 2,114,-1
 144 65 l 2,115,116
 137 58 137 58 127.5 57 c 128,-1,117
 118 56 118 56 113 62 c 0,118,119
 107 68 107 68 107.5 77 c 128,-1,120
 108 86 108 86 116 94 c 0,121,122
 118 96 118 96 125 102.5 c 128,-1,123
 132 109 132 109 134 111 c 0,108,109
162 416 m 2,124,125
 170 408 170 408 170.5 399 c 128,-1,126
 171 390 171 390 165 384 c 0,127,128
 160 379 160 379 150.5 379.5 c 128,-1,129
 141 380 141 380 134 388 c 0,130,131
 132 390 132 390 125 396.5 c 128,-1,132
 118 403 118 403 116 405 c 0,133,134
 108 413 108 413 107.5 422 c 128,-1,135
 107 431 107 431 113 437 c 0,136,137
 118 443 118 443 127.5 442 c 128,-1,138
 137 441 137 441 144 434 c 2,139,-1
 162 416 l 2,124,125
439 83 m 0,140,141
 431 91 431 91 430 100 c 128,-1,142
 429 109 429 109 435 115 c 256,143,144
 441 121 441 121 450 120 c 128,-1,145
 459 119 459 119 467 111 c 2,146,-1
 484 94 l 2,147,148
 492 86 492 86 493 77 c 128,-1,149
 494 68 494 68 488 62 c 256,150,151
 482 56 482 56 473 57 c 128,-1,152
 464 58 464 58 456 65 c 0,153,154
 454 67 454 67 447.5 74 c 128,-1,155
 441 81 441 81 439 83 c 0,140,141
EndSplineSet
EndChar

StartChar: adjust
Encoding: 9681 9681 92
Width: 600
Flags: W
LayerCount: 2
Fore
SplineSet
525 270 m 2,0,1
 536 270 536 270 543 264 c 128,-1,2
 550 258 550 258 550 250 c 0,3,4
 550 241 550 241 543 235.5 c 128,-1,5
 536 230 536 230 525 230 c 2,6,-1
 501 230 l 2,7,8
 490 230 490 230 483 235.5 c 128,-1,9
 476 241 476 241 476 250 c 0,10,11
 476 258 476 258 483 264 c 128,-1,12
 490 270 490 270 501 270 c 2,13,-1
 525 270 l 2,0,1
300 387 m 0,14,15
 328 387 328 387 353.5 376.5 c 128,-1,16
 379 366 379 366 397.5 347 c 128,-1,17
 416 328 416 328 427 303 c 128,-1,18
 438 278 438 278 438 250 c 0,19,20
 438 221 438 221 427 196 c 128,-1,21
 416 171 416 171 397.5 152 c 128,-1,22
 379 133 379 133 353.5 122.5 c 128,-1,23
 328 112 328 112 300 112 c 0,24,25
 271 112 271 112 246.5 122.5 c 128,-1,26
 222 133 222 133 203 152 c 128,-1,27
 184 171 184 171 173.5 196 c 128,-1,28
 163 221 163 221 163 250 c 0,29,30
 163 278 163 278 173.5 303 c 128,-1,31
 184 328 184 328 203 347 c 128,-1,32
 222 366 222 366 246.5 376.5 c 128,-1,33
 271 387 271 387 300 387 c 0,14,15
303 350 m 1,34,35
 281 350 281 350 262.5 342 c 128,-1,36
 244 334 244 334 230 320.5 c 128,-1,37
 216 307 216 307 208 289 c 128,-1,38
 200 271 200 271 200 250 c 256,39,40
 200 229 200 229 208 210.5 c 128,-1,41
 216 192 216 192 230 178.5 c 128,-1,42
 244 165 244 165 262.5 157.5 c 128,-1,43
 281 150 281 150 303 150 c 1,44,-1
 303 350 l 1,34,35
125 250 m 0,45,46
 125 241 125 241 118 235.5 c 128,-1,47
 111 230 111 230 100 230 c 2,48,-1
 75 230 l 2,49,50
 64 230 64 230 57 235.5 c 128,-1,51
 50 241 50 241 50 250 c 0,52,53
 50 258 50 258 57 264 c 128,-1,54
 64 270 64 270 75 270 c 2,55,-1
 100 270 l 2,56,57
 111 270 111 270 118 264 c 128,-1,58
 125 258 125 258 125 250 c 0,45,46
300 425 m 256,59,60
 292 425 292 425 286 432 c 128,-1,61
 280 439 280 439 280 450 c 2,62,-1
 280 475 l 2,63,64
 280 485 280 485 286 492.5 c 128,-1,65
 292 500 292 500 300 500 c 256,66,67
 308 500 308 500 314 492.5 c 128,-1,68
 320 485 320 485 320 475 c 2,69,-1
 320 450 l 2,70,71
 320 439 320 439 314 432 c 128,-1,72
 308 425 308 425 300 425 c 256,59,60
300 75 m 256,73,74
 308 75 308 75 314 67.5 c 128,-1,75
 320 60 320 60 320 50 c 2,76,-1
 320 25 l 2,77,78
 320 14 320 14 314 7 c 128,-1,79
 308 0 308 0 300 0 c 256,80,81
 292 0 292 0 286 7 c 128,-1,82
 280 14 280 14 280 25 c 2,83,-1
 280 50 l 2,84,85
 280 60 280 60 286 67.5 c 128,-1,86
 292 75 292 75 300 75 c 256,73,74
467 388 m 2,87,88
 459 380 459 380 450 379.5 c 128,-1,89
 441 379 441 379 435 384 c 0,90,91
 429 390 429 390 430 399 c 128,-1,92
 431 408 431 408 439 416 c 0,93,94
 441 418 441 418 447.5 425 c 128,-1,95
 454 432 454 432 456 434 c 0,96,97
 464 441 464 441 473 442 c 128,-1,98
 482 443 482 443 488 437 c 256,99,100
 494 431 494 431 493 422 c 128,-1,101
 492 413 492 413 484 405 c 2,102,-1
 467 388 l 2,87,88
134 111 m 0,103,104
 141 119 141 119 150.5 120 c 128,-1,105
 160 121 160 121 165 115 c 0,106,107
 171 109 171 109 170.5 100 c 128,-1,108
 170 91 170 91 162 83 c 2,109,-1
 144 65 l 2,110,111
 137 58 137 58 127.5 57 c 128,-1,112
 118 56 118 56 113 62 c 0,113,114
 107 68 107 68 107.5 77 c 128,-1,115
 108 86 108 86 116 94 c 0,116,117
 118 96 118 96 125 102.5 c 128,-1,118
 132 109 132 109 134 111 c 0,103,104
162 416 m 2,119,120
 170 408 170 408 170.5 399 c 128,-1,121
 171 390 171 390 165 384 c 0,122,123
 160 379 160 379 150.5 379.5 c 128,-1,124
 141 380 141 380 134 388 c 0,125,126
 132 390 132 390 125 396.5 c 128,-1,127
 118 403 118 403 116 405 c 0,128,129
 108 413 108 413 107.5 422 c 128,-1,130
 107 431 107 431 113 437 c 0,131,132
 118 443 118 443 127.5 442 c 128,-1,133
 137 441 137 441 144 434 c 2,134,-1
 162 416 l 2,119,120
439 83 m 0,135,136
 431 91 431 91 430 100 c 128,-1,137
 429 109 429 109 435 115 c 256,138,139
 441 121 441 121 450 120 c 128,-1,140
 459 119 459 119 467 111 c 2,141,-1
 484 94 l 2,142,143
 492 86 492 86 493 77 c 128,-1,144
 494 68 494 68 488 62 c 256,145,146
 482 56 482 56 473 57 c 128,-1,147
 464 58 464 58 456 65 c 0,148,149
 454 67 454 67 447.5 74 c 128,-1,150
 441 81 441 81 439 83 c 0,135,136
EndSplineSet
EndChar

StartChar: code
Encoding: 59156 59156 93
Width: 600
Flags: W
LayerCount: 2
Fore
SplineSet
240 393 m 0,0,1
 248 386 248 386 248 377 c 128,-1,2
 248 368 248 368 240 362 c 2,3,-1
 117 250 l 1,4,-1
 240 137 l 2,5,6
 248 131 248 131 248 122 c 128,-1,7
 248 113 248 113 240 106 c 0,8,9
 225 91 225 91 210 106 c 1,10,-1
 50 250 l 1,11,-1
 210 393 l 1,12,13
 225 408 225 408 240 393 c 0,0,1
550 250 m 1,14,-1
 391 106 l 2,15,16
 375 91 375 91 360 106 c 0,17,18
 353 113 353 113 353 122 c 128,-1,19
 353 131 353 131 360 137 c 2,20,-1
 484 250 l 1,21,-1
 360 362 l 2,22,23
 353 368 353 368 353 377 c 128,-1,24
 353 386 353 386 360 393 c 0,25,26
 375 408 375 408 391 393 c 2,27,-1
 550 250 l 1,14,-1
EndSplineSet
EndChar

StartChar: monitor
Encoding: 128187 128187 94
Width: 600
Flags: W
LayerCount: 2
Fore
SplineSet
500 470 m 2,0,1
 521 470 521 470 535.5 455 c 128,-1,2
 550 440 550 440 550 420 c 2,3,-1
 550 145 l 2,4,5
 550 124 550 124 535.5 106.5 c 128,-1,6
 521 89 521 89 501 85 c 2,7,-1
 392 63 l 1,8,9
 417 53 417 53 431 46 c 0,10,11
 443 40 443 40 445.5 35 c 128,-1,12
 448 30 448 30 425 30 c 2,13,-1
 175 30 l 2,14,15
 152 30 152 30 154.5 35 c 128,-1,16
 157 40 157 40 169 46 c 0,17,18
 183 53 183 53 209 63 c 1,19,-1
 99 85 l 2,20,21
 79 89 79 89 64.5 106.5 c 128,-1,22
 50 124 50 124 50 145 c 2,23,-1
 50 420 l 2,24,25
 50 440 50 440 65 455 c 128,-1,26
 80 470 80 470 100 470 c 2,27,-1
 500 470 l 2,0,1
500 425 m 1,28,-1
 100 425 l 1,29,-1
 100 147 l 1,30,-1
 500 147 l 1,31,-1
 500 425 l 1,28,-1
EndSplineSet
EndChar

StartChar: mute
Encoding: 128263 128263 95
Width: 542
Flags: W
LayerCount: 2
Fore
SplineSet
484 464 m 0,0,1
 492 456 492 456 492 446 c 128,-1,2
 492 436 492 436 484 428 c 2,3,-1
 93 37 l 1,4,5
 84 30 84 30 76 30 c 0,6,7
 67 30 67 30 58 37 c 1,8,9
 50 45 50 45 50 55 c 128,-1,10
 50 65 50 65 58 73 c 2,11,-1
 449 464 l 2,12,13
 457 471 457 471 466.5 471 c 128,-1,14
 476 471 476 471 484 464 c 0,0,1
401 296 m 1,15,16
 419 273 419 273 432 251 c 128,-1,17
 445 229 445 229 451.5 210 c 128,-1,18
 458 191 458 191 457.5 176 c 128,-1,19
 457 161 457 161 448 152 c 0,20,21
 442 146 442 146 427 134.5 c 128,-1,22
 412 123 412 123 391 111 c 128,-1,23
 370 99 370 99 345 88 c 128,-1,24
 320 77 320 77 292.5 70.5 c 128,-1,25
 265 64 265 64 236.5 64.5 c 128,-1,26
 208 65 208 65 182 77 c 1,27,-1
 321 215 l 1,28,29
 356 189 356 189 383 180 c 128,-1,30
 410 171 410 171 415 176 c 256,31,32
 420 181 420 181 411 208.5 c 128,-1,33
 402 236 402 236 376 271 c 1,34,-1
 401 296 l 1,15,16
103 167 m 1,35,36
 91 205 91 205 99 245.5 c 128,-1,37
 107 286 107 286 122.5 321 c 128,-1,38
 138 356 138 356 156 381.5 c 128,-1,39
 174 407 174 407 183 416 c 0,40,41
 200 433 200 433 236 422 c 128,-1,42
 272 411 272 411 315 379 c 1,43,-1
 289 354 l 1,44,45
 258 374 258 374 235.5 381 c 128,-1,46
 213 388 213 388 208 383 c 0,47,48
 203 379 203 379 210 356 c 128,-1,49
 217 333 217 333 238 302 c 1,50,-1
 103 167 l 1,35,36
EndSplineSet
EndChar

StartChar: light-bulb
Encoding: 128161 128161 96
Width: 451
Flags: W
LayerCount: 2
Fore
SplineSet
155 72 m 1,0,-1
 296 72 l 1,1,-1
 296 20 l 1,2,3
 281 11 281 11 263.5 5 c 128,-1,4
 246 -1 246 -1 225 0 c 1,5,6
 204 -1 204 -1 187 5 c 128,-1,7
 170 11 170 11 155 20 c 1,8,-1
 155 72 l 1,0,-1
158 102 m 1,9,10
 158 143 158 143 140 172 c 128,-1,11
 122 201 122 201 101 228 c 128,-1,12
 80 255 80 255 64 284 c 128,-1,13
 48 313 48 313 51 354 c 0,14,15
 53 380 53 380 63 406 c 128,-1,16
 73 432 73 432 94 453 c 128,-1,17
 115 474 115 474 147 487 c 128,-1,18
 179 500 179 500 225 500 c 256,19,20
 271 500 271 500 303.5 487 c 128,-1,21
 336 474 336 474 356.5 453 c 128,-1,22
 377 432 377 432 387.5 406 c 128,-1,23
 398 380 398 380 400 354 c 0,24,25
 402 327 402 327 395 305.5 c 128,-1,26
 388 284 388 284 376 265 c 128,-1,27
 364 246 364 246 349.5 228.5 c 128,-1,28
 335 211 335 211 322.5 192 c 128,-1,29
 310 173 310 173 301.5 151 c 128,-1,30
 293 129 293 129 293 102 c 1,31,-1
 158 102 l 1,9,10
104 350 m 0,32,33
 102 324 102 324 115 302.5 c 128,-1,34
 128 281 128 281 149 252 c 0,35,36
 164 231 164 231 180 205 c 128,-1,37
 196 179 196 179 205 146 c 1,38,-1
 246 146 l 1,39,40
 254 179 254 179 270 205 c 128,-1,41
 286 231 286 231 302 252 c 1,42,43
 322 281 322 281 335.5 302.5 c 128,-1,44
 349 324 349 324 347 350 c 0,45,46
 343 399 343 399 311 423.5 c 128,-1,47
 279 448 279 448 225 448 c 256,48,49
 171 448 171 448 139.5 423.5 c 128,-1,50
 108 399 108 399 104 350 c 0,32,33
EndSplineSet
EndChar

StartChar: credit-card
Encoding: 128179 128179 97
Width: 600
Flags: W
LayerCount: 2
Fore
SplineSet
500 425 m 2,0,1
 521 425 521 425 535.5 410 c 128,-1,2
 550 395 550 395 550 375 c 2,3,-1
 550 125 l 2,4,5
 550 104 550 104 535.5 89.5 c 128,-1,6
 521 75 521 75 500 75 c 2,7,-1
 100 75 l 2,8,9
 80 75 80 75 65 89.5 c 128,-1,10
 50 104 50 104 50 125 c 2,11,-1
 50 375 l 2,12,13
 50 395 50 395 65 410 c 128,-1,14
 80 425 80 425 100 425 c 2,15,-1
 500 425 l 2,0,1
500 275 m 1,16,-1
 100 275 l 1,17,-1
 100 125 l 1,18,-1
 500 125 l 1,19,-1
 500 275 l 1,16,-1
500 375 m 1,20,-1
 100 375 l 1,21,-1
 100 350 l 1,22,-1
 500 350 l 1,23,-1
 500 375 l 1,20,-1
165 222 m 1,24,-1
 165 207 l 1,25,-1
 150 207 l 1,26,-1
 150 222 l 1,27,-1
 165 222 l 1,24,-1
255 192 m 1,28,-1
 255 207 l 1,29,-1
 270 207 l 1,30,-1
 270 222 l 1,31,-1
 300 222 l 1,32,-1
 300 207 l 1,33,-1
 285 207 l 1,34,-1
 285 192 l 1,35,-1
 270 192 l 1,36,-1
 270 177 l 1,37,-1
 240 177 l 1,38,-1
 240 192 l 1,39,-1
 255 192 l 1,28,-1
285 177 m 1,40,-1
 285 192 l 1,41,-1
 300 192 l 1,42,-1
 300 177 l 1,43,-1
 285 177 l 1,40,-1
195 177 m 1,44,-1
 195 192 l 1,45,-1
 225 192 l 1,46,-1
 225 177 l 1,47,-1
 195 177 l 1,44,-1
240 192 m 1,48,-1
 225 192 l 1,49,-1
 225 222 l 1,50,-1
 255 222 l 1,51,-1
 255 207 l 1,52,-1
 240 207 l 1,53,-1
 240 192 l 1,48,-1
180 177 m 1,54,-1
 150 177 l 1,55,-1
 150 192 l 1,56,-1
 165 192 l 1,57,-1
 165 207 l 1,58,-1
 180 207 l 1,59,-1
 180 222 l 1,60,-1
 210 222 l 1,61,-1
 210 207 l 1,62,-1
 195 207 l 1,63,-1
 195 192 l 1,64,-1
 180 192 l 1,65,-1
 180 177 l 1,54,-1
EndSplineSet
EndChar

StartChar: database
Encoding: 128248 128248 98
Width: 450
Flags: W
LayerCount: 2
Fore
SplineSet
393 179 m 0,0,1
 397 184 397 184 398.5 182.5 c 128,-1,2
 400 181 400 181 400 178 c 2,3,-1
 400 128 l 2,4,5
 400 110 400 110 386.5 92.5 c 128,-1,6
 373 75 373 75 349 61 c 128,-1,7
 325 47 325 47 293 38.5 c 128,-1,8
 261 30 261 30 225 30 c 256,9,10
 189 30 189 30 157 38.5 c 128,-1,11
 125 47 125 47 101.5 61 c 128,-1,12
 78 75 78 75 64 92.5 c 128,-1,13
 50 110 50 110 50 128 c 2,14,-1
 50 178 l 2,15,16
 50 181 50 181 52 182.5 c 128,-1,17
 54 184 54 184 57 179 c 0,18,19
 73 153 73 153 119 136 c 128,-1,20
 165 119 165 119 225 119 c 256,21,22
 285 119 285 119 331 136 c 128,-1,23
 377 153 377 153 393 179 c 0,0,1
394 306 m 0,24,25
 397 311 397 311 398.5 309.5 c 128,-1,26
 400 308 400 308 400 306 c 2,27,-1
 400 248 l 2,28,29
 400 231 400 231 386.5 216.5 c 128,-1,30
 373 202 373 202 349 191 c 128,-1,31
 325 180 325 180 293 174 c 128,-1,32
 261 168 261 168 225 168 c 256,33,34
 189 168 189 168 157 174 c 128,-1,35
 125 180 125 180 101.5 191 c 128,-1,36
 78 202 78 202 64 216.5 c 128,-1,37
 50 231 50 231 50 248 c 2,38,-1
 50 306 l 2,39,40
 50 308 50 308 51.5 309.5 c 128,-1,41
 53 311 53 311 57 306 c 0,42,43
 72 283 72 283 118.5 268.5 c 128,-1,44
 165 254 165 254 225 254 c 256,45,46
 285 254 285 254 331.5 268.5 c 128,-1,47
 378 283 378 283 394 306 c 0,24,25
225 470 m 256,48,49
 261 470 261 470 293 464.5 c 128,-1,50
 325 459 325 459 349 450 c 128,-1,51
 373 441 373 441 386.5 429 c 128,-1,52
 400 417 400 417 400 404 c 2,53,-1
 400 372 l 2,54,55
 400 358 400 358 386.5 345 c 128,-1,56
 373 332 373 332 349 322.5 c 128,-1,57
 325 313 325 313 293 307.5 c 128,-1,58
 261 302 261 302 225 302 c 256,59,60
 189 302 189 302 157 307.5 c 128,-1,61
 125 313 125 313 101.5 322.5 c 128,-1,62
 78 332 78 332 64 345 c 128,-1,63
 50 358 50 358 50 372 c 2,64,-1
 50 404 l 2,65,66
 50 417 50 417 64 429 c 128,-1,67
 78 441 78 441 101.5 450 c 128,-1,68
 125 459 125 459 157 464.5 c 128,-1,69
 189 470 189 470 225 470 c 256,48,49
EndSplineSet
EndChar

StartChar: clipboard
Encoding: 128203 128203 99
Width: 450
Flags: W
LayerCount: 2
Fore
SplineSet
365 450 m 1,0,1
 379 450 379 450 389.5 439.5 c 128,-1,2
 400 429 400 429 400 415 c 2,3,-1
 400 35 l 2,4,5
 400 20 400 20 389.5 10 c 128,-1,6
 379 0 379 0 365 0 c 2,7,-1
 85 0 l 2,8,9
 71 0 71 0 60.5 10 c 128,-1,10
 50 20 50 20 50 35 c 2,11,-1
 50 415 l 2,12,13
 50 429 50 429 60.5 439.5 c 128,-1,14
 71 450 71 450 85 450 c 1,15,-1
 115 375 l 1,16,-1
 335 375 l 1,17,-1
 365 450 l 1,0,1
135 400 m 1,18,-1
 113 450 l 1,19,-1
 167 450 l 1,20,-1
 185 500 l 1,21,-1
 265 500 l 1,22,-1
 283 450 l 1,23,-1
 338 450 l 1,24,-1
 315 400 l 1,25,-1
 135 400 l 1,18,-1
EndSplineSet
EndChar

StartChar: cart
Encoding: 59197 59197 100
Width: 550
Flags: W
LayerCount: 2
Fore
SplineSet
125 75 m 0,0,1
 125 95 125 95 140 110 c 128,-1,2
 155 125 155 125 175 125 c 0,3,4
 196 125 196 125 210.5 110 c 128,-1,5
 225 95 225 95 225 75 c 0,6,7
 225 54 225 54 210.5 39.5 c 128,-1,8
 196 25 196 25 175 25 c 0,9,10
 155 25 155 25 140 39.5 c 128,-1,11
 125 54 125 54 125 75 c 0,0,1
375 75 m 0,12,13
 375 95 375 95 390 110 c 128,-1,14
 405 125 405 125 425 125 c 0,15,16
 446 125 446 125 460.5 110 c 128,-1,17
 475 95 475 95 475 75 c 0,18,19
 475 54 475 54 460.5 39.5 c 128,-1,20
 446 25 446 25 425 25 c 0,21,22
 405 25 405 25 390 39.5 c 128,-1,23
 375 54 375 54 375 75 c 0,12,13
214 193 m 2,24,25
 196 188 196 188 196.5 181.5 c 128,-1,26
 197 175 197 175 219 175 c 2,27,-1
 500 175 l 1,28,-1
 500 137 l 2,29,30
 500 127 500 127 490 127 c 2,31,-1
 425 127 l 1,32,-1
 175 127 l 1,33,-1
 163 127 l 2,34,35
 153 127 153 127 153 137 c 2,36,-1
 153 175 l 1,37,-1
 148 198 l 1,38,-1
 99 425 l 1,39,-1
 50 425 l 1,40,-1
 50 465 l 2,41,42
 50 475 50 475 60 475 c 2,43,-1
 138 475 l 2,44,45
 148 475 148 475 148 465 c 2,46,-1
 148 422 l 1,47,-1
 500 422 l 1,48,-1
 500 285 l 2,49,50
 500 274 500 274 491 272 c 2,51,-1
 214 193 l 2,24,25
EndSplineSet
EndChar

StartChar: box
Encoding: 128230 128230 101
Width: 550
Flags: W
LayerCount: 2
Fore
SplineSet
485 450 m 2,0,1
 491 450 491 450 495.5 445.5 c 128,-1,2
 500 441 500 441 500 435 c 2,3,-1
 500 375 l 1,4,-1
 50 375 l 1,5,-1
 50 435 l 2,6,7
 50 441 50 441 54.5 445.5 c 128,-1,8
 59 450 59 450 65 450 c 2,9,-1
 485 450 l 2,0,1
75 350 m 1,10,-1
 475 350 l 1,11,-1
 475 85 l 2,12,13
 475 70 475 70 464.5 60 c 128,-1,14
 454 50 454 50 440 50 c 2,15,-1
 110 50 l 2,16,17
 96 50 96 50 85.5 60 c 128,-1,18
 75 70 75 70 75 85 c 2,19,-1
 75 350 l 1,10,-1
200 250 m 1,20,-1
 350 250 l 1,21,-1
 350 300 l 1,22,-1
 200 300 l 1,23,-1
 200 250 l 1,20,-1
EndSplineSet
EndChar

StartChar: ticket
Encoding: 127915 127915 102
Width: 571
Flags: W
LayerCount: 2
Fore
SplineSet
321 374 m 1,0,-1
 410 285 l 1,1,-1
 247 122 l 1,2,-1
 158 211 l 1,3,-1
 321 374 l 1,0,-1
513 333 m 2,4,5
 521 325 521 325 521 315 c 128,-1,6
 521 305 521 305 513 297 c 2,7,-1
 238 22 l 2,8,9
 230 14 230 14 220 14 c 128,-1,10
 210 14 210 14 202 22 c 2,11,-1
 164 60 l 1,12,13
 170 70 170 70 170 84 c 0,14,15
 170 105 170 105 155.5 120 c 128,-1,16
 141 135 141 135 120 135 c 0,17,18
 109 135 109 135 95 128 c 1,19,-1
 58 166 l 2,20,21
 50 174 50 174 50 184 c 128,-1,22
 50 194 50 194 58 202 c 2,23,-1
 333 477 l 2,24,25
 341 485 341 485 351 485 c 128,-1,26
 361 485 361 485 369 477 c 2,27,-1
 406 439 l 1,28,29
 400 428 400 428 400 415 c 0,30,31
 400 394 400 394 415 379.5 c 128,-1,32
 430 365 430 365 451 365 c 0,33,34
 464 365 464 365 475 371 c 1,35,-1
 513 333 l 2,4,5
450 285 m 1,36,-1
 321 414 l 1,37,-1
 117 211 l 1,38,-1
 247 82 l 1,39,-1
 450 285 l 1,36,-1
EndSplineSet
EndChar

StartChar: rss
Encoding: 59194 59194 103
Width: 480
Flags: W
LayerCount: 2
Fore
SplineSet
50 440 m 1,0,1
 129 440 129 440 198 410 c 128,-1,2
 267 380 267 380 318.5 328.5 c 128,-1,3
 370 277 370 277 400 207.5 c 128,-1,4
 430 138 430 138 430 60 c 1,5,-1
 371 60 l 1,6,7
 371 126 371 126 345.5 184.5 c 128,-1,8
 320 243 320 243 276.5 286.5 c 128,-1,9
 233 330 233 330 174.5 355 c 128,-1,10
 116 380 116 380 50 380 c 1,11,-1
 50 440 l 1,0,1
50 321 m 1,12,13
 104 321 104 321 152 300.5 c 128,-1,14
 200 280 200 280 235.5 244.5 c 128,-1,15
 271 209 271 209 291.5 161.5 c 128,-1,16
 312 114 312 114 312 60 c 1,17,-1
 253 60 l 1,18,19
 253 102 253 102 237 138.5 c 128,-1,20
 221 175 221 175 193.5 202.5 c 128,-1,21
 166 230 166 230 129 246 c 128,-1,22
 92 262 92 262 50 262 c 1,23,-1
 50 321 l 1,12,13
107 173 m 256,24,25
 130 173 130 173 147 156.5 c 128,-1,26
 164 140 164 140 164 116 c 0,27,28
 164 93 164 93 147 76.5 c 128,-1,29
 130 60 130 60 107 60 c 256,30,31
 84 60 84 60 67 76.5 c 128,-1,32
 50 93 50 93 50 116 c 0,33,34
 50 140 50 140 67 156.5 c 128,-1,35
 84 173 84 173 107 173 c 256,24,25
EndSplineSet
EndChar

StartChar: signal
Encoding: 128246 128246 104
Width: 590
Flags: W
LayerCount: 2
Fore
SplineSet
295 150 m 0,0,1
 316 150 316 150 330.5 135 c 128,-1,2
 345 120 345 120 345 100 c 0,3,4
 345 79 345 79 330.5 64.5 c 128,-1,5
 316 50 316 50 295 50 c 0,6,7
 275 50 275 50 260.5 64.5 c 128,-1,8
 246 79 246 79 246 100 c 0,9,10
 246 120 246 120 260.5 135 c 128,-1,11
 275 150 275 150 295 150 c 0,0,1
190 206 m 1,12,13
 212 228 212 228 239 238.5 c 128,-1,14
 266 249 266 249 294.5 249 c 128,-1,15
 323 249 323 249 350.5 238.5 c 128,-1,16
 378 228 378 228 400 206 c 1,17,-1
 365 170 l 1,18,19
 351 185 351 185 332.5 192 c 128,-1,20
 314 199 314 199 295 199 c 128,-1,21
 276 199 276 199 258 192 c 128,-1,22
 240 185 240 185 225 170 c 1,23,-1
 190 206 l 1,12,13
120 276 m 1,24,25
 156 313 156 313 202 331 c 128,-1,26
 248 349 248 349 295.5 349 c 128,-1,27
 343 349 343 349 388.5 331 c 128,-1,28
 434 313 434 313 470 276 c 1,29,-1
 435 241 l 1,30,31
 406 270 406 270 369.5 284.5 c 128,-1,32
 333 299 333 299 295 299 c 128,-1,33
 257 299 257 299 220.5 284.5 c 128,-1,34
 184 270 184 270 155 241 c 1,35,-1
 120 276 l 1,24,25
50 347 m 1,36,37
 101 398 101 398 165 424 c 128,-1,38
 229 450 229 450 295.5 450 c 128,-1,39
 362 450 362 450 425.5 424 c 128,-1,40
 489 398 489 398 540 347 c 1,41,-1
 505 312 l 1,42,43
 461 356 461 356 406.5 378 c 128,-1,44
 352 400 352 400 295 400 c 128,-1,45
 238 400 238 400 183 378 c 128,-1,46
 128 356 128 356 85 312 c 1,47,-1
 50 347 l 1,36,37
EndSplineSet
EndChar

StartChar: thermometer
Encoding: 128255 128255 105
Width: 370
Flags: W
LayerCount: 2
Fore
SplineSet
250 253 m 1,0,1
 282 236 282 236 301 204.5 c 128,-1,2
 320 173 320 173 320 135 c 0,3,4
 320 107 320 107 309.5 82.5 c 128,-1,5
 299 58 299 58 280.5 39.5 c 128,-1,6
 262 21 262 21 237.5 10.5 c 128,-1,7
 213 0 213 0 185 0 c 256,8,9
 157 0 157 0 132.5 10.5 c 128,-1,10
 108 21 108 21 89.5 39.5 c 128,-1,11
 71 58 71 58 60.5 82.5 c 128,-1,12
 50 107 50 107 50 135 c 0,13,14
 50 173 50 173 69 204.5 c 128,-1,15
 88 236 88 236 120 253 c 1,16,-1
 120 475 l 2,17,18
 120 485 120 485 124.5 492.5 c 128,-1,19
 129 500 129 500 140 500 c 2,20,-1
 225 500 l 2,21,22
 236 500 236 500 243 492.5 c 128,-1,23
 250 485 250 485 250 475 c 2,24,-1
 250 253 l 1,0,1
185 50 m 256,25,26
 220 50 220 50 245 75 c 128,-1,27
 270 100 270 100 270 135 c 0,28,29
 270 163 270 163 254 185 c 128,-1,30
 238 207 238 207 212 215 c 1,31,-1
 212 400 l 1,32,-1
 162 400 l 1,33,-1
 162 216 l 1,34,35
 135 208 135 208 117.5 186 c 128,-1,36
 100 164 100 164 100 135 c 0,37,38
 100 100 100 100 125 75 c 128,-1,39
 150 50 150 50 185 50 c 256,25,26
EndSplineSet
EndChar

StartChar: water
Encoding: 128166 128166 106
Width: 570
Flags: W
LayerCount: 2
Fore
SplineSet
134 497 m 0,0,1
 139 458 139 458 151.5 433 c 128,-1,2
 164 408 164 408 177.5 387.5 c 128,-1,3
 191 367 191 367 201.5 348 c 128,-1,4
 212 329 212 329 212 302 c 0,5,6
 212 268 212 268 188 245 c 128,-1,7
 164 222 164 222 131 222 c 256,8,9
 98 222 98 222 74 245 c 128,-1,10
 50 268 50 268 50 302 c 0,11,12
 50 329 50 329 60.5 348 c 128,-1,13
 71 367 71 367 84.5 387.5 c 128,-1,14
 98 408 98 408 110.5 433 c 128,-1,15
 123 458 123 458 128 497 c 0,16,17
 129 499 129 499 131.5 499 c 128,-1,18
 134 499 134 499 134 497 c 0,0,1
442 497 m 0,19,20
 447 458 447 458 459.5 433 c 128,-1,21
 472 408 472 408 485.5 387.5 c 128,-1,22
 499 367 499 367 509.5 348 c 128,-1,23
 520 329 520 329 520 302 c 0,24,25
 520 268 520 268 496 245 c 128,-1,26
 472 222 472 222 439 222 c 256,27,28
 406 222 406 222 382 245 c 128,-1,29
 358 268 358 268 358 302 c 0,30,31
 358 329 358 329 368.5 348 c 128,-1,32
 379 367 379 367 392.5 387.5 c 128,-1,33
 406 408 406 408 418.5 433 c 128,-1,34
 431 458 431 458 436 497 c 0,35,36
 437 499 437 499 439.5 499 c 128,-1,37
 442 499 442 499 442 497 c 0,19,20
282 275 m 0,38,39
 283 277 283 277 285.5 277 c 128,-1,40
 288 277 288 277 288 275 c 0,41,42
 293 236 293 236 305.5 211 c 128,-1,43
 318 186 318 186 331.5 165.5 c 128,-1,44
 345 145 345 145 355.5 126 c 128,-1,45
 366 107 366 107 366 80 c 0,46,47
 366 46 366 46 342 23 c 128,-1,48
 318 0 318 0 285 0 c 256,49,50
 252 0 252 0 228 23 c 128,-1,51
 204 46 204 46 204 80 c 0,52,53
 204 107 204 107 214.5 126 c 128,-1,54
 225 145 225 145 238.5 165.5 c 128,-1,55
 252 186 252 186 264.5 211 c 128,-1,56
 277 236 277 236 282 275 c 0,38,39
EndSplineSet
EndChar

StartChar: sweden
Encoding: 62977 62977 107
Width: 550
Flags: W
LayerCount: 2
Fore
SplineSet
475 400 m 2,0,1
 486 400 486 400 493 392.5 c 128,-1,2
 500 385 500 385 500 375 c 2,3,-1
 500 275 l 1,4,-1
 250 275 l 1,5,-1
 250 400 l 1,6,-1
 475 400 l 2,0,1
50 225 m 1,7,-1
 200 225 l 1,8,-1
 200 100 l 1,9,-1
 70 100 l 2,10,11
 59 100 59 100 54.5 107 c 128,-1,12
 50 114 50 114 50 125 c 2,13,-1
 50 225 l 1,7,-1
250 225 m 1,14,-1
 500 225 l 1,15,-1
 500 125 l 2,16,17
 500 114 500 114 493 107 c 128,-1,18
 486 100 486 100 475 100 c 2,19,-1
 250 100 l 1,20,-1
 250 225 l 1,14,-1
50 375 m 2,21,22
 50 385 50 385 54.5 392.5 c 128,-1,23
 59 400 59 400 70 400 c 2,24,-1
 200 400 l 1,25,-1
 200 275 l 1,26,-1
 50 275 l 1,27,-1
 50 375 l 2,21,22
EndSplineSet
EndChar

StartChar: voicemail
Encoding: 9991 9991 108
Width: 600
Flags: W
LayerCount: 2
Fore
SplineSet
435 365 m 256,0,1
 459 365 459 365 480 356 c 128,-1,2
 501 347 501 347 516.5 331.5 c 128,-1,3
 532 316 532 316 541 295 c 128,-1,4
 550 274 550 274 550 250 c 256,5,6
 550 226 550 226 541 205.5 c 128,-1,7
 532 185 532 185 516.5 169 c 128,-1,8
 501 153 501 153 480 144 c 128,-1,9
 459 135 459 135 435 135 c 2,10,-1
 165 135 l 2,11,12
 141 135 141 135 120.5 144 c 128,-1,13
 100 153 100 153 84 169 c 128,-1,14
 68 185 68 185 59 205.5 c 128,-1,15
 50 226 50 226 50 250 c 256,16,17
 50 274 50 274 59 295 c 128,-1,18
 68 316 68 316 84 331.5 c 128,-1,19
 100 347 100 347 120.5 356 c 128,-1,20
 141 365 141 365 165 365 c 256,21,22
 189 365 189 365 210 356 c 128,-1,23
 231 347 231 347 246.5 331.5 c 128,-1,24
 262 316 262 316 271 295 c 128,-1,25
 280 274 280 274 280 250 c 0,26,27
 280 214 280 214 260 185 c 1,28,-1
 340 185 l 1,29,30
 331 199 331 199 325.5 215.5 c 128,-1,31
 320 232 320 232 320 250 c 0,32,33
 320 274 320 274 329 295 c 128,-1,34
 338 316 338 316 354 331.5 c 128,-1,35
 370 347 370 347 390.5 356 c 128,-1,36
 411 365 411 365 435 365 c 256,0,1
100 250 m 0,37,38
 100 224 100 224 119 204.5 c 128,-1,39
 138 185 138 185 165 185 c 256,40,41
 192 185 192 185 211 204.5 c 128,-1,42
 230 224 230 224 230 250 c 0,43,44
 230 277 230 277 211 296 c 128,-1,45
 192 315 192 315 165 315 c 256,46,47
 138 315 138 315 119 296 c 128,-1,48
 100 277 100 277 100 250 c 0,37,38
435 185 m 256,49,50
 462 185 462 185 481 204.5 c 128,-1,51
 500 224 500 224 500 250 c 0,52,53
 500 277 500 277 481 296 c 128,-1,54
 462 315 462 315 435 315 c 256,55,56
 408 315 408 315 389 296 c 128,-1,57
 370 277 370 277 370 250 c 0,58,59
 370 224 370 224 389 204.5 c 128,-1,60
 408 185 408 185 435 185 c 256,49,50
EndSplineSet
EndChar

StartChar: lock
Encoding: 128274 128274 109
Width: 450
Flags: W
LayerCount: 2
Fore
SplineSet
370 313 m 2,0,1
 381 313 381 313 390.5 303.5 c 128,-1,2
 400 294 400 294 400 283 c 2,3,-1
 400 88 l 2,4,5
 400 77 400 77 393 68 c 128,-1,6
 386 59 386 59 376 55 c 2,7,-1
 346 46 l 2,8,9
 336 42 336 42 322 40 c 128,-1,10
 308 38 308 38 298 38 c 2,11,-1
 153 38 l 2,12,13
 142 38 142 38 128 40 c 128,-1,14
 114 42 114 42 104 46 c 2,15,-1
 74 55 l 2,16,17
 64 59 64 59 57 68 c 128,-1,18
 50 77 50 77 50 88 c 2,19,-1
 50 283 l 2,20,21
 50 294 50 294 57 303.5 c 128,-1,22
 64 313 64 313 75 313 c 2,23,-1
 125 313 l 1,24,-1
 125 348 l 2,25,26
 125 402 125 402 150 432.5 c 128,-1,27
 175 463 175 463 225 463 c 0,28,29
 276 463 276 463 300.5 432.5 c 128,-1,30
 325 402 325 402 325 348 c 2,31,-1
 325 313 l 1,32,-1
 370 313 l 2,0,1
175 313 m 1,33,-1
 275 313 l 1,34,-1
 275 358 l 2,35,36
 275 385 275 385 261.5 399 c 128,-1,37
 248 413 248 413 225 413 c 256,38,39
 202 413 202 413 188.5 399 c 128,-1,40
 175 385 175 385 175 358 c 2,41,-1
 175 313 l 1,33,-1
EndSplineSet
EndChar

StartChar: lock-open
Encoding: 128275 128275 110
Width: 450
Flags: W
LayerCount: 2
Fore
SplineSet
370 300 m 1,0,1
 381 300 381 300 390.5 290.5 c 128,-1,2
 400 281 400 281 400 270 c 2,3,-1
 400 75 l 2,4,5
 400 65 400 65 393 55.5 c 128,-1,6
 386 46 386 46 376 43 c 2,7,-1
 346 33 l 2,8,9
 336 30 336 30 322 27.5 c 128,-1,10
 308 25 308 25 298 25 c 2,11,-1
 153 25 l 2,12,13
 142 25 142 25 128 27.5 c 128,-1,14
 114 30 114 30 104 33 c 2,15,-1
 74 43 l 2,16,17
 64 46 64 46 57 55.5 c 128,-1,18
 50 65 50 65 50 75 c 2,19,-1
 50 270 l 2,20,21
 50 281 50 281 57 290.5 c 128,-1,22
 64 300 64 300 75 300 c 2,23,-1
 275 300 l 1,24,-1
 275 370 l 2,25,26
 275 398 275 398 261.5 411.5 c 128,-1,27
 248 425 248 425 225 425 c 256,28,29
 202 425 202 425 188.5 411.5 c 128,-1,30
 175 398 175 398 175 370 c 2,31,-1
 175 350 l 1,32,-1
 125 350 l 1,33,-1
 125 360 l 2,34,35
 125 415 125 415 150 445 c 128,-1,36
 175 475 175 475 225 475 c 0,37,38
 276 475 276 475 300.5 445 c 128,-1,39
 325 415 325 415 325 360 c 2,40,-1
 325 300 l 1,41,-1
 370 300 l 1,42,-1
 370 300 l 1,0,1
EndSplineSet
EndChar

StartChar: logout
Encoding: 59201 59201 111
Width: 550
Flags: W
LayerCount: 2
Fore
SplineSet
301 125 m 1,0,-1
 350 125 l 1,1,-1
 350 75 l 2,2,3
 350 55 350 55 335.5 40 c 128,-1,4
 321 25 321 25 300 25 c 2,5,-1
 100 25 l 2,6,7
 80 25 80 25 65 40 c 128,-1,8
 50 55 50 55 50 75 c 2,9,-1
 50 425 l 2,10,11
 50 446 50 446 65 460.5 c 128,-1,12
 80 475 80 475 100 475 c 2,13,-1
 300 475 l 2,14,15
 321 475 321 475 335.5 460.5 c 128,-1,16
 350 446 350 446 350 425 c 2,17,-1
 350 350 l 1,18,-1
 301 350 l 1,19,-1
 301 425 l 1,20,-1
 100 425 l 1,21,-1
 100 75 l 1,22,-1
 301 75 l 1,23,-1
 301 125 l 1,0,-1
401 140 m 1,24,-1
 401 200 l 1,25,-1
 176 200 l 1,26,-1
 176 275 l 1,27,-1
 401 275 l 1,28,-1
 401 335 l 1,29,-1
 500 238 l 1,30,-1
 401 140 l 1,24,-1
EndSplineSet
EndChar

StartChar: login
Encoding: 59200 59200 112
Width: 550
Flags: W
LayerCount: 2
Fore
SplineSet
450 475 m 2,0,1
 471 475 471 475 485.5 460.5 c 128,-1,2
 500 446 500 446 500 425 c 2,3,-1
 500 75 l 2,4,5
 500 55 500 55 485.5 40 c 128,-1,6
 471 25 471 25 450 25 c 2,7,-1
 225 25 l 2,8,9
 205 25 205 25 190.5 40 c 128,-1,10
 176 55 176 55 176 75 c 2,11,-1
 176 125 l 1,12,-1
 225 125 l 1,13,-1
 225 75 l 1,14,-1
 450 75 l 1,15,-1
 450 425 l 1,16,-1
 225 425 l 1,17,-1
 225 350 l 1,18,-1
 176 350 l 1,19,-1
 176 425 l 2,20,21
 176 446 176 446 190.5 460.5 c 128,-1,22
 205 475 205 475 225 475 c 2,23,-1
 450 475 l 2,0,1
275 200 m 1,24,-1
 50 200 l 1,25,-1
 50 275 l 1,26,-1
 275 275 l 1,27,-1
 275 335 l 1,28,-1
 375 238 l 1,29,-1
 275 140 l 1,30,-1
 275 200 l 1,24,-1
EndSplineSet
EndChar

StartChar: check
Encoding: 10003 10003 113
Width: 435
Flags: W
LayerCount: 2
Fore
SplineSet
175 75 m 1,0,1
 157 75 157 75 147 89 c 2,2,-1
 57 207 l 2,3,4
 49 219 49 219 51 233 c 128,-1,5
 53 247 53 247 64 256 c 256,6,7
 75 265 75 265 89.5 263 c 128,-1,8
 104 261 104 261 113 249 c 2,9,-1
 172 172 l 1,10,-1
 320 409 l 2,11,12
 328 421 328 421 341.5 424.5 c 128,-1,13
 355 428 355 428 368 420 c 0,14,15
 380 412 380 412 383.5 398.5 c 128,-1,16
 387 385 387 385 379 372 c 2,17,-1
 204 92 l 2,18,19
 194 76 194 76 176 76 c 1,20,21
 175 75 175 75 175 75 c 1,0,1
EndSplineSet
EndChar

StartChar: cross
Encoding: 10060 10060 114
Width: 336
Flags: W
LayerCount: 2
Fore
SplineSet
277 172 m 1,0,1
 286 163 286 163 286 150.5 c 128,-1,2
 286 138 286 138 277 129 c 0,3,4
 268 121 268 121 255.5 121 c 128,-1,5
 243 121 243 121 234 129 c 1,6,-1
 168 205 l 1,7,-1
 102 129 l 1,8,9
 93 121 93 121 80.5 121 c 128,-1,10
 68 121 68 121 59 129 c 1,11,12
 51 138 51 138 51 150.5 c 128,-1,13
 51 163 51 163 59 172 c 2,14,-1
 128 250 l 1,15,-1
 59 329 l 2,16,17
 51 338 51 338 51 350.5 c 128,-1,18
 51 363 51 363 59 372 c 1,19,20
 68 380 68 380 80.5 380 c 128,-1,21
 93 380 93 380 102 372 c 1,22,-1
 168 296 l 1,23,-1
 234 372 l 1,24,25
 243 380 243 380 255.5 380 c 128,-1,26
 268 380 268 380 277 372 c 0,27,28
 286 363 286 363 286 350.5 c 128,-1,29
 286 338 286 338 277 329 c 2,30,-1
 208 250 l 1,31,-1
 277 172 l 1,32,-1
 277 172 l 1,0,1
EndSplineSet
EndChar

StartChar: circled-minus
Encoding: 8854 8854 115
Width: 520
Flags: W
LayerCount: 2
Fore
SplineSet
260 460 m 0,0,1
 303 460 303 460 341.5 443.5 c 128,-1,2
 380 427 380 427 408.5 398.5 c 128,-1,3
 437 370 437 370 453.5 331.5 c 128,-1,4
 470 293 470 293 470 250 c 0,5,6
 470 206 470 206 453.5 168 c 128,-1,7
 437 130 437 130 408.5 101.5 c 128,-1,8
 380 73 380 73 341.5 56.5 c 128,-1,9
 303 40 303 40 260 40 c 0,10,11
 216 40 216 40 178 56.5 c 128,-1,12
 140 73 140 73 111.5 101.5 c 128,-1,13
 83 130 83 130 66.5 168 c 128,-1,14
 50 206 50 206 50 250 c 0,15,16
 50 293 50 293 66.5 331.5 c 128,-1,17
 83 370 83 370 111.5 398.5 c 128,-1,18
 140 427 140 427 178 443.5 c 128,-1,19
 216 460 216 460 260 460 c 0,0,1
134 276 m 1,20,-1
 134 225 l 1,21,-1
 386 225 l 1,22,-1
 386 276 l 1,23,-1
 134 276 l 1,20,-1
EndSplineSet
EndChar

StartChar: circled-plus
Encoding: 8853 8853 116
Width: 520
Flags: W
LayerCount: 2
Fore
SplineSet
260 460 m 0,0,1
 303 460 303 460 341.5 443.5 c 128,-1,2
 380 427 380 427 408.5 398.5 c 128,-1,3
 437 370 437 370 453.5 331.5 c 128,-1,4
 470 293 470 293 470 250 c 0,5,6
 470 206 470 206 453.5 168 c 128,-1,7
 437 130 437 130 408.5 101.5 c 128,-1,8
 380 73 380 73 341.5 56.5 c 128,-1,9
 303 40 303 40 260 40 c 0,10,11
 216 40 216 40 178 56.5 c 128,-1,12
 140 73 140 73 111.5 101.5 c 128,-1,13
 83 130 83 130 66.5 168 c 128,-1,14
 50 206 50 206 50 250 c 0,15,16
 50 293 50 293 66.5 331.5 c 128,-1,17
 83 370 83 370 111.5 398.5 c 128,-1,18
 140 427 140 427 178 443.5 c 128,-1,19
 216 460 216 460 260 460 c 0,0,1
386 225 m 1,20,-1
 386 276 l 1,21,-1
 286 276 l 1,22,-1
 286 377 l 1,23,-1
 235 377 l 1,24,-1
 235 276 l 1,25,-1
 134 276 l 1,26,-1
 134 225 l 1,27,-1
 235 225 l 1,28,-1
 235 124 l 1,29,-1
 286 124 l 1,30,-1
 286 225 l 1,31,-1
 386 225 l 1,20,-1
EndSplineSet
EndChar

StartChar: minus
Encoding: 10134 10134 117
Width: 390
Flags: W
LayerCount: 2
Fore
SplineSet
325 275 m 1,0,1
 336 275 336 275 338 268 c 128,-1,2
 340 261 340 261 340 250 c 0,3,4
 340 240 340 240 338 232.5 c 128,-1,5
 336 225 336 225 325 225 c 2,6,-1
 65 225 l 2,7,8
 54 225 54 225 52 232.5 c 128,-1,9
 50 240 50 240 50 250 c 0,10,11
 50 261 50 261 52 268 c 128,-1,12
 54 275 54 275 65 275 c 2,13,-1
 325 275 l 1,14,-1
 325 275 l 1,0,1
EndSplineSet
EndChar

StartChar: plus
Encoding: 10133 10133 118
Width: 390
Flags: W
LayerCount: 2
Fore
SplineSet
325 275 m 1,0,1
 336 275 336 275 338 268 c 128,-1,2
 340 261 340 261 340 250 c 0,3,4
 340 240 340 240 338 232.5 c 128,-1,5
 336 225 336 225 325 225 c 2,6,-1
 220 225 l 1,7,-1
 220 120 l 2,8,9
 220 110 220 110 213 107.5 c 128,-1,10
 206 105 206 105 195 105 c 256,11,12
 184 105 184 105 177 107.5 c 128,-1,13
 170 110 170 110 170 120 c 2,14,-1
 170 225 l 1,15,-1
 65 225 l 2,16,17
 54 225 54 225 52 232.5 c 128,-1,18
 50 240 50 240 50 250 c 0,19,20
 50 261 50 261 52 268 c 128,-1,21
 54 275 54 275 65 275 c 2,22,-1
 170 275 l 1,23,-1
 170 380 l 2,24,25
 170 391 170 391 177 393 c 128,-1,26
 184 395 184 395 195 395 c 256,27,28
 206 395 206 395 213 393 c 128,-1,29
 220 391 220 391 220 380 c 2,30,-1
 220 275 l 1,31,-1
 325 275 l 1,32,-1
 325 275 l 1,0,1
EndSplineSet
EndChar

StartChar: erase
Encoding: 9003 9003 119
Width: 600
Flags: W
LayerCount: 2
Fore
SplineSet
500 425 m 2,0,1
 521 425 521 425 535.5 410.5 c 128,-1,2
 550 396 550 396 550 375 c 2,3,-1
 550 125 l 2,4,5
 550 105 550 105 535.5 90 c 128,-1,6
 521 75 521 75 500 75 c 2,7,-1
 261 75 l 2,8,9
 253 75 253 75 243 79 c 128,-1,10
 233 83 233 83 226 89 c 2,11,-1
 56 237 l 2,12,13
 50 243 50 243 50 250.5 c 128,-1,14
 50 258 50 258 56 264 c 2,15,-1
 226 412 l 2,16,17
 233 418 233 418 243 421.5 c 128,-1,18
 253 425 253 425 261 425 c 2,19,-1
 500 425 l 2,0,1
466 187 m 1,20,-1
 402 250 l 1,21,-1
 466 314 l 1,22,-1
 430 350 l 1,23,-1
 366 287 l 1,24,-1
 302 350 l 1,25,-1
 266 314 l 1,26,-1
 330 250 l 1,27,-1
 266 187 l 1,28,-1
 302 150 l 1,29,-1
 366 214 l 1,30,-1
 430 150 l 1,31,-1
 466 187 l 1,20,-1
EndSplineSet
EndChar

StartChar: block
Encoding: 128683 128683 120
Width: 580
Flags: W
LayerCount: 2
Fore
SplineSet
290 490 m 256,0,1
 340 490 340 490 383.5 471 c 128,-1,2
 427 452 427 452 459.5 419.5 c 128,-1,3
 492 387 492 387 511 343.5 c 128,-1,4
 530 300 530 300 530 250 c 256,5,6
 530 200 530 200 511 156.5 c 128,-1,7
 492 113 492 113 459.5 80.5 c 128,-1,8
 427 48 427 48 383.5 29 c 128,-1,9
 340 10 340 10 290 10 c 256,10,11
 240 10 240 10 196.5 29 c 128,-1,12
 153 48 153 48 120.5 80.5 c 128,-1,13
 88 113 88 113 69 156.5 c 128,-1,14
 50 200 50 200 50 250 c 256,15,16
 50 300 50 300 69 343.5 c 128,-1,17
 88 387 88 387 120.5 419.5 c 128,-1,18
 153 452 153 452 196.5 471 c 128,-1,19
 240 490 240 490 290 490 c 256,0,1
108 250 m 0,20,21
 108 218 108 218 118.5 188 c 128,-1,22
 129 158 129 158 149 135 c 1,23,-1
 406 392 l 1,24,25
 382 412 382 412 352.5 422.5 c 128,-1,26
 323 433 323 433 290 433 c 0,27,28
 252 433 252 433 219 418.5 c 128,-1,29
 186 404 186 404 161 379.5 c 128,-1,30
 136 355 136 355 122 321.5 c 128,-1,31
 108 288 108 288 108 250 c 0,20,21
290 68 m 0,32,33
 328 68 328 68 361.5 82.5 c 128,-1,34
 395 97 395 97 419.5 121.5 c 128,-1,35
 444 146 444 146 458.5 179 c 128,-1,36
 473 212 473 212 473 250 c 0,37,38
 473 283 473 283 462 313 c 128,-1,39
 451 343 451 343 432 366 c 1,40,-1
 175 109 l 1,41,42
 198 89 198 89 227.5 78.5 c 128,-1,43
 257 68 257 68 290 68 c 0,32,33
EndSplineSet
EndChar

StartChar: info
Encoding: 8505 8505 121
Width: 330
Flags: W
LayerCount: 2
Fore
SplineSet
226 500 m 0,0,1
 251 500 251 500 263.5 486 c 128,-1,2
 276 472 276 472 276 452 c 0,3,4
 276 427 276 427 257 408 c 128,-1,5
 238 389 238 389 209 389 c 0,6,7
 185 389 185 389 172 402 c 128,-1,8
 159 415 159 415 160 438 c 0,9,10
 160 448 160 448 164 459 c 128,-1,11
 168 470 168 470 176.5 479 c 128,-1,12
 185 488 185 488 197 494 c 128,-1,13
 209 500 209 500 226 500 c 0,0,1
123 0 m 0,14,15
 113 0 113 0 105 4 c 128,-1,16
 97 8 97 8 92.5 17.5 c 128,-1,17
 88 27 88 27 88.5 44.5 c 128,-1,18
 89 62 89 62 96 89 c 2,19,-1
 126 216 l 2,20,21
 133 244 133 244 126 244 c 0,22,23
 120 244 120 244 99.5 235.5 c 128,-1,24
 79 227 79 227 63 216 c 1,25,-1
 50 238 l 1,26,27
 74 259 74 259 99 275 c 128,-1,28
 124 291 124 291 147 302 c 128,-1,29
 170 313 170 313 189 319 c 128,-1,30
 208 325 208 325 220 325 c 0,31,32
 240 325 240 325 244 303 c 128,-1,33
 248 281 248 281 238 244 c 2,34,-1
 203 111 l 2,35,36
 198 93 198 93 199.5 86 c 128,-1,37
 201 79 201 79 206 79 c 0,38,39
 212 79 212 79 229 86.5 c 128,-1,40
 246 94 246 94 265 109 c 1,41,-1
 280 89 l 1,42,43
 233 41 233 41 188 20.5 c 128,-1,44
 143 0 143 0 123 0 c 0,14,15
EndSplineSet
EndChar

StartChar: circled-info
Encoding: 59141 59141 122
Width: 562
Flags: W
LayerCount: 2
Fore
SplineSet
278 480 m 0,0,1
 326 481 326 481 368 463.5 c 128,-1,2
 410 446 410 446 441.5 415.5 c 128,-1,3
 473 385 473 385 491.5 343.5 c 128,-1,4
 510 302 510 302 511 254 c 256,5,6
 512 206 512 206 494.5 164 c 128,-1,7
 477 122 477 122 446 90 c 128,-1,8
 415 58 415 58 373.5 39.5 c 128,-1,9
 332 21 332 21 284 20 c 0,10,11
 236 20 236 20 194 37.5 c 128,-1,12
 152 55 152 55 120.5 85.5 c 128,-1,13
 89 116 89 116 70.5 157.5 c 128,-1,14
 52 199 52 199 51 247 c 256,15,16
 50 295 50 295 67.5 337 c 128,-1,17
 85 379 85 379 116 410.5 c 128,-1,18
 147 442 147 442 188.5 461 c 128,-1,19
 230 480 230 480 278 480 c 0,0,1
304 404 m 0,20,21
 281 404 281 404 270.5 391 c 128,-1,22
 260 378 260 378 260 367 c 0,23,24
 259 353 259 353 267 345 c 128,-1,25
 275 337 275 337 292 337 c 0,26,27
 312 337 312 337 323 348.5 c 128,-1,28
 334 360 334 360 334 375 c 0,29,30
 334 386 334 386 327.5 395 c 128,-1,31
 321 404 321 404 304 404 c 0,20,21
244 107 m 256,32,33
 256 107 256 107 283 118.5 c 128,-1,34
 310 130 310 130 339 159 c 1,35,-1
 330 171 l 1,36,37
 318 162 318 162 307.5 157.5 c 128,-1,38
 297 153 297 153 294 153 c 0,39,40
 287 153 287 153 292 172 c 2,41,-1
 313 252 l 2,42,43
 319 274 319 274 316.5 287 c 128,-1,44
 314 300 314 300 302 300 c 0,45,46
 288 300 288 300 258.5 286.5 c 128,-1,47
 229 273 229 273 200 248 c 1,48,-1
 208 235 l 1,49,50
 217 241 217 241 229.5 246.5 c 128,-1,51
 242 252 242 252 245 252 c 0,52,53
 251 252 251 252 245 235 c 1,54,-1
 227 159 l 2,55,56
 219 127 219 127 225.5 117 c 128,-1,57
 232 107 232 107 244 107 c 256,32,33
EndSplineSet
EndChar

StartChar: help
Encoding: 10067 10067 123
Width: 390
Flags: W
LayerCount: 2
Fore
SplineSet
297 445 m 0,0,1
 340 414 340 414 340 353 c 0,2,3
 340 335 340 335 334 319.5 c 128,-1,4
 328 304 328 304 319 291 c 0,5,6
 314 283 314 283 302 273 c 128,-1,7
 290 263 290 263 275 251 c 1,8,-1
 252 236 l 1,9,10
 244 229 244 229 237 221.5 c 128,-1,11
 230 214 230 214 228 206 c 0,12,13
 225 198 225 198 224 184 c 0,14,15
 224 182 224 182 222.5 179.5 c 128,-1,16
 221 177 221 177 216 177 c 2,17,-1
 152 177 l 2,18,19
 147 177 147 177 145.5 179 c 128,-1,20
 144 181 144 181 144 183 c 0,21,22
 145 205 145 205 147 220 c 128,-1,23
 149 235 149 235 158 245 c 0,24,25
 165 254 165 254 175.5 263 c 128,-1,26
 186 272 186 272 197 280 c 0,27,28
 209 289 209 289 222 297 c 1,29,30
 233 305 233 305 239 314 c 0,31,32
 244 322 244 322 248.5 330.5 c 128,-1,33
 253 339 253 339 253 349 c 0,34,35
 253 368 253 368 240 388 c 1,36,37
 226 406 226 406 194 406 c 0,38,39
 160 406 160 406 147 384 c 1,40,41
 133 363 133 363 133 338 c 1,42,-1
 50 338 l 1,43,44
 53 419 53 419 107 454 c 0,45,46
 141 475 141 475 190 475 c 0,47,48
 255 475 255 475 297 445 c 0,0,1
189 127 m 0,49,50
 211 127 211 127 225.5 112.5 c 128,-1,51
 240 98 240 98 239 75 c 256,52,53
 238 52 238 52 223 38.5 c 128,-1,54
 208 25 208 25 186 26 c 0,55,56
 164 26 164 26 149.5 40.5 c 128,-1,57
 135 55 135 55 136 78 c 256,58,59
 137 101 137 101 152 114.5 c 128,-1,60
 167 128 167 128 189 127 c 0,49,50
EndSplineSet
EndChar

StartChar: circled-help
Encoding: 59140 59140 124
Width: 562
Flags: W
LayerCount: 2
Fore
SplineSet
278 480 m 0,0,1
 326 481 326 481 368 463.5 c 128,-1,2
 410 446 410 446 441.5 415.5 c 128,-1,3
 473 385 473 385 491.5 343.5 c 128,-1,4
 510 302 510 302 511 254 c 256,5,6
 512 206 512 206 494.5 164 c 128,-1,7
 477 122 477 122 446 90 c 128,-1,8
 415 58 415 58 373.5 39.5 c 128,-1,9
 332 21 332 21 284 20 c 0,10,11
 236 20 236 20 194 37.5 c 128,-1,12
 152 55 152 55 120.5 85.5 c 128,-1,13
 89 116 89 116 70.5 157.5 c 128,-1,14
 52 199 52 199 51 247 c 256,15,16
 50 295 50 295 67.5 337 c 128,-1,17
 85 379 85 379 116 410.5 c 128,-1,18
 147 442 147 442 188.5 461 c 128,-1,19
 230 480 230 480 278 480 c 0,0,1
277 110 m 2,20,21
 292 110 292 110 301.5 119.5 c 128,-1,22
 311 129 311 129 311 143 c 0,23,24
 312 158 312 158 302.5 167.5 c 128,-1,25
 293 177 293 177 278 177 c 2,26,-1
 277 177 l 2,27,28
 263 177 263 177 253.5 168 c 128,-1,29
 244 159 244 159 243 145 c 1,30,31
 243 130 243 130 252.5 120.5 c 128,-1,32
 262 111 262 111 276 110 c 1,33,-1
 277 110 l 2,20,21
360 274 m 0,34,35
 373 291 373 291 373 313 c 0,36,37
 373 351 373 351 346 371 c 0,38,39
 320 390 320 390 279 390 c 0,40,41
 247 390 247 390 227 377 c 0,42,43
 193 356 193 356 191 304 c 1,44,-1
 191 302 l 1,45,-1
 246 302 l 1,46,-1
 246 304 l 2,47,48
 246 317 246 317 254 331 c 0,49,50
 261 343 261 343 281 343 c 256,51,52
 301 343 301 343 307 333 c 1,53,54
 315 323 315 323 315 311 c 0,55,56
 315 302 315 302 307 291 c 0,57,58
 303 285 303 285 297 281 c 0,59,60
 296 280 296 280 281 270 c 128,-1,61
 266 260 266 260 257 249 c 0,62,63
 252 242 252 242 250.5 233 c 128,-1,64
 249 224 249 224 248 210 c 1,65,-1
 248 206 l 1,66,-1
 302 206 l 1,67,-1
 302 208 l 2,68,69
 302 215 302 215 302.5 217 c 128,-1,70
 303 219 303 219 304 222 c 0,71,72
 307 232 307 232 318 240 c 2,73,-1
 332 249 l 1,74,75
 342 257 342 257 349 263 c 128,-1,76
 356 269 356 269 360 274 c 0,34,35
EndSplineSet
EndChar

StartChar: warning
Encoding: 9888 9888 125
Width: 582
Flags: W
LayerCount: 2
Fore
SplineSet
529 63 m 2,0,1
 534 55 534 55 529 46 c 0,2,3
 524 38 524 38 514 38 c 2,4,-1
 68 38 l 2,5,6
 59 38 59 38 54 46 c 0,7,8
 48 55 48 55 53 63 c 2,9,-1
 276 454 l 2,10,11
 280 463 280 463 291 463 c 0,12,13
 301 463 301 463 306 454 c 2,14,-1
 529 63 l 2,0,1
319 138 m 1,15,-1
 264 138 l 1,16,-1
 264 88 l 1,17,-1
 319 88 l 1,18,-1
 319 138 l 1,15,-1
319 325 m 1,19,-1
 264 325 l 1,20,-1
 264 175 l 1,21,-1
 319 175 l 1,22,-1
 319 325 l 1,19,-1
EndSplineSet
EndChar

StartChar: cycle
Encoding: 128260 128260 126
Width: 512
Flags: W
LayerCount: 2
Fore
SplineSet
202 203 m 1,0,-1
 202 57 l 1,1,-1
 64 65 l 1,2,-1
 108 108 l 1,3,4
 79 138 79 138 65 176 c 128,-1,5
 51 214 51 214 51 253 c 128,-1,6
 51 292 51 292 66 329.5 c 128,-1,7
 81 367 81 367 111 397 c 0,8,9
 137 423 137 423 167.5 437 c 128,-1,10
 198 451 198 451 231 455 c 1,11,-1
 233 404 l 1,12,13
 183 396 183 396 147 360 c 0,14,15
 125 338 125 338 113.5 310 c 128,-1,16
 102 282 102 282 102 253 c 128,-1,17
 102 224 102 224 112.5 196 c 128,-1,18
 123 168 123 168 144 145 c 1,19,-1
 202 203 l 1,0,-1
448 436 m 1,20,-1
 404 393 l 1,21,22
 433 362 433 362 447 324.5 c 128,-1,23
 461 287 461 287 461 248 c 128,-1,24
 461 209 461 209 446 171.5 c 128,-1,25
 431 134 431 134 401 104 c 0,26,27
 376 78 376 78 345 64 c 128,-1,28
 314 50 314 50 281 45 c 1,29,-1
 280 97 l 1,30,31
 329 105 329 105 365 141 c 0,32,33
 387 163 387 163 398.5 191 c 128,-1,34
 410 219 410 219 410 248 c 128,-1,35
 410 277 410 277 399.5 305 c 128,-1,36
 389 333 389 333 368 356 c 1,37,-1
 311 298 l 1,38,-1
 310 444 l 1,39,-1
 448 436 l 1,20,-1
EndSplineSet
EndChar

StartChar: cw
Encoding: 10227 10227 127
Width: 570
Flags: W
LayerCount: 2
Fore
SplineSet
254 455 m 256,0,1
 296 455 296 455 333 439.5 c 128,-1,2
 370 424 370 424 397.5 397 c 128,-1,3
 425 370 425 370 441.5 333.5 c 128,-1,4
 458 297 458 297 459 256 c 1,5,-1
 520 256 l 1,6,-1
 428 153 l 1,7,-1
 336 256 l 1,8,-1
 408 256 l 1,9,10
 407 287 407 287 394.5 314 c 128,-1,11
 382 341 382 341 361 361 c 128,-1,12
 340 381 340 381 312.5 392.5 c 128,-1,13
 285 404 285 404 254 404 c 0,14,15
 222 404 222 404 194.5 392 c 128,-1,16
 167 380 167 380 146 359 c 128,-1,17
 125 338 125 338 113 310 c 128,-1,18
 101 282 101 282 101 250 c 256,19,20
 101 218 101 218 113 190.5 c 128,-1,21
 125 163 125 163 146 142 c 128,-1,22
 167 121 167 121 194.5 109 c 128,-1,23
 222 97 222 97 254 97 c 0,24,25
 306 97 306 97 345 127 c 1,26,-1
 380 89 l 1,27,28
 354 69 354 69 322 57 c 128,-1,29
 290 45 290 45 254 45 c 0,30,31
 212 45 212 45 175 61 c 128,-1,32
 138 77 138 77 110 105 c 128,-1,33
 82 133 82 133 66 170.5 c 128,-1,34
 50 208 50 208 50 250 c 0,35,36
 50 293 50 293 66 330 c 128,-1,37
 82 367 82 367 110 395 c 128,-1,38
 138 423 138 423 175 439 c 128,-1,39
 212 455 212 455 254 455 c 256,0,1
EndSplineSet
EndChar

StartChar: ccw
Encoding: 10226 10226 128
Width: 570
Flags: W
LayerCount: 2
Fore
SplineSet
316 443 m 256,0,1
 358 443 358 443 395.5 427 c 128,-1,2
 433 411 433 411 460.5 383 c 128,-1,3
 488 355 488 355 504 317.5 c 128,-1,4
 520 280 520 280 520 238 c 256,5,6
 520 196 520 196 504 158.5 c 128,-1,7
 488 121 488 121 460.5 93 c 128,-1,8
 433 65 433 65 395.5 49 c 128,-1,9
 358 33 358 33 316 33 c 0,10,11
 280 33 280 33 248 44.5 c 128,-1,12
 216 56 216 56 190 77 c 1,13,-1
 225 114 l 1,14,15
 244 100 244 100 267 92 c 128,-1,16
 290 84 290 84 316 84 c 0,17,18
 347 84 347 84 375 96 c 128,-1,19
 403 108 403 108 424 129 c 128,-1,20
 445 150 445 150 457 178 c 128,-1,21
 469 206 469 206 469 238 c 256,22,23
 469 270 469 270 457 298 c 128,-1,24
 445 326 445 326 424 347 c 128,-1,25
 403 368 403 368 375 380 c 128,-1,26
 347 392 347 392 316 392 c 256,27,28
 285 392 285 392 257.5 380.5 c 128,-1,29
 230 369 230 369 209 348.5 c 128,-1,30
 188 328 188 328 176 301 c 128,-1,31
 164 274 164 274 163 243 c 1,32,-1
 234 243 l 1,33,-1
 142 141 l 1,34,-1
 50 243 l 1,35,-1
 112 243 l 1,36,37
 113 285 113 285 129 321.5 c 128,-1,38
 145 358 145 358 173 385 c 128,-1,39
 201 412 201 412 237.5 427.5 c 128,-1,40
 274 443 274 443 316 443 c 256,0,1
EndSplineSet
EndChar

StartChar: shuffle
Encoding: 128256 128256 129
Width: 600
Flags: W
LayerCount: 2
Fore
SplineSet
427 333 m 2,0,1
 406 333 406 333 388 325 c 128,-1,2
 370 317 370 317 354 303 c 128,-1,3
 338 289 338 289 323 270.5 c 128,-1,4
 308 252 308 252 293 232 c 0,5,6
 276 209 276 209 257 186.5 c 128,-1,7
 238 164 238 164 215 145 c 128,-1,8
 192 126 192 126 164.5 114.5 c 128,-1,9
 137 103 137 103 102 103 c 2,10,-1
 50 103 l 1,11,-1
 50 173 l 1,12,-1
 102 173 l 2,13,14
 124 173 124 173 142 181 c 128,-1,15
 160 189 160 189 176 203 c 128,-1,16
 192 217 192 217 207 235.5 c 128,-1,17
 222 254 222 254 237 274 c 0,18,19
 254 297 254 297 273 320 c 128,-1,20
 292 343 292 343 314.5 361.5 c 128,-1,21
 337 380 337 380 364.5 391.5 c 128,-1,22
 392 403 392 403 427 403 c 2,23,-1
 445 403 l 1,24,-1
 445 463 l 1,25,-1
 550 373 l 1,26,-1
 445 283 l 1,27,-1
 445 333 l 1,28,-1
 427 333 l 2,0,1
185 289 m 1,29,30
 168 307 168 307 148 317.5 c 128,-1,31
 128 328 128 328 102 328 c 2,32,-1
 50 328 l 1,33,-1
 50 398 l 1,34,-1
 102 398 l 2,35,36
 143 398 143 398 173.5 382.5 c 128,-1,37
 204 367 204 367 229 344 c 1,38,39
 220 334 220 334 212.5 324 c 128,-1,40
 205 314 205 314 197 305 c 1,41,42
 194 300 194 300 191 296.5 c 128,-1,43
 188 293 188 293 185 289 c 1,29,30
445 218 m 1,44,-1
 550 128 l 1,45,-1
 445 38 l 1,46,-1
 445 98 l 1,47,-1
 427 98 l 2,48,49
 385 98 385 98 354 114.5 c 128,-1,50
 323 131 323 131 297 156 c 1,51,52
 307 168 307 168 316 179.5 c 128,-1,53
 325 191 325 191 333 202 c 0,54,55
 335 204 335 204 336.5 206.5 c 128,-1,56
 338 209 338 209 340 212 c 1,57,58
 359 192 359 192 380 180 c 128,-1,59
 401 168 401 168 427 168 c 2,60,-1
 445 168 l 1,61,-1
 445 218 l 1,44,-1
EndSplineSet
EndChar

StartChar: back
Encoding: 128281 128281 130
Width: 525
Flags: W
LayerCount: 2
Fore
SplineSet
425 345 m 1,0,1
 445 345 445 345 460 330.5 c 128,-1,2
 475 316 475 316 475 295 c 2,3,-1
 475 150 l 2,4,5
 475 130 475 130 460 115 c 128,-1,6
 445 100 445 100 425 100 c 2,7,-1
 80 100 l 1,8,-1
 80 170 l 1,9,-1
 405 170 l 1,10,-1
 405 275 l 1,11,-1
 155 275 l 1,12,-1
 155 220 l 1,13,-1
 50 310 l 1,14,-1
 155 400 l 1,15,-1
 155 345 l 1,16,-1
 425 345 l 1,17,-1
 425 345 l 1,0,1
EndSplineSet
EndChar

StartChar: level-down
Encoding: 8627 8627 131
Width: 472
Flags: W
LayerCount: 2
Fore
SplineSet
100 175 m 1,0,1
 79 175 79 175 64.5 190 c 128,-1,2
 50 205 50 205 50 225 c 2,3,-1
 50 400 l 1,4,-1
 120 400 l 1,5,-1
 120 245 l 1,6,-1
 302 245 l 1,7,-1
 302 320 l 1,8,-1
 422 210 l 1,9,-1
 302 100 l 1,10,-1
 302 175 l 1,11,-1
 100 175 l 1,12,-1
 100 175 l 1,0,1
EndSplineSet
EndChar

StartChar: retweet
Encoding: 59159 59159 132
Width: 600
Flags: W
LayerCount: 2
Fore
SplineSet
311 170 m 1,0,-1
 375 100 l 1,1,-1
 151 100 l 2,2,3
 130 100 130 100 115.5 115 c 128,-1,4
 101 130 101 130 101 150 c 2,5,-1
 101 301 l 1,6,-1
 50 301 l 1,7,-1
 138 400 l 1,8,-1
 225 301 l 1,9,-1
 175 301 l 1,10,-1
 175 170 l 1,11,-1
 311 170 l 1,0,-1
550 200 m 1,12,-1
 463 100 l 1,13,-1
 375 200 l 1,14,-1
 426 200 l 1,15,-1
 426 330 l 1,16,-1
 289 330 l 1,17,-1
 225 400 l 1,18,-1
 450 400 l 2,19,20
 470 400 470 400 485 385.5 c 128,-1,21
 500 371 500 371 500 350 c 2,22,-1
 500 200 l 1,23,-1
 550 200 l 1,12,-1
EndSplineSet
EndChar

StartChar: loop
Encoding: 128257 128257 133
Width: 550
Flags: W
LayerCount: 2
Fore
SplineSet
450 345 m 1,0,1
 471 345 471 345 485.5 330.5 c 128,-1,2
 500 316 500 316 500 295 c 2,3,-1
 500 150 l 2,4,5
 500 130 500 130 485.5 115 c 128,-1,6
 471 100 471 100 450 100 c 2,7,-1
 100 100 l 2,8,9
 80 100 80 100 65 115 c 128,-1,10
 50 130 50 130 50 150 c 2,11,-1
 50 295 l 2,12,13
 50 316 50 316 65 330.5 c 128,-1,14
 80 345 80 345 100 345 c 2,15,-1
 225 345 l 1,16,-1
 225 400 l 1,17,-1
 325 310 l 1,18,-1
 225 220 l 1,19,-1
 225 275 l 1,20,-1
 120 275 l 1,21,-1
 120 170 l 1,22,-1
 430 170 l 1,23,-1
 430 275 l 1,24,-1
 355 275 l 1,25,-1
 355 345 l 1,26,-1
 450 345 l 1,27,-1
 450 345 l 1,0,1
EndSplineSet
EndChar

StartChar: back-in-time
Encoding: 59249 59249 134
Width: 570
Flags: W
LayerCount: 2
Fore
SplineSet
316 455 m 256,0,1
 358 455 358 455 395.5 439 c 128,-1,2
 433 423 433 423 460.5 395 c 128,-1,3
 488 367 488 367 504 330 c 128,-1,4
 520 293 520 293 520 250 c 0,5,6
 520 208 520 208 504 170.5 c 128,-1,7
 488 133 488 133 460.5 105 c 128,-1,8
 433 77 433 77 395.5 61 c 128,-1,9
 358 45 358 45 316 45 c 0,10,11
 280 45 280 45 248 57 c 128,-1,12
 216 69 216 69 190 89 c 1,13,-1
 225 127 l 1,14,15
 266 97 266 97 316 97 c 0,16,17
 347 97 347 97 375 109 c 128,-1,18
 403 121 403 121 424 142 c 128,-1,19
 445 163 445 163 457 190.5 c 128,-1,20
 469 218 469 218 469 250 c 256,21,22
 469 282 469 282 457 310 c 128,-1,23
 445 338 445 338 424 359 c 128,-1,24
 403 380 403 380 375 392 c 128,-1,25
 347 404 347 404 316 404 c 256,26,27
 285 404 285 404 257.5 392.5 c 128,-1,28
 230 381 230 381 209 361 c 128,-1,29
 188 341 188 341 176 314 c 128,-1,30
 164 287 164 287 163 256 c 1,31,-1
 234 256 l 1,32,-1
 142 153 l 1,33,-1
 50 256 l 1,34,-1
 112 256 l 1,35,36
 113 297 113 297 129 333.5 c 128,-1,37
 145 370 145 370 173 397 c 128,-1,38
 201 424 201 424 237.5 439.5 c 128,-1,39
 274 455 274 455 316 455 c 256,0,1
333 360 m 1,40,-1
 333 258 l 1,41,-1
 398 193 l 1,42,-1
 373 168 l 1,43,-1
 298 243 l 1,44,-1
 298 360 l 1,45,-1
 333 360 l 1,40,-1
EndSplineSet
EndChar

StartChar: level-up
Encoding: 8624 8624 135
Width: 525
Flags: W
LayerCount: 2
Fore
SplineSet
150 205 m 1,0,-1
 50 285 l 1,1,-1
 150 370 l 1,2,-1
 150 320 l 1,3,-1
 425 320 l 2,4,5
 445 320 445 320 460 305.5 c 128,-1,6
 475 291 475 291 475 270 c 2,7,-1
 475 130 l 1,8,-1
 405 130 l 1,9,-1
 405 250 l 1,10,-1
 150 250 l 1,11,-1
 150 205 l 1,0,-1
EndSplineSet
EndChar

StartChar: numbered-list
Encoding: 57349 57349 136
Width: 450
Flags: W
LayerCount: 2
Fore
SplineSet
100 175 m 2,0,1
 111 175 111 175 118 168 c 128,-1,2
 125 161 125 161 125 150 c 0,3,4
 125 140 125 140 118 132.5 c 128,-1,5
 111 125 111 125 100 125 c 2,6,-1
 75 125 l 2,7,8
 64 125 64 125 57 132.5 c 128,-1,9
 50 140 50 140 50 150 c 0,10,11
 50 161 50 161 57 168 c 128,-1,12
 64 175 64 175 75 175 c 2,13,-1
 100 175 l 2,0,1
100 275 m 2,14,15
 111 275 111 275 118 268 c 128,-1,16
 125 261 125 261 125 250 c 0,17,18
 125 240 125 240 118 232.5 c 128,-1,19
 111 225 111 225 100 225 c 2,20,-1
 75 225 l 2,21,22
 64 225 64 225 57 232.5 c 128,-1,23
 50 240 50 240 50 250 c 0,24,25
 50 261 50 261 57 268 c 128,-1,26
 64 275 64 275 75 275 c 2,27,-1
 100 275 l 2,14,15
100 375 m 2,28,29
 111 375 111 375 118 368 c 128,-1,30
 125 361 125 361 125 350 c 0,31,32
 125 340 125 340 118 332.5 c 128,-1,33
 111 325 111 325 100 325 c 2,34,-1
 75 325 l 2,35,36
 64 325 64 325 57 332.5 c 128,-1,37
 50 340 50 340 50 350 c 0,38,39
 50 361 50 361 57 368 c 128,-1,40
 64 375 64 375 75 375 c 2,41,-1
 100 375 l 2,28,29
200 325 m 2,42,43
 189 325 189 325 182 332.5 c 128,-1,44
 175 340 175 340 175 350 c 0,45,46
 175 361 175 361 182 368 c 128,-1,47
 189 375 189 375 200 375 c 2,48,-1
 375 375 l 2,49,50
 386 375 386 375 393 368 c 128,-1,51
 400 361 400 361 400 350 c 0,52,53
 400 340 400 340 393 332.5 c 128,-1,54
 386 325 386 325 375 325 c 2,55,-1
 200 325 l 2,42,43
375 275 m 2,56,57
 386 275 386 275 393 268 c 128,-1,58
 400 261 400 261 400 250 c 0,59,60
 400 240 400 240 393 232.5 c 128,-1,61
 386 225 386 225 375 225 c 2,62,-1
 200 225 l 2,63,64
 189 225 189 225 182 232.5 c 128,-1,65
 175 240 175 240 175 250 c 0,66,67
 175 261 175 261 182 268 c 128,-1,68
 189 275 189 275 200 275 c 2,69,-1
 375 275 l 2,56,57
375 175 m 2,70,71
 386 175 386 175 393 168 c 128,-1,72
 400 161 400 161 400 150 c 0,73,74
 400 140 400 140 393 132.5 c 128,-1,75
 386 125 386 125 375 125 c 2,76,-1
 200 125 l 2,77,78
 189 125 189 125 182 132.5 c 128,-1,79
 175 140 175 140 175 150 c 0,80,81
 175 161 175 161 182 168 c 128,-1,82
 189 175 189 175 200 175 c 2,83,-1
 375 175 l 2,70,71
EndSplineSet
EndChar

StartChar: add-to-list
Encoding: 57347 57347 137
Width: 600
Flags: W
LayerCount: 2
Fore
SplineSet
225 275 m 2,0,1
 236 275 236 275 243 268 c 128,-1,2
 250 261 250 261 250 250 c 0,3,4
 250 240 250 240 243 232.5 c 128,-1,5
 236 225 236 225 225 225 c 2,6,-1
 75 225 l 2,7,8
 64 225 64 225 57 232.5 c 128,-1,9
 50 240 50 240 50 250 c 0,10,11
 50 261 50 261 57 268 c 128,-1,12
 64 275 64 275 75 275 c 2,13,-1
 225 275 l 2,0,1
225 175 m 2,14,15
 236 175 236 175 243 168 c 128,-1,16
 250 161 250 161 250 150 c 0,17,18
 250 140 250 140 243 132.5 c 128,-1,19
 236 125 236 125 225 125 c 2,20,-1
 75 125 l 2,21,22
 64 125 64 125 57 132.5 c 128,-1,23
 50 140 50 140 50 150 c 0,24,25
 50 161 50 161 57 168 c 128,-1,26
 64 175 64 175 75 175 c 2,27,-1
 225 175 l 2,14,15
535 275 m 2,28,29
 546 275 546 275 548 268 c 128,-1,30
 550 261 550 261 550 250 c 0,31,32
 550 240 550 240 548 232.5 c 128,-1,33
 546 225 546 225 535 225 c 2,34,-1
 450 225 l 1,35,-1
 450 140 l 2,36,37
 450 130 450 130 443 127.5 c 128,-1,38
 436 125 436 125 425 125 c 256,39,40
 414 125 414 125 407 127.5 c 128,-1,41
 400 130 400 130 400 140 c 2,42,-1
 400 225 l 1,43,-1
 318 225 l 2,44,45
 307 225 307 225 305 232.5 c 128,-1,46
 303 240 303 240 303 250 c 0,47,48
 303 261 303 261 305 268 c 128,-1,49
 307 275 307 275 318 275 c 2,50,-1
 400 275 l 1,51,-1
 400 360 l 2,52,53
 400 371 400 371 407 373 c 128,-1,54
 414 375 414 375 425 375 c 256,55,56
 436 375 436 375 443 373 c 128,-1,57
 450 371 450 371 450 360 c 2,58,-1
 450 275 l 1,59,-1
 535 275 l 2,28,29
225 375 m 2,60,61
 236 375 236 375 243 368 c 128,-1,62
 250 361 250 361 250 350 c 0,63,64
 250 340 250 340 243 332.5 c 128,-1,65
 236 325 236 325 225 325 c 2,66,-1
 75 325 l 2,67,68
 64 325 64 325 57 332.5 c 128,-1,69
 50 340 50 340 50 350 c 0,70,71
 50 361 50 361 57 368 c 128,-1,72
 64 375 64 375 75 375 c 2,73,-1
 225 375 l 2,60,61
EndSplineSet
EndChar

